<?xml version="1.0" encoding="UTF-8" standalone="no"?>
<!-- Created with Inkscape (http://www.inkscape.org/) -->

<svg
   xmlns:dc="http://purl.org/dc/elements/1.1/"
   xmlns:cc="http://creativecommons.org/ns#"
   xmlns:rdf="http://www.w3.org/1999/02/22-rdf-syntax-ns#"
   xmlns:svg="http://www.w3.org/2000/svg"
   xmlns="http://www.w3.org/2000/svg"
   xmlns:sodipodi="http://sodipodi.sourceforge.net/DTD/sodipodi-0.dtd"
   xmlns:inkscape="http://www.inkscape.org/namespaces/inkscape"
   width="297mm"
   height="210mm"
   viewBox="0 0 1052.3622 744.09448"
   id="svg2"
   version="1.1"
   inkscape:version="0.91 r13725"
   sodipodi:docname="10-gravitational-wave-polarisation.svg">
  <defs
     id="defs4" />
  <sodipodi:namedview
     id="base"
     pagecolor="#ffffff"
     bordercolor="#666666"
     borderopacity="1.0"
     inkscape:pageopacity="0.0"
     inkscape:pageshadow="2"
     inkscape:zoom="0.49497475"
     inkscape:cx="568.55786"
     inkscape:cy="326.40746"
     inkscape:document-units="px"
     inkscape:current-layer="layer1"
     showgrid="false"
     inkscape:window-width="1125"
     inkscape:window-height="1011"
     inkscape:window-x="787"
     inkscape:window-y="0"
     inkscape:window-maximized="0" />
  <metadata
     id="metadata7">
    <rdf:RDF>
      <cc:Work
         rdf:about="">
        <dc:format>image/svg+xml</dc:format>
        <dc:type
           rdf:resource="http://purl.org/dc/dcmitype/StillImage" />
        <dc:title />
      </cc:Work>
    </rdf:RDF>
  </metadata>
  <g
     inkscape:label="Layer 1"
     inkscape:groupmode="layer"
     id="layer1"
     transform="translate(0,-308.26772)">
    <path
       style="fill:none;fill-rule:evenodd;stroke:#000000;stroke-width:1px;stroke-linecap:butt;stroke-linejoin:miter;stroke-opacity:1"
       d="m 207.14279,536.64794 787.14286,0"
       id="path4310"
       inkscape:connector-curvature="0" />
    <path
       style="fill:none;fill-rule:evenodd;stroke:#000000;stroke-width:1px;stroke-linecap:butt;stroke-linejoin:miter;stroke-opacity:1"
       d="m 206.42851,708.07647 788.57143,0"
       id="path4312"
       inkscape:connector-curvature="0" />
    <path
       style="fill:none;fill-rule:evenodd;stroke:#000000;stroke-width:1px;stroke-linecap:butt;stroke-linejoin:miter;stroke-opacity:1"
       d="m 311.42858,404.50506 0,435.71429"
       id="path4300"
       inkscape:connector-curvature="0" />
    <path
       style="fill:none;fill-rule:evenodd;stroke:#000000;stroke-width:1px;stroke-linecap:butt;stroke-linejoin:miter;stroke-opacity:1"
       d="m 456.0714,404.50506 0,435.71429"
       id="path4300-6"
       inkscape:connector-curvature="0" />
    <path
       style="fill:none;fill-rule:evenodd;stroke:#000000;stroke-width:1px;stroke-linecap:butt;stroke-linejoin:miter;stroke-opacity:1"
       d="m 600.71422,404.50506 0,435.71429"
       id="path4300-8"
       inkscape:connector-curvature="0" />
    <path
       style="fill:none;fill-rule:evenodd;stroke:#000000;stroke-width:1px;stroke-linecap:butt;stroke-linejoin:miter;stroke-opacity:1"
       d="m 745.35707,404.50504 0,435.71434"
       id="path4300-3"
       inkscape:connector-curvature="0" />
    <path
       style="fill:none;fill-rule:evenodd;stroke:#000000;stroke-width:1px;stroke-linecap:butt;stroke-linejoin:miter;stroke-opacity:1"
       d="m 889.9999,404.50505 0,435.71431"
       id="path4300-36"
       inkscape:connector-curvature="0" />
    <path
       style="opacity:1;fill:#808080;fill-opacity:0.12365591;stroke:#808080;stroke-width:5;stroke-linecap:butt;stroke-linejoin:round;stroke-miterlimit:4;stroke-dasharray:15.00000026, 5.00000009;stroke-dashoffset:0;stroke-opacity:1"
       d="m 514.07141,536.64795 a 58.000004,38 0 0 1 -58,38 58.000004,38 0 0 1 -58,-38 58.000004,38 0 0 1 58,-38 58.000004,38 0 0 1 58,38 z"
       id="path4136-9" />
    <path
       transform="matrix(0,1,-1,0,0,0)"
       style="opacity:1;fill:#808080;fill-opacity:0.12365591;stroke:#808080;stroke-width:5;stroke-linecap:butt;stroke-linejoin:round;stroke-miterlimit:4;stroke-dasharray:15.00000026, 5.00000009;stroke-dashoffset:0;stroke-opacity:1"
       d="m 594.64795,-745.35706 a 58.000004,38 0 0 1 -58,38 58.000004,38 0 0 1 -58,-38 58.000004,38 0 0 1 58,-38 58.000004,38 0 0 1 58,38 z"
       id="path4136-9-6" />
    <path
       style="opacity:1;fill:#808080;fill-opacity:0.12365591;stroke:#808080;stroke-width:5;stroke-linecap:butt;stroke-linejoin:round;stroke-miterlimit:4;stroke-dasharray:15, 5;stroke-dashoffset:0;stroke-opacity:1"
       d="m 648.21423,536.64795 a 47.5,47.5 0 0 1 -47.5,47.5 47.5,47.5 0 0 1 -47.5,-47.5 47.5,47.5 0 0 1 47.5,-47.5 47.5,47.5 0 0 1 47.5,47.5 z"
       id="path4136-3" />
    <path
       style="opacity:1;fill:#808080;fill-opacity:0.12365591;stroke:#808080;stroke-width:5;stroke-linecap:butt;stroke-linejoin:round;stroke-miterlimit:4;stroke-dasharray:15, 5;stroke-dashoffset:0;stroke-opacity:1"
       d="m 937.49988,536.64795 a 47.5,47.5 0 0 1 -47.5,47.5 47.5,47.5 0 0 1 -47.5,-47.5 47.5,47.5 0 0 1 47.5,-47.5 47.5,47.5 0 0 1 47.5,47.5 z"
       id="path4136-4" />
    <path
       style="opacity:1;fill:#808080;fill-opacity:0.12365591;stroke:#808080;stroke-width:5;stroke-linecap:butt;stroke-linejoin:round;stroke-miterlimit:4;stroke-dasharray:15, 5;stroke-dashoffset:0;stroke-opacity:1"
       d="m 358.92859,536.64795 a 47.5,47.5 0 0 1 -47.5,47.5 47.5,47.5 0 0 1 -47.5,-47.5 47.5,47.5 0 0 1 47.5,-47.5 47.5,47.5 0 0 1 47.5,47.5 z"
       id="path4136" />
    <path
       style="opacity:1;fill:#808080;fill-opacity:0.12365591;stroke:#808080;stroke-width:5;stroke-linecap:butt;stroke-linejoin:round;stroke-miterlimit:4;stroke-dasharray:15, 5;stroke-dashoffset:0;stroke-opacity:1"
       d="m 358.92859,708.07648 a 47.5,47.5 0 0 1 -47.5,47.5 47.5,47.5 0 0 1 -47.5,-47.5 47.5,47.5 0 0 1 47.5,-47.5 47.5,47.5 0 0 1 47.5,47.5 z"
       id="path4136-8" />
    <path
       transform="matrix(0.70710678,-0.70710678,0.70710678,0.70710678,0,0)"
       style="opacity:1;fill:#808080;fill-opacity:0.12365591;stroke:#808080;stroke-width:5;stroke-linecap:butt;stroke-linejoin:round;stroke-miterlimit:4;stroke-dasharray:15.00000026, 5.00000009;stroke-dashoffset:0;stroke-opacity:1"
       d="m -120.1945,823.17682 a 58.000004,38 0 0 1 -58,38 58.000004,38 0 0 1 -58.00001,-38 58.000004,38 0 0 1 58.00001,-38 58.000004,38 0 0 1 58,38 z"
       id="path4136-9-7" />
    <path
       transform="matrix(0.70710678,0.70710678,-0.70710678,0.70710678,0,0)"
       style="opacity:1;fill:#808080;fill-opacity:0.12365591;stroke:#808080;stroke-width:5;stroke-linecap:butt;stroke-linejoin:round;stroke-miterlimit:4;stroke-dasharray:15.00000026, 5.00000009;stroke-dashoffset:0;stroke-opacity:1"
       d="m 1085.7327,-26.361378 a 58.000004,38 0 0 1 -58,38 58.000004,38 0 0 1 -58.00004,-38 58.000004,38 0 0 1 58.00004,-38 58.000004,38 0 0 1 58,38 z"
       id="path4136-9-7-3" />
    <path
       style="opacity:1;fill:#808080;fill-opacity:0.12365591;stroke:#808080;stroke-width:5;stroke-linecap:butt;stroke-linejoin:round;stroke-miterlimit:4;stroke-dasharray:15, 5;stroke-dashoffset:0;stroke-opacity:1"
       d="m 648.21423,708.07648 a 47.5,47.5 0 0 1 -47.5,47.5 47.5,47.5 0 0 1 -47.5,-47.5 47.5,47.5 0 0 1 47.5,-47.5 47.5,47.5 0 0 1 47.5,47.5 z"
       id="path4136-8-7" />
    <path
       style="opacity:1;fill:#808080;fill-opacity:0.12365591;stroke:#808080;stroke-width:5;stroke-linecap:butt;stroke-linejoin:round;stroke-miterlimit:4;stroke-dasharray:15, 5;stroke-dashoffset:0;stroke-opacity:1"
       d="m 937.49988,708.07648 a 47.5,47.5 0 0 1 -47.5,47.5 47.5,47.5 0 0 1 -47.5,-47.5 47.5,47.5 0 0 1 47.5,-47.5 47.5,47.5 0 0 1 47.5,47.5 z"
       id="path4136-8-0" />
    <g
       style="font-style:normal;font-variant:normal;font-weight:normal;font-stretch:normal;font-size:40px;line-height:125%;font-family:Arial;-inkscape-font-specification:Arial;letter-spacing:0px;word-spacing:0px;fill:#000000;fill-opacity:1;stroke:none;stroke-width:1px;stroke-linecap:butt;stroke-linejoin:miter;stroke-opacity:1"
       id="text4393">
      <path
         d="m 157.21119,532.96993 0,-5.96 c 0,-2.96 0.16,-5 0.36,-7.48 0,-0.28 -0.12,-0.4 -0.36,-0.4 -1.04,0.4 -1.88,0.68 -3.48,0.8 l -0.08,0.12 c 0.28,1.72 0.36,4.72 0.36,7.76 l 0,12.04 c 0,3 -0.08,4.96 -0.36,7.2 l 0.08,0.12 c 0.48,-0.08 1.4,-0.12 1.88,-0.12 0.48,0 1.4,0.04 1.88,0.12 l 0.08,-0.12 c -0.32,-2.28 -0.36,-4.16 -0.36,-7.2 l 0,-4.68 c 2.04,-2.4 4.36,-3.28 5.8,-3.28 2.04,0 2.88,0.8 2.88,4.04 l 0,3.92 c 0,3 -0.04,5.08 -0.36,7.2 l 0.08,0.12 c 0.48,-0.08 1.4,-0.12 1.88,-0.12 0.48,0 1.4,0.04 1.88,0.12 l 0.08,-0.12 c -0.32,-2.28 -0.36,-4.16 -0.36,-7.2 0,-1.28 0.08,-2.76 0.08,-4.04 0,-4.16 -1.36,-6.32 -4.96,-6.32 -1.52,0 -4.36,0.6 -6.92,3.6 l -0.08,-0.12 z"
         style="font-style:normal;font-variant:normal;font-weight:normal;font-stretch:normal;font-family:'Linux Biolinum O';-inkscape-font-specification:'Linux Biolinum O'"
         id="path3399" />
      <path
         d="m 179.87832,548.36793 0,-4.524 -1.326,0 0,4.524 -4.472,0 0,1.274 4.472,0 0,4.524 1.326,0 0,-4.524 4.472,0 0,-1.274 -4.472,0 z"
         style="font-size:64.99999762%;baseline-shift:sub"
         id="path3401" />
    </g>
    <g
       style="font-style:normal;font-variant:normal;font-weight:normal;font-stretch:normal;font-size:40px;line-height:125%;font-family:Arial;-inkscape-font-specification:Arial;letter-spacing:0px;word-spacing:0px;fill:#000000;fill-opacity:1;stroke:none;stroke-width:1px;stroke-linecap:butt;stroke-linejoin:miter;stroke-opacity:1"
       id="text4393-5">
      <path
         d="m 158.25119,704.90547 0,-5.96 c 0,-2.96 0.16,-5 0.36,-7.48 0,-0.28 -0.12,-0.4 -0.36,-0.4 -1.04,0.4 -1.88,0.68 -3.48,0.8 l -0.08,0.12 c 0.28,1.72 0.36,4.72 0.36,7.76 l 0,12.04 c 0,3 -0.08,4.96 -0.36,7.2 l 0.08,0.12 c 0.48,-0.08 1.4,-0.12 1.88,-0.12 0.48,0 1.4,0.04 1.88,0.12 l 0.08,-0.12 c -0.32,-2.28 -0.36,-4.16 -0.36,-7.2 l 0,-4.68 c 2.04,-2.4 4.36,-3.28 5.8,-3.28 2.04,0 2.88,0.8 2.88,4.04 l 0,3.92 c 0,3 -0.04,5.08 -0.36,7.2 l 0.08,0.12 c 0.48,-0.08 1.4,-0.12 1.88,-0.12 0.48,0 1.4,0.04 1.88,0.12 l 0.08,-0.12 c -0.32,-2.28 -0.36,-4.16 -0.36,-7.2 0,-1.28 0.08,-2.76 0.08,-4.04 0,-4.16 -1.36,-6.32 -4.96,-6.32 -1.52,0 -4.36,0.6 -6.92,3.6 l -0.08,-0.12 z"
         style="font-style:normal;font-variant:normal;font-weight:normal;font-stretch:normal;font-family:'Linux Biolinum O';-inkscape-font-specification:'Linux Biolinum O'"
         id="path3394" />
      <path
         d="m 181.15231,721.00547 3.198,-3.198 -0.91,-0.91 -3.172,3.198 -3.172,-3.198 -0.936,0.91 3.198,3.198 -3.198,3.172 0.936,0.91 3.172,-3.172 3.172,3.172 0.91,-0.91 -3.198,-3.172 z"
         style="font-size:64.99999762%;baseline-shift:sub"
         id="path3396" />
    </g>
    <g
       style="font-style:normal;font-variant:normal;font-weight:normal;font-stretch:normal;font-size:40px;line-height:125%;font-family:Arial;-inkscape-font-specification:Arial;letter-spacing:0px;word-spacing:0px;fill:#000000;fill-opacity:1;stroke:none;stroke-width:1px;stroke-linecap:butt;stroke-linejoin:miter;stroke-opacity:1"
       id="text4393-5-5">
      <path
         d="m 311.54858,872.7308 c 0.68,0 1.32,0.24 1.76,0.64 1.24,1.04 2.32,4.16 2.32,9.52 0,3.68 -0.12,5.76 -0.68,7.8 -0.88,3.32 -2.84,3.72 -3.56,3.72 -3.72,0 -4.16,-6.84 -4.16,-10.32 0,-9.88 2.48,-11.36 4.32,-11.36 z m -0.2,23.24 c 3.08,0 7.72,-3.4 7.72,-12.76 0,-6.24 -2.28,-9.32 -3.72,-10.64 -1.08,-1 -2.36,-1.4 -3.8,-1.4 -4,0 -7.76,4.96 -7.76,12.84 0,6.48 2.6,11.96 7.56,11.96 z"
         style="font-style:normal;font-variant:normal;font-weight:normal;font-stretch:normal;font-family:'Linux Biolinum O';-inkscape-font-specification:'Linux Biolinum O'"
         id="path3391" />
    </g>
    <g
       style="font-style:normal;font-variant:normal;font-weight:normal;font-stretch:normal;font-size:40px;line-height:125%;font-family:Arial;-inkscape-font-specification:Arial;letter-spacing:0px;word-spacing:0px;fill:#000000;fill-opacity:1;stroke:none;stroke-width:1px;stroke-linecap:butt;stroke-linejoin:miter;stroke-opacity:1"
       id="text4393-5-5-5">
      <path
         d="m 434.4617,880.87085 1.16,0 c 0,1.4 0,3.8 -0.12,6.04 -0.28,4.96 -1.6,7 -2.52,8.4 l 0.32,0.48 c 1.12,-0.16 2.88,-0.44 4,-0.92 0.44,-1.68 0.88,-5.8 0.88,-9.24 0,-1.44 0,-3.16 -0.04,-4.76 l 5.12,0 c -0.48,3.72 -0.72,9.24 -0.56,11.56 0.16,2.56 0.96,3.28 2.48,3.28 1.68,0 3.52,-0.52 5.04,-1.88 l -0.48,-1 c -0.88,0.48 -1.88,0.8 -2.52,0.8 -1.04,0 -1.56,-0.64 -1.72,-3.36 -0.2,-2.64 -0.12,-4.96 0.12,-9.4 l 1.56,0 c 0.64,0 1.28,0 1.88,-0.12 0.88,-0.76 1.52,-1.4 2,-2.36 l -0.4,-0.36 c -1.04,0.08 -2.04,0.12 -3.08,0.12 l -13.12,0 c -2.52,0 -3.6,1.6 -4.28,4.32 l 0.92,0.32 c 1.04,-1.52 1.4,-1.92 3.36,-1.92 z"
         style="font-style:normal;font-variant:normal;font-weight:normal;font-stretch:normal;font-family:'Linux Biolinum O';-inkscape-font-specification:'Linux Biolinum O'"
         id="path3384" />
      <path
         d="m 463.71045,869.47085 -1.64,0 -9.48,28.2 1.64,0 9.48,-28.2 z"
         style="font-style:normal;font-variant:normal;font-weight:normal;font-stretch:normal;font-family:'Linux Biolinum O';-inkscape-font-specification:'Linux Biolinum O'"
         id="path3386" />
      <path
         d="m 473.76107,873.19085 c 2.08,0 4.2,1.92 4.2,4.76 0,1.64 -0.48,3.76 -1.52,5.32 -2.84,4.28 -7.44,8.32 -9.4,10.16 -0.04,0.16 -0.08,0.32 -0.08,0.52 0,0.6 0.2,1.24 0.4,1.56 2.96,-0.08 4.68,-0.2 7.6,-0.2 2.88,0 4.08,0.08 6.92,0.2 -0.04,-0.4 -0.12,-0.88 -0.12,-1.32 0,-0.64 0.04,-1.24 0.2,-1.88 -2.24,0.2 -3.48,0.32 -7.32,0.32 -1.4,0 -2.16,0 -3.28,0.08 0,-0.04 -0.04,-0.12 -0.04,-0.2 0,-0.36 0.44,-0.76 0.72,-1.08 1.96,-1.88 3.84,-3.68 6.48,-7.24 1.48,-1.96 2.88,-4.52 2.88,-6.8 0,-3.8 -2.56,-6.48 -7,-6.48 -3.64,0 -6,2.04 -6.88,3.24 l 0.84,2.76 0.52,0.04 c 0.56,-1.2 0.76,-2 1.8,-2.84 0.8,-0.64 1.96,-0.92 3.08,-0.92 z"
         style="font-style:normal;font-variant:normal;font-weight:normal;font-stretch:normal;font-family:'Linux Biolinum O';-inkscape-font-specification:'Linux Biolinum O'"
         id="path3388" />
    </g>
    <g
       style="font-style:normal;font-variant:normal;font-weight:normal;font-stretch:normal;font-size:40px;line-height:125%;font-family:Arial;-inkscape-font-specification:Arial;letter-spacing:0px;word-spacing:0px;fill:#000000;fill-opacity:1;stroke:none;stroke-width:1px;stroke-linecap:butt;stroke-linejoin:miter;stroke-opacity:1"
       id="text4393-5-5-5-8">
      <path
         d="m 594.5542,877.53083 1.16,0 c 0,1.4 0,3.8 -0.12,6.04 -0.28,4.96 -1.6,7 -2.52,8.4 l 0.32,0.48 c 1.12,-0.16 2.88,-0.44 4,-0.92 0.44,-1.68 0.88,-5.8 0.88,-9.24 0,-1.44 0,-3.16 -0.04,-4.76 l 5.12,0 c -0.48,3.72 -0.72,9.24 -0.56,11.56 0.16,2.56 0.96,3.28 2.48,3.28 1.68,0 3.52,-0.52 5.04,-1.88 l -0.48,-1 c -0.88,0.48 -1.88,0.8 -2.52,0.8 -1.04,0 -1.56,-0.64 -1.72,-3.36 -0.2,-2.64 -0.12,-4.96 0.12,-9.4 l 1.56,0 c 0.64,0 1.28,0 1.88,-0.12 0.88,-0.76 1.52,-1.4 2,-2.36 l -0.4,-0.36 c -1.04,0.08 -2.04,0.12 -3.08,0.12 l -13.12,0 c -2.52,0 -3.6,1.6 -4.28,4.32 l 0.92,0.32 c 1.04,-1.52 1.4,-1.92 3.36,-1.92 z"
         style="font-style:normal;font-variant:normal;font-weight:normal;font-stretch:normal;font-family:'Linux Biolinum O';-inkscape-font-specification:'Linux Biolinum O'"
         id="path3381" />
    </g>
    <g
       style="font-style:normal;font-variant:normal;font-weight:normal;font-stretch:normal;font-size:40px;line-height:125%;font-family:Arial;-inkscape-font-specification:Arial;letter-spacing:0px;word-spacing:0px;fill:#000000;fill-opacity:1;stroke:none;stroke-width:1px;stroke-linecap:butt;stroke-linejoin:miter;stroke-opacity:1"
       id="text4393-5-5-5-8-3">
      <path
         d="m 716.85048,894.15085 c -3.16,0 -3.6,-1.2 -4.68,-3.52 l -0.6,0.04 -0.88,3 0.12,0.12 c 1.04,0.88 2.76,1.92 5.96,1.92 3.4,0 8.76,-2.32 8.76,-7.6 0,-3.16 -2.44,-5.4 -5.52,-5.68 l 0,-0.2 c 2.08,-0.48 4.72,-2.8 4.72,-6.12 0,-2.88 -2.48,-5.2 -6.44,-5.2 -3.08,0 -5.32,1.36 -6.32,2.24 l -0.12,0.12 0.84,2.56 0.6,0.04 c 0.96,-2.24 2.24,-3.4 4.64,-3.4 1.56,0 3.32,1.64 3.32,4.24 0,1.76 -0.6,3.04 -1.52,3.92 -0.8,0.76 -1.96,1.12 -3.32,1.12 -0.48,0 -0.92,-0.04 -1.48,-0.12 l 0,1.76 c 0.48,-0.08 1.32,-0.08 1.68,-0.08 1.28,0 2.8,0.36 3.92,1.28 1.04,0.88 1.56,2.28 1.56,3.84 0,4.84 -3.8,5.72 -5.24,5.72 z"
         style="font-style:normal;font-variant:normal;font-weight:normal;font-stretch:normal;font-family:'Linux Biolinum O';-inkscape-font-specification:'Linux Biolinum O'"
         id="path3372" />
      <path
         d="m 732.52423,880.87085 1.16,0 c 0,1.4 0,3.8 -0.12,6.04 -0.28,4.96 -1.6,7 -2.52,8.4 l 0.32,0.48 c 1.12,-0.16 2.88,-0.44 4,-0.92 0.44,-1.68 0.88,-5.8 0.88,-9.24 0,-1.44 0,-3.16 -0.04,-4.76 l 5.12,0 c -0.48,3.72 -0.72,9.24 -0.56,11.56 0.16,2.56 0.96,3.28 2.48,3.28 1.68,0 3.52,-0.52 5.04,-1.88 l -0.48,-1 c -0.88,0.48 -1.88,0.8 -2.52,0.8 -1.04,0 -1.56,-0.64 -1.72,-3.36 -0.2,-2.64 -0.12,-4.96 0.12,-9.4 l 1.56,0 c 0.64,0 1.28,0 1.88,-0.12 0.88,-0.76 1.52,-1.4 2,-2.36 l -0.4,-0.36 c -1.04,0.08 -2.04,0.12 -3.08,0.12 l -13.12,0 c -2.52,0 -3.6,1.6 -4.28,4.32 l 0.92,0.32 c 1.04,-1.52 1.4,-1.92 3.36,-1.92 z"
         style="font-style:normal;font-variant:normal;font-weight:normal;font-stretch:normal;font-family:'Linux Biolinum O';-inkscape-font-specification:'Linux Biolinum O'"
         id="path3374" />
      <path
         d="m 761.77298,869.47085 -1.64,0 -9.48,28.2 1.64,0 9.48,-28.2 z"
         style="font-style:normal;font-variant:normal;font-weight:normal;font-stretch:normal;font-family:'Linux Biolinum O';-inkscape-font-specification:'Linux Biolinum O'"
         id="path3376" />
      <path
         d="m 771.8236,873.19085 c 2.08,0 4.2,1.92 4.2,4.76 0,1.64 -0.48,3.76 -1.52,5.32 -2.84,4.28 -7.44,8.32 -9.4,10.16 -0.04,0.16 -0.08,0.32 -0.08,0.52 0,0.6 0.2,1.24 0.4,1.56 2.96,-0.08 4.68,-0.2 7.6,-0.2 2.88,0 4.08,0.08 6.92,0.2 -0.04,-0.4 -0.12,-0.88 -0.12,-1.32 0,-0.64 0.04,-1.24 0.2,-1.88 -2.24,0.2 -3.48,0.32 -7.32,0.32 -1.4,0 -2.16,0 -3.28,0.08 0,-0.04 -0.04,-0.12 -0.04,-0.2 0,-0.36 0.44,-0.76 0.72,-1.08 1.96,-1.88 3.84,-3.68 6.48,-7.24 1.48,-1.96 2.88,-4.52 2.88,-6.8 0,-3.8 -2.56,-6.48 -7,-6.48 -3.64,0 -6,2.04 -6.88,3.24 l 0.84,2.76 0.52,0.04 c 0.56,-1.2 0.76,-2 1.8,-2.84 0.8,-0.64 1.96,-0.92 3.08,-0.92 z"
         style="font-style:normal;font-variant:normal;font-weight:normal;font-stretch:normal;font-family:'Linux Biolinum O';-inkscape-font-specification:'Linux Biolinum O'"
         id="path3378" />
    </g>
    <g
       style="font-style:normal;font-variant:normal;font-weight:normal;font-stretch:normal;font-size:40px;line-height:125%;font-family:Arial;-inkscape-font-specification:Arial;letter-spacing:0px;word-spacing:0px;fill:#000000;fill-opacity:1;stroke:none;stroke-width:1px;stroke-linecap:butt;stroke-linejoin:miter;stroke-opacity:1"
       id="text4393-5-5-5-8-3-4">
      <path
         d="m 877.52301,873.41082 c 2.08,0 4.2,1.92 4.2,4.76 0,1.64 -0.48,3.76 -1.52,5.32 -2.84,4.28 -7.44,8.32 -9.4,10.16 -0.04,0.16 -0.08,0.32 -0.08,0.52 0,0.6 0.2,1.24 0.4,1.56 2.96,-0.08 4.68,-0.2 7.6,-0.2 2.88,0 4.08,0.08 6.92,0.2 -0.04,-0.4 -0.12,-0.88 -0.12,-1.32 0,-0.64 0.04,-1.24 0.2,-1.88 -2.24,0.2 -3.48,0.32 -7.32,0.32 -1.4,0 -2.16,0 -3.28,0.08 0,-0.04 -0.04,-0.12 -0.04,-0.2 0,-0.36 0.44,-0.76 0.72,-1.08 1.96,-1.88 3.84,-3.68 6.48,-7.24 1.48,-1.96 2.88,-4.52 2.88,-6.8 0,-3.8 -2.56,-6.48 -7,-6.48 -3.64,0 -6,2.04 -6.88,3.24 l 0.84,2.76 0.52,0.04 c 0.56,-1.2 0.76,-2 1.8,-2.84 0.8,-0.64 1.96,-0.92 3.08,-0.92 z"
         style="font-style:normal;font-variant:normal;font-weight:normal;font-stretch:normal;font-family:'Linux Biolinum O';-inkscape-font-specification:'Linux Biolinum O'"
         id="path3367" />
      <path
         d="m 892.67676,881.09082 1.16,0 c 0,1.4 0,3.8 -0.12,6.04 -0.28,4.96 -1.6,7 -2.52,8.4 l 0.32,0.48 c 1.12,-0.16 2.88,-0.44 4,-0.92 0.44,-1.68 0.88,-5.8 0.88,-9.24 0,-1.44 0,-3.16 -0.04,-4.76 l 5.12,0 c -0.48,3.72 -0.72,9.24 -0.56,11.56 0.16,2.56 0.96,3.28 2.48,3.28 1.68,0 3.52,-0.52 5.04,-1.88 l -0.48,-1 c -0.88,0.48 -1.88,0.8 -2.52,0.8 -1.04,0 -1.56,-0.64 -1.72,-3.36 -0.2,-2.64 -0.12,-4.96 0.12,-9.4 l 1.56,0 c 0.64,0 1.28,0 1.88,-0.12 0.88,-0.76 1.52,-1.4 2,-2.36 l -0.4,-0.36 c -1.04,0.08 -2.04,0.12 -3.08,0.12 l -13.12,0 c -2.52,0 -3.6,1.6 -4.28,4.32 l 0.92,0.32 c 1.04,-1.52 1.4,-1.92 3.36,-1.92 z"
         style="font-style:normal;font-variant:normal;font-weight:normal;font-stretch:normal;font-family:'Linux Biolinum O';-inkscape-font-specification:'Linux Biolinum O'"
         id="path3369" />
    </g>
  </g>
</svg>
