<?xml version="1.0" encoding="UTF-8" standalone="no"?>
<svg
   xmlns:dc="http://purl.org/dc/elements/1.1/"
   xmlns:cc="http://creativecommons.org/ns#"
   xmlns:rdf="http://www.w3.org/1999/02/22-rdf-syntax-ns#"
   xmlns:svg="http://www.w3.org/2000/svg"
   xmlns="http://www.w3.org/2000/svg"
   xmlns:sodipodi="http://sodipodi.sourceforge.net/DTD/sodipodi-0.dtd"
   xmlns:inkscape="http://www.inkscape.org/namespaces/inkscape"
   id="b-bsp"
   width="297mm"
   height="210mm"
   version="1.1"
   inkscape:version="0.91 r13725"
   sodipodi:docname="10-michelson.svg">
  <metadata
     id="metadata16">
    <rdf:RDF>
      <cc:Work
         rdf:about="">
        <dc:format>image/svg+xml</dc:format>
        <dc:type
           rdf:resource="http://purl.org/dc/dcmitype/StillImage" />
        <dc:title />
      </cc:Work>
    </rdf:RDF>
  </metadata>
  <defs
     id="defs14">
    <linearGradient
       gradientTransform="matrix(0.35,0,0,1,-117.1952,-14.3086)"
       y2="14.6831"
       x2="350.0874"
       y1="43.0298"
       x1="350.0874"
       gradientUnits="userSpaceOnUse"
       id="b-cav-mir-grad-0">
      <stop
         id="stop4224-0"
         style="stop-color:#89A4B6"
         offset="0.0056" />
      <stop
         id="stop4226-1"
         style="stop-color:#FFFFFF"
         offset="0.5" />
      <stop
         id="stop4228-9"
         style="stop-color:#89A4B6"
         offset="1" />
    </linearGradient>
  </defs>
  <sodipodi:namedview
     pagecolor="#ffffff"
     bordercolor="#666666"
     borderopacity="1"
     objecttolerance="10"
     gridtolerance="10"
     guidetolerance="10"
     inkscape:pageopacity="0"
     inkscape:pageshadow="2"
     inkscape:window-width="1920"
     inkscape:window-height="1015"
     id="namedview12"
     showgrid="false"
     inkscape:zoom="1"
     inkscape:cx="390.79964"
     inkscape:cy="402.99547"
     inkscape:window-x="0"
     inkscape:window-y="0"
     inkscape:window-maximized="1"
     inkscape:current-layer="b-bsp"
     units="mm" />
  <g
     id="b-cav-mir"
     transform="matrix(0,-1,1,0,447.10758,170.99629)"
     style="opacity:0.7">
    <linearGradient
       gradientTransform="matrix(0.35,0,0,1,-117.1952,-14.3086)"
       y2="14.6831"
       x2="350.0874"
       y1="43.0298"
       x1="350.0874"
       gradientUnits="userSpaceOnUse"
       id="b-cav-mir-grad">
      <stop
         id="stop4224"
         style="stop-color:#89A4B6"
         offset="0.0056" />
      <stop
         id="stop4226"
         style="stop-color:#FFFFFF"
         offset="0.5" />
      <stop
         id="stop4228"
         style="stop-color:#89A4B6"
         offset="1" />
    </linearGradient>
    <path
       style="fill:url(#b-cav-mir-grad);stroke:#000000;stroke-width:0.75"
       d="m 0.375,0.375 9.921,0 0,28.346001 -9.921,0 z"
       id="rect4230" />
  </g>
  <g
     id="b-cav-mir-3"
     transform="translate(673.08965,358.13034)"
     style="opacity:0.7">
    <linearGradient
       gradientTransform="matrix(0.35,0,0,1,-117.1952,-14.3086)"
       y2="14.6831"
       x2="350.0874"
       y1="43.0298"
       x1="350.0874"
       gradientUnits="userSpaceOnUse"
       id="linearGradient4257">
      <stop
         id="stop4259"
         style="stop-color:#89A4B6"
         offset="0.0056" />
      <stop
         id="stop4261"
         style="stop-color:#FFFFFF"
         offset="0.5" />
      <stop
         id="stop4263"
         style="stop-color:#89A4B6"
         offset="1" />
    </linearGradient>
    <path
       style="fill:url(#b-cav-mir-grad-0);stroke:#000000;stroke-width:0.75"
       d="m 0.375,0.375 9.921,0 0,28.346001 -9.921,0 z"
       id="rect4230-6" />
  </g>
  <path
     style="fill:none;fill-rule:evenodd;stroke:#ff0000;stroke-width:1.99999988;stroke-linecap:butt;stroke-linejoin:miter;stroke-miterlimit:4;stroke-dasharray:none;stroke-opacity:1"
     d="m 361.695,371.04249 100,0"
     id="path4177"
     inkscape:connector-curvature="0" />
  <g
     id="c-laser1"
     transform="matrix(0.59885343,0,0,0.59885343,327.3526,357.23772)">
    <path
       style="fill:#302b33"
       d="m 5,0.375 56.695,0 0,12.756 -56.695,0 z"
       id="rect4166" />
    <path
       style="fill:#302b33"
       d="m 5,32.973 56.695,0 0,12.755999 -56.695,0 z"
       id="rect4168" />
    <linearGradient
       y2="13.1309"
       x2="28.721701"
       y1="32.972698"
       x1="28.721701"
       gradientUnits="userSpaceOnUse"
       id="c-laser1-grad">
      <stop
         id="stop4171"
         style="stop-color:#FFFFFF"
         offset="0" />
      <stop
         id="stop4173"
         style="stop-color:#FEFCFC"
         offset="0.0051" />
      <stop
         id="stop4175"
         style="stop-color:#E6A4A4"
         offset="0.1497" />
      <stop
         id="stop4177"
         style="stop-color:#D35E5E"
         offset="0.277" />
      <stop
         id="stop4179"
         style="stop-color:#C62B2B"
         offset="0.3823" />
      <stop
         id="stop4181"
         style="stop-color:#BD0C0C"
         offset="0.4615" />
      <stop
         id="stop4183"
         style="stop-color:#BA0000"
         offset="0.5056" />
      <stop
         id="stop4185"
         style="stop-color:#D86E6E"
         offset="0.7077" />
      <stop
         id="stop4187"
         style="stop-color:#F4D6D6"
         offset="0.9099" />
      <stop
         id="stop4189"
         style="stop-color:#FFFFFF"
         offset="1" />
    </linearGradient>
    <path
       style="fill:url(#c-laser1-grad);stroke:#000000;stroke-width:1.25239325"
       d="m 5,13.131 56.695,0 0,19.841999 -56.695,0 z"
       id="rect4191" />
    <path
       style="stroke:#000000;stroke-width:1.25239325"
       d="m 0.75,3.2090001 4.2519999,0 0,39.6860009 -4.2519999,0 z"
       id="rect4193" />
    <path
       style="fill:none;stroke:#000000;stroke-width:1.25239325"
       d="m 5,0.375 56.695,0 0,45.354 -56.695,0 z"
       id="rect4195" />
  </g>
  <path
     style="fill:none;fill-rule:evenodd;stroke:#ff0000;stroke-width:2;stroke-linecap:butt;stroke-linejoin:miter;stroke-miterlimit:4;stroke-dasharray:none;stroke-opacity:1"
     d="m 473.08965,372.67834 200,0"
     id="path4177-47"
     inkscape:connector-curvature="0" />
  <path
     style="fill:none;fill-rule:evenodd;stroke:#ff0000;stroke-width:2;stroke-linecap:butt;stroke-linejoin:miter;stroke-miterlimit:4;stroke-dasharray:none;stroke-opacity:1"
     d="m 461.65558,170.99629 0,200"
     id="path4177-47-3"
     inkscape:connector-curvature="0" />
  <path
     style="fill:none;fill-rule:evenodd;stroke:#ff0000;stroke-width:1.99999988;stroke-linecap:butt;stroke-linejoin:miter;stroke-miterlimit:4;stroke-dasharray:15.99999833, 15.99999833;stroke-dashoffset:0;stroke-opacity:1"
     d="m 473.23894,372.6905 -11.82658,-1.7749"
     id="path4177-4"
     inkscape:connector-curvature="0" />
  <path
     style="fill:none;fill-rule:evenodd;stroke:#ff0000;stroke-width:1;stroke-linecap:butt;stroke-linejoin:miter;stroke-miterlimit:4;stroke-dasharray:1,1;stroke-opacity:1;stroke-dashoffset:0"
     d="m 463.33031,382.59004 -1.78166,-11.86895"
     id="path4177-4-4"
     inkscape:connector-curvature="0" />
  <path
     style="fill:none;fill-rule:evenodd;stroke:#ff0000;stroke-width:1;stroke-linecap:butt;stroke-linejoin:miter;stroke-miterlimit:4;stroke-dasharray:1,1;stroke-opacity:1;stroke-dashoffset:0"
     d="m 463.3214,382.4352 0,99.99999"
     id="path4177-5"
     inkscape:connector-curvature="0" />
  <g
     id="g3"
     transform="matrix(-0.70710678,-0.70710678,0.70710678,-0.70710678,458.77977,387.98531)"
     style="opacity:0.7">
    <linearGradient
       id="b-bsp-grad"
       gradientUnits="userSpaceOnUse"
       x1="330.4668"
       y1="34.8228"
       x2="364.5545"
       y2="22.892099"
       gradientTransform="matrix(0.35,0,0,1,-116.2935,-14.3086)">
      <stop
         offset="0"
         style="stop-color:#FFFFFF"
         id="stop6" />
      <stop
         offset="1"
         style="stop-color:#89A4B6"
         id="stop8" />
    </linearGradient>
    <path
       style="fill:url(#b-bsp-grad);stroke:#000000;stroke-width:0.75"
       d="m 0.375,0.375 9.92,0 0,28.346001 -9.92,0 z"
       id="rect10" />
  </g>
  <g
     id="g4314"
     transform="translate(51.5383,-8.54551)">
    <g
       transform="matrix(0,1,-1,0,423.4971,490.9807)"
       id="e-pd1">
      <radialGradient
         id="e-pd1-grad"
         cx="8.8794003"
         cy="7.4608998"
         r="17.067101"
         fx="8.8794003"
         fy="7.4608998"
         gradientUnits="userSpaceOnUse">
        <stop
           offset="0"
           style="stop-color:#FEDE58"
           id="stop4294" />
        <stop
           offset="0.6854"
           style="stop-color:#BA0000"
           id="stop4296" />
      </radialGradient>
      <path
         style="fill:url(#e-pd1-grad);stroke:#000000;stroke-width:0.75"
         inkscape:connector-curvature="0"
         d="m 6.044,1.792 c -0.986,0 -1.936,0.148 -2.835,0.417 l 0,19.01 c 0.899,0.268 1.849,0.416 2.835,0.416 5.479,0 9.921,-4.441 9.921,-9.921 0,-5.48 -4.442,-9.922 -9.921,-9.922 z"
         id="path4298" />
      <path
         style="stroke:#000000;stroke-width:0.75"
         d="m 0.375,0.375 2.835,0 0,22.677999 -2.835,0 z"
         id="rect4300" />
    </g>
  </g>
  <g
     style="font-style:normal;font-variant:normal;font-weight:normal;font-stretch:normal;font-size:60px;line-height:125%;font-family:Arial;-inkscape-font-specification:Arial;letter-spacing:0px;word-spacing:0px;fill:#000000;fill-opacity:1;stroke:none"
     id="text4393-5-5-5">
    <path
       d="m 482.19136,428.51269 c 2.115,0 3.465,1.44 3.465,4.56 0,2.685 -1.245,4.14 -2.955,4.14 -1.8,0 -3.51,-1.515 -3.51,-4.395 0,-3.15 1.56,-4.305 3,-4.305 z m 5.01,4.275 c 0,-2.97 -2.115,-4.935 -4.815,-4.935 -2.685,0 -4.74,2.28 -4.74,5.22 0,2.955 2.175,4.8 4.755,4.8 2.865,0 4.8,-2.085 4.8,-5.085 z"
       style="font-style:normal;font-variant:normal;font-weight:normal;font-stretch:normal;font-size:15px;font-family:'Linux Biolinum O';-inkscape-font-specification:'Linux Biolinum O'"
       id="path3497" />
    <path
       d="m 493.44488,436.34269 0.06,0.045 0.075,1.335 c 0,0.03 0.015,0.045 0.06,0.045 0.195,-0.015 0.375,-0.045 0.585,-0.045 0.195,0 0.48,0.015 0.675,0.045 l 0.03,-0.045 c -0.12,-0.645 -0.255,-1.755 -0.255,-2.88 l 0,-0.855 c 0,-1.125 0.015,-1.905 0.135,-2.7 l -0.03,-0.045 c -0.18,0.03 -0.525,0.045 -0.705,0.045 -0.18,0 -0.525,-0.015 -0.705,-0.045 l -0.03,0.045 c 0.105,0.87 0.135,1.56 0.135,2.7 l 0,1.47 c -0.465,0.78 -1.32,1.575 -2.055,1.575 -0.525,0 -1.005,-0.165 -1.005,-1.56 l 0,-1.485 c 0,-1.125 0.015,-1.905 0.135,-2.7 l -0.03,-0.045 c -0.18,0.03 -0.525,0.045 -0.705,0.045 -0.18,0 -0.525,-0.015 -0.705,-0.045 l -0.03,0.045 c 0.12,0.855 0.135,1.56 0.135,2.7 l 0,1.8 c 0,1.035 0.48,2.085 1.965,2.085 0.93,0 1.77,-0.765 2.265,-1.53 z"
       style="font-style:normal;font-variant:normal;font-weight:normal;font-stretch:normal;font-size:15px;font-family:'Linux Biolinum O';-inkscape-font-specification:'Linux Biolinum O'"
       id="path3499" />
    <path
       d="m 497.45152,431.28769 c -0.315,0 -0.63,0 -0.81,-0.03 -0.105,0.255 -0.195,0.39 -0.33,0.615 l 0.075,0.105 c 0.255,-0.015 0.72,-0.015 1.065,-0.03 l 0,2.055 c 0,0.9 -0.045,1.98 -0.045,2.43 0,0.975 0.63,1.44 1.32,1.44 0.63,0 1.11,-0.15 1.74,-0.555 l -0.195,-0.36 c -0.45,0.15 -0.795,0.165 -1.17,0.105 -0.36,-0.045 -0.495,-0.405 -0.495,-1.23 0,-0.45 0.045,-1.095 0.045,-1.995 l 0,-1.89 0.57,0 c 0.36,0 0.87,0.015 1.08,0.03 0.045,-0.24 0.09,-0.39 0.18,-0.615 l -0.075,-0.105 c -0.27,0.015 -0.705,0.03 -1.05,0.03 l -0.705,0 c 0,-1.11 0,-1.32 0.075,-2.19 0,-0.105 -0.045,-0.15 -0.135,-0.15 -0.39,0.15 -0.57,0.315 -1.05,0.375 l -0.03,0.045 c -0.03,0.525 -0.06,1.05 -0.06,1.92 z"
       style="font-style:normal;font-variant:normal;font-weight:normal;font-stretch:normal;font-size:15px;font-family:'Linux Biolinum O';-inkscape-font-specification:'Linux Biolinum O'"
       id="path3501" />
    <path
       d="m 503.55418,433.31269 c 0.33,-0.795 1.215,-1.485 1.8,-1.485 1.02,0 1.545,0.93 1.545,2.625 0,1.23 -0.345,2.82 -1.95,2.82 -0.24,0 -0.87,-0.06 -1.395,-0.675 l 0,-3.285 z m 0,-0.87 0,-1.095 c 0,-0.105 -0.03,-0.15 -0.09,-0.15 -0.345,0.075 -0.885,0.09 -1.215,0.045 l -0.03,0.045 c 0.105,0.66 0.135,1.785 0.135,2.91 l 0,4.005 c 0,1.125 -0.03,2.205 -0.135,3 l 0.03,0.045 c 0.18,-0.03 0.525,-0.045 0.705,-0.045 0.18,0 0.525,0.015 0.705,0.045 l 0.03,-0.045 c -0.12,-0.855 -0.135,-1.86 -0.135,-3 l 0,-0.66 c 0.39,0.21 0.945,0.33 1.485,0.33 1.98,0 3.18,-1.5 3.18,-3.615 0,-1.59 -0.93,-3.12 -2.61,-3.12 -0.585,0 -1.335,0.3 -2.025,1.35 l -0.03,-0.045 z"
       style="font-style:normal;font-variant:normal;font-weight:normal;font-stretch:normal;font-size:15px;font-family:'Linux Biolinum O';-inkscape-font-specification:'Linux Biolinum O'"
       id="path3503" />
    <path
       d="m 514.45074,436.34269 0.06,0.045 0.075,1.335 c 0,0.03 0.015,0.045 0.06,0.045 0.195,-0.015 0.375,-0.045 0.585,-0.045 0.195,0 0.48,0.015 0.675,0.045 l 0.03,-0.045 c -0.12,-0.645 -0.255,-1.755 -0.255,-2.88 l 0,-0.855 c 0,-1.125 0.015,-1.905 0.135,-2.7 l -0.03,-0.045 c -0.18,0.03 -0.525,0.045 -0.705,0.045 -0.18,0 -0.525,-0.015 -0.705,-0.045 l -0.03,0.045 c 0.105,0.87 0.135,1.56 0.135,2.7 l 0,1.47 c -0.465,0.78 -1.32,1.575 -2.055,1.575 -0.525,0 -1.005,-0.165 -1.005,-1.56 l 0,-1.485 c 0,-1.125 0.015,-1.905 0.135,-2.7 l -0.03,-0.045 c -0.18,0.03 -0.525,0.045 -0.705,0.045 -0.18,0 -0.525,-0.015 -0.705,-0.045 l -0.03,0.045 c 0.12,0.855 0.135,1.56 0.135,2.7 l 0,1.8 c 0,1.035 0.48,2.085 1.965,2.085 0.93,0 1.77,-0.765 2.265,-1.53 z"
       style="font-style:normal;font-variant:normal;font-weight:normal;font-stretch:normal;font-size:15px;font-family:'Linux Biolinum O';-inkscape-font-specification:'Linux Biolinum O'"
       id="path3505" />
    <path
       d="m 518.45738,431.28769 c -0.315,0 -0.63,0 -0.81,-0.03 -0.105,0.255 -0.195,0.39 -0.33,0.615 l 0.075,0.105 c 0.255,-0.015 0.72,-0.015 1.065,-0.03 l 0,2.055 c 0,0.9 -0.045,1.98 -0.045,2.43 0,0.975 0.63,1.44 1.32,1.44 0.63,0 1.11,-0.15 1.74,-0.555 l -0.195,-0.36 c -0.45,0.15 -0.795,0.165 -1.17,0.105 -0.36,-0.045 -0.495,-0.405 -0.495,-1.23 0,-0.45 0.045,-1.095 0.045,-1.995 l 0,-1.89 0.57,0 c 0.36,0 0.87,0.015 1.08,0.03 0.045,-0.24 0.09,-0.39 0.18,-0.615 l -0.075,-0.105 c -0.27,0.015 -0.705,0.03 -1.05,0.03 l -0.705,0 c 0,-1.11 0,-1.32 0.075,-2.19 0,-0.105 -0.045,-0.15 -0.135,-0.15 -0.39,0.15 -0.57,0.315 -1.05,0.375 l -0.03,0.045 c -0.03,0.525 -0.06,1.05 -0.06,1.92 z"
       style="font-style:normal;font-variant:normal;font-weight:normal;font-stretch:normal;font-size:15px;font-family:'Linux Biolinum O';-inkscape-font-specification:'Linux Biolinum O'"
       id="path3507" />
  </g>
  <g
     style="font-style:normal;font-variant:normal;font-weight:normal;font-stretch:normal;font-size:60px;line-height:125%;font-family:Arial;-inkscape-font-specification:Arial;letter-spacing:0px;word-spacing:0px;fill:#000000;fill-opacity:1;stroke:none"
     id="text4393-5-5-5-3">
    <path
       d="m 396.68585,350.25554 0,3.675 c 0,1.125 -0.03,2.19 -0.15,3 l 0.03,0.045 c 0.18,-0.03 0.585,-0.045 0.765,-0.045 0.18,0 0.585,0.015 0.765,0.045 l 0.03,-0.045 c -0.12,-0.855 -0.15,-1.875 -0.15,-3 l 0,-3.675 c 0,-1.125 0.03,-2.205 0.15,-3 l -0.03,-0.045 c -0.18,0.03 -0.585,0.045 -0.765,0.045 -0.18,0 -0.585,-0.015 -0.765,-0.045 l -0.03,0.045 c 0.12,0.855 0.15,1.875 0.15,3 z"
       style="font-style:normal;font-variant:normal;font-weight:normal;font-stretch:normal;font-size:15px;font-family:'Linux Biolinum O';-inkscape-font-specification:'Linux Biolinum O'"
       id="path3486" />
    <path
       d="m 406.44968,354.23054 c 0,-0.48 0.03,-1.035 0.03,-1.515 0,-1.56 -0.51,-2.37 -1.86,-2.37 -0.57,0 -1.635,0.225 -2.595,1.35 l -0.03,-0.045 0,-1.095 c -0.015,-0.105 -0.03,-0.15 -0.09,-0.15 -0.345,0.075 -0.885,0.09 -1.215,0.045 l -0.03,0.045 c 0.105,0.66 0.135,1.785 0.135,2.91 l 0,0.825 c 0,1.125 -0.015,1.89 -0.135,2.7 l 0.03,0.045 c 0.18,-0.03 0.525,-0.045 0.705,-0.045 0.18,0 0.525,0.015 0.705,0.045 l 0.03,-0.045 c -0.12,-0.855 -0.135,-1.56 -0.135,-2.7 l 0,-1.755 c 0.765,-0.9 1.635,-1.23 2.175,-1.23 0.765,0 1.08,0.3 1.08,1.515 l 0,1.47 c 0,1.125 -0.03,1.905 -0.135,2.7 l 0.03,0.045 c 0.18,-0.03 0.525,-0.045 0.705,-0.045 0.18,0 0.525,0.015 0.705,0.045 l 0.03,-0.045 c -0.12,-0.855 -0.135,-1.56 -0.135,-2.7 z"
       style="font-style:normal;font-variant:normal;font-weight:normal;font-stretch:normal;font-size:15px;font-family:'Linux Biolinum O';-inkscape-font-specification:'Linux Biolinum O'"
       id="path3488" />
    <path
       d="m 410.06562,352.52054 c 0.33,-0.795 1.215,-1.485 1.8,-1.485 1.02,0 1.545,0.93 1.545,2.625 0,1.23 -0.345,2.82 -1.95,2.82 -0.24,0 -0.87,-0.06 -1.395,-0.675 l 0,-3.285 z m 0,-0.87 0,-1.095 c 0,-0.105 -0.03,-0.15 -0.09,-0.15 -0.345,0.075 -0.885,0.09 -1.215,0.045 l -0.03,0.045 c 0.105,0.66 0.135,1.785 0.135,2.91 l 0,4.005 c 0,1.125 -0.03,2.205 -0.135,3 l 0.03,0.045 c 0.18,-0.03 0.525,-0.045 0.705,-0.045 0.18,0 0.525,0.015 0.705,0.045 l 0.03,-0.045 c -0.12,-0.855 -0.135,-1.86 -0.135,-3 l 0,-0.66 c 0.39,0.21 0.945,0.33 1.485,0.33 1.98,0 3.18,-1.5 3.18,-3.615 0,-1.59 -0.93,-3.12 -2.61,-3.12 -0.585,0 -1.335,0.3 -2.025,1.35 l -0.03,-0.045 z"
       style="font-style:normal;font-variant:normal;font-weight:normal;font-stretch:normal;font-size:15px;font-family:'Linux Biolinum O';-inkscape-font-specification:'Linux Biolinum O'"
       id="path3490" />
    <path
       d="m 420.96218,355.55054 0.06,0.045 0.075,1.335 c 0,0.03 0.015,0.045 0.06,0.045 0.195,-0.015 0.375,-0.045 0.585,-0.045 0.195,0 0.48,0.015 0.675,0.045 l 0.03,-0.045 c -0.12,-0.645 -0.255,-1.755 -0.255,-2.88 l 0,-0.855 c 0,-1.125 0.015,-1.905 0.135,-2.7 l -0.03,-0.045 c -0.18,0.03 -0.525,0.045 -0.705,0.045 -0.18,0 -0.525,-0.015 -0.705,-0.045 l -0.03,0.045 c 0.105,0.87 0.135,1.56 0.135,2.7 l 0,1.47 c -0.465,0.78 -1.32,1.575 -2.055,1.575 -0.525,0 -1.005,-0.165 -1.005,-1.56 l 0,-1.485 c 0,-1.125 0.015,-1.905 0.135,-2.7 l -0.03,-0.045 c -0.18,0.03 -0.525,0.045 -0.705,0.045 -0.18,0 -0.525,-0.015 -0.705,-0.045 l -0.03,0.045 c 0.12,0.855 0.135,1.56 0.135,2.7 l 0,1.8 c 0,1.035 0.48,2.085 1.965,2.085 0.93,0 1.77,-0.765 2.265,-1.53 z"
       style="font-style:normal;font-variant:normal;font-weight:normal;font-stretch:normal;font-size:15px;font-family:'Linux Biolinum O';-inkscape-font-specification:'Linux Biolinum O'"
       id="path3492" />
    <path
       d="m 424.96882,350.49554 c -0.315,0 -0.63,0 -0.81,-0.03 -0.105,0.255 -0.195,0.39 -0.33,0.615 l 0.075,0.105 c 0.255,-0.015 0.72,-0.015 1.065,-0.03 l 0,2.055 c 0,0.9 -0.045,1.98 -0.045,2.43 0,0.975 0.63,1.44 1.32,1.44 0.63,0 1.11,-0.15 1.74,-0.555 l -0.195,-0.36 c -0.45,0.15 -0.795,0.165 -1.17,0.105 -0.36,-0.045 -0.495,-0.405 -0.495,-1.23 0,-0.45 0.045,-1.095 0.045,-1.995 l 0,-1.89 0.57,0 c 0.36,0 0.87,0.015 1.08,0.03 0.045,-0.24 0.09,-0.39 0.18,-0.615 l -0.075,-0.105 c -0.27,0.015 -0.705,0.03 -1.05,0.03 l -0.705,0 c 0,-1.11 0,-1.32 0.075,-2.19 0,-0.105 -0.045,-0.15 -0.135,-0.15 -0.39,0.15 -0.57,0.315 -1.05,0.375 l -0.03,0.045 c -0.03,0.525 -0.06,1.05 -0.06,1.92 z"
       style="font-style:normal;font-variant:normal;font-weight:normal;font-stretch:normal;font-size:15px;font-family:'Linux Biolinum O';-inkscape-font-specification:'Linux Biolinum O'"
       id="path3494" />
  </g>
  <g
     style="font-style:normal;font-variant:normal;font-weight:normal;font-stretch:normal;font-size:60px;line-height:125%;font-family:Arial;-inkscape-font-specification:Arial;letter-spacing:0px;word-spacing:0px;fill:#000000;fill-opacity:1;stroke:none"
     id="text4393-5-5-5-3-7">
    <path
       d="m 331.83253,333.94304 c 0,-1.125 0.03,-2.205 0.15,-3 l -0.015,-0.045 c -0.18,0.03 -0.6,0.045 -0.78,0.045 -0.18,0 -0.585,-0.015 -0.765,-0.045 l -0.03,0.045 c 0.12,0.855 0.15,1.875 0.15,3 l 0,3.675 c 0,1.125 -0.03,2.19 -0.15,3 l 0.015,0.045 c 0,0 0.27,-0.045 0.78,-0.045 l 4.095,0 c 0.315,0 0.66,0.015 0.9,0.045 l 0.03,-0.045 c -0.015,-0.21 -0.03,-0.51 -0.03,-0.66 0,-0.15 0.015,-0.405 0.03,-0.525 l -0.03,-0.06 c 0,0 -2.22,0.33 -4.23,0.33 -0.105,-0.36 -0.12,-1.83 -0.12,-2.085 l 0,-3.675 z"
       style="font-style:normal;font-variant:normal;font-weight:normal;font-stretch:normal;font-size:15px;font-family:'Linux Biolinum O';-inkscape-font-specification:'Linux Biolinum O'"
       id="path3475" />
    <path
       d="m 341.3519,337.24304 -0.06,1.785 c 0,0.195 -0.09,0.3 -0.21,0.39 -0.42,0.315 -0.93,0.585 -1.38,0.585 -0.675,0 -1.11,-0.45 -1.11,-0.915 0,-0.675 0.315,-1.185 1.485,-1.5 l 1.275,-0.345 z m 0,2.655 c 0.165,0.6 0.615,0.87 1.17,0.87 0.375,0 0.84,-0.09 1.185,-0.465 l -0.105,-0.36 c -0.165,0.06 -0.3,0.075 -0.405,0.075 -0.15,0 -0.345,-0.03 -0.45,-0.12 -0.15,-0.135 -0.24,-0.495 -0.24,-1.17 0,-0.435 0.045,-2.1 0.045,-2.265 0,-2.025 -1.335,-2.43 -2.475,-2.43 -1.14,0 -1.83,0.555 -2.205,0.87 l -0.045,0.06 0.255,1.005 0.195,0.015 c 0.42,-0.675 0.93,-1.275 1.65,-1.275 0.54,0 1.44,0.075 1.44,1.77 0,0.105 -0.06,0.165 -0.105,0.18 l -1.395,0.315 c -1.53,0.345 -2.49,1.155 -2.49,2.175 0,1.11 0.765,1.62 1.875,1.62 0.825,0 1.245,-0.195 2.04,-0.87 l 0.06,0 z"
       style="font-style:normal;font-variant:normal;font-weight:normal;font-stretch:normal;font-size:15px;font-family:'Linux Biolinum O';-inkscape-font-specification:'Linux Biolinum O'"
       id="path3477" />
    <path
       d="m 344.65894,339.10304 -0.255,1.26 c 0.855,0.3 1.695,0.405 2.265,0.405 2.07,0 2.55,-1.23 2.55,-2.055 0,-1.23 -0.975,-1.71 -2.04,-1.965 -0.57,-0.135 -1.395,-0.42 -1.395,-1.17 0,-0.615 0.495,-0.945 1.14,-0.945 0.78,0 1.26,0.615 1.605,1.02 l 0.21,-0.015 0.3,-1.11 -0.03,-0.045 c -0.435,-0.225 -1.26,-0.45 -2.025,-0.45 -1.11,0 -2.265,0.585 -2.265,1.83 0,1.2 0.885,1.605 1.8,1.845 0.87,0.24 1.515,0.48 1.515,1.215 0,0.795 -0.585,1.245 -1.38,1.245 -0.72,0 -1.35,-0.495 -1.77,-1.08 l -0.225,0.015 z"
       style="font-style:normal;font-variant:normal;font-weight:normal;font-stretch:normal;font-size:15px;font-family:'Linux Biolinum O';-inkscape-font-specification:'Linux Biolinum O'"
       id="path3479" />
    <path
       d="m 351.7312,336.52304 c 0.255,-1.56 1.23,-1.89 1.71,-1.89 0.585,0 1.26,0.555 1.26,1.68 0,0.135 -0.06,0.21 -0.21,0.21 l -2.76,0 z m 4.005,2.535 c -0.525,0.57 -1.23,0.825 -2.055,0.825 -0.525,0 -1.23,-0.195 -1.635,-0.855 -0.27,-0.42 -0.36,-1.02 -0.36,-1.905 l 4.08,0 c 0.165,0 0.27,-0.09 0.27,-0.255 0,-1.26 -0.615,-2.835 -2.595,-2.835 -1.545,0 -3.075,1.245 -3.075,3.45 0,0.855 0.165,1.695 0.675,2.295 0.51,0.63 1.365,0.99 2.385,0.99 1.08,0 2.04,-0.555 2.61,-1.335 l -0.3,-0.375 z"
       style="font-style:normal;font-variant:normal;font-weight:normal;font-stretch:normal;font-size:15px;font-family:'Linux Biolinum O';-inkscape-font-specification:'Linux Biolinum O'"
       id="path3481" />
    <path
       d="m 359.15808,335.60804 0,-1.365 c 0,-0.105 -0.03,-0.15 -0.09,-0.15 -0.345,0.075 -0.885,0.09 -1.215,0.045 l -0.03,0.045 c 0.105,0.66 0.135,1.785 0.135,2.91 l 0,0.825 c 0,1.125 -0.03,1.905 -0.135,2.7 l 0.03,0.045 c 0.18,-0.03 0.525,-0.045 0.705,-0.045 0.18,0 0.525,0.015 0.705,0.045 l 0.03,-0.045 c -0.12,-0.855 -0.135,-1.56 -0.135,-2.7 l 0,-0.78 c 0,-0.63 0.18,-0.99 0.51,-1.485 0.21,-0.33 0.555,-0.525 0.84,-0.525 0.3,0 0.585,0.03 0.78,0.21 l 0.12,-0.03 0.3,-1.11 -0.06,-0.06 c -0.255,-0.075 -0.27,-0.105 -0.54,-0.105 -0.81,0 -1.245,0.465 -1.905,1.605 l -0.045,-0.03 z"
       style="font-style:normal;font-variant:normal;font-weight:normal;font-stretch:normal;font-size:15px;font-family:'Linux Biolinum O';-inkscape-font-specification:'Linux Biolinum O'"
       id="path3483" />
  </g>
  <g
     style="font-style:normal;font-variant:normal;font-weight:normal;font-stretch:normal;font-size:60px;line-height:125%;font-family:Arial;-inkscape-font-specification:Arial;letter-spacing:0px;word-spacing:0px;fill:#000000;fill-opacity:1;stroke:none"
     id="text4393-5-5-5-3-3">
    <path
       d="m 495.64883,315.72553 c 0,-0.495 0.15,-0.69 1.365,-0.69 0.84,0 1.905,0.33 1.905,1.86 0,1.275 -0.855,1.65 -2.1,1.65 l -1.17,0 0,-2.82 z m 0,3.465 1.395,0 c 1.755,0 2.58,1.095 2.58,2.445 0,1.05 -0.36,1.875 -2.52,1.875 -1.05,0 -1.455,-0.225 -1.455,-0.72 l 0,-3.6 z m -0.645,-4.755 c -0.51,0 -0.765,-0.045 -0.765,-0.045 l -0.03,0.045 c 0.12,0.855 0.15,1.875 0.15,3 l 0,3.675 c 0,1.125 -0.03,2.19 -0.15,3 l 0.015,0.045 c 0,0 0.255,-0.045 0.78,-0.045 0.93,0 1.05,0.045 2.385,0.045 2.985,0 3.72,-1.515 3.72,-2.805 0,-1.44 -0.975,-2.265 -2.28,-2.64 0.765,-0.375 1.395,-1.17 1.395,-1.995 0,-1.005 -0.525,-2.325 -3.315,-2.325 -0.525,0 -1.155,0.045 -1.905,0.045 z"
       style="font-style:normal;font-variant:normal;font-weight:normal;font-stretch:normal;font-size:15px;font-family:'Linux Biolinum O';-inkscape-font-specification:'Linux Biolinum O';text-align:center;text-anchor:middle"
       id="path3452" />
    <path
       d="m 503.90234,320.01553 c 0.255,-1.56 1.23,-1.89 1.71,-1.89 0.585,0 1.26,0.555 1.26,1.68 0,0.135 -0.06,0.21 -0.21,0.21 l -2.76,0 z m 4.005,2.535 c -0.525,0.57 -1.23,0.825 -2.055,0.825 -0.525,0 -1.23,-0.195 -1.635,-0.855 -0.27,-0.42 -0.36,-1.02 -0.36,-1.905 l 4.08,0 c 0.165,0 0.27,-0.09 0.27,-0.255 0,-1.26 -0.615,-2.835 -2.595,-2.835 -1.545,0 -3.075,1.245 -3.075,3.45 0,0.855 0.165,1.695 0.675,2.295 0.51,0.63 1.365,0.99 2.385,0.99 1.08,0 2.04,-0.555 2.61,-1.335 l -0.3,-0.375 z"
       style="font-style:normal;font-variant:normal;font-weight:normal;font-stretch:normal;font-size:15px;font-family:'Linux Biolinum O';-inkscape-font-specification:'Linux Biolinum O';text-align:center;text-anchor:middle"
       id="path3454" />
    <path
       d="m 513.47422,320.73553 -0.06,1.785 c 0,0.195 -0.09,0.3 -0.21,0.39 -0.42,0.315 -0.93,0.585 -1.38,0.585 -0.675,0 -1.11,-0.45 -1.11,-0.915 0,-0.675 0.315,-1.185 1.485,-1.5 l 1.275,-0.345 z m 0,2.655 c 0.165,0.6 0.615,0.87 1.17,0.87 0.375,0 0.84,-0.09 1.185,-0.465 l -0.105,-0.36 c -0.165,0.06 -0.3,0.075 -0.405,0.075 -0.15,0 -0.345,-0.03 -0.45,-0.12 -0.15,-0.135 -0.24,-0.495 -0.24,-1.17 0,-0.435 0.045,-2.1 0.045,-2.265 0,-2.025 -1.335,-2.43 -2.475,-2.43 -1.14,0 -1.83,0.555 -2.205,0.87 l -0.045,0.06 0.255,1.005 0.195,0.015 c 0.42,-0.675 0.93,-1.275 1.65,-1.275 0.54,0 1.44,0.075 1.44,1.77 0,0.105 -0.06,0.165 -0.105,0.18 l -1.395,0.315 c -1.53,0.345 -2.49,1.155 -2.49,2.175 0,1.11 0.765,1.62 1.875,1.62 0.825,0 1.245,-0.195 2.04,-0.87 l 0.06,0 z"
       style="font-style:normal;font-variant:normal;font-weight:normal;font-stretch:normal;font-size:15px;font-family:'Linux Biolinum O';-inkscape-font-specification:'Linux Biolinum O';text-align:center;text-anchor:middle"
       id="path3456" />
    <path
       d="m 518.46125,318.83053 0,-1.095 c 0,-0.105 -0.03,-0.15 -0.09,-0.15 -0.345,0.075 -0.885,0.09 -1.215,0.045 l -0.03,0.045 c 0.105,0.66 0.135,1.785 0.135,2.91 l 0,0.825 c 0,1.125 -0.015,1.89 -0.135,2.7 l 0.03,0.045 c 0.18,-0.03 0.525,-0.045 0.705,-0.045 0.18,0 0.525,0.015 0.705,0.045 l 0.03,-0.045 c -0.12,-0.855 -0.135,-1.56 -0.135,-2.7 l 0,-1.815 c 0.705,-0.72 1.545,-1.17 2.07,-1.17 0.57,0 0.99,0.33 0.99,1.335 l 0,1.65 c 0,1.125 -0.015,1.89 -0.135,2.7 l 0.03,0.045 c 0.18,-0.03 0.525,-0.045 0.705,-0.045 0.18,0 0.525,0.015 0.705,0.045 l 0.03,-0.045 c -0.12,-0.855 -0.135,-1.56 -0.135,-2.7 l 0,-1.515 c 0,-0.21 0,-0.39 -0.015,-0.57 0.72,-0.795 1.32,-0.9 1.905,-0.9 0.81,0 1.2,0.33 1.2,1.335 l 0,1.65 c 0,1.125 -0.015,1.89 -0.135,2.7 l 0.03,0.045 c 0.18,-0.03 0.525,-0.045 0.705,-0.045 0.18,0 0.525,0.015 0.705,0.045 l 0.03,-0.045 c -0.12,-0.855 -0.135,-1.56 -0.135,-2.7 l 0,-1.5 c 0,-1.335 -0.24,-2.385 -1.86,-2.385 -0.81,0 -1.68,0.285 -2.535,1.185 -0.135,-0.72 -0.75,-1.185 -1.59,-1.185 -0.93,0 -1.815,0.6 -2.52,1.35 l -0.045,-0.045 z"
       style="font-style:normal;font-variant:normal;font-weight:normal;font-stretch:normal;font-size:15px;font-family:'Linux Biolinum O';-inkscape-font-specification:'Linux Biolinum O';text-align:center;text-anchor:middle"
       id="path3458" />
    <path
       d="m 489.90137,341.34553 -0.255,1.26 c 0.855,0.3 1.695,0.405 2.265,0.405 2.07,0 2.55,-1.23 2.55,-2.055 0,-1.23 -0.975,-1.71 -2.04,-1.965 -0.57,-0.135 -1.395,-0.42 -1.395,-1.17 0,-0.615 0.495,-0.945 1.14,-0.945 0.78,0 1.26,0.615 1.605,1.02 l 0.21,-0.015 0.3,-1.11 -0.03,-0.045 c -0.435,-0.225 -1.26,-0.45 -2.025,-0.45 -1.11,0 -2.265,0.585 -2.265,1.83 0,1.2 0.885,1.605 1.8,1.845 0.87,0.24 1.515,0.48 1.515,1.215 0,0.795 -0.585,1.245 -1.38,1.245 -0.72,0 -1.35,-0.495 -1.77,-1.08 l -0.225,0.015 z"
       style="font-style:normal;font-variant:normal;font-weight:normal;font-stretch:normal;font-size:15px;font-family:'Linux Biolinum O';-inkscape-font-specification:'Linux Biolinum O';text-align:center;text-anchor:middle"
       id="path3460" />
    <path
       d="m 497.52863,338.45053 c 0.33,-0.795 1.215,-1.485 1.8,-1.485 1.02,0 1.545,0.93 1.545,2.625 0,1.23 -0.345,2.82 -1.95,2.82 -0.24,0 -0.87,-0.06 -1.395,-0.675 l 0,-3.285 z m 0,-0.87 0,-1.095 c 0,-0.105 -0.03,-0.15 -0.09,-0.15 -0.345,0.075 -0.885,0.09 -1.215,0.045 l -0.03,0.045 c 0.105,0.66 0.135,1.785 0.135,2.91 l 0,4.005 c 0,1.125 -0.03,2.205 -0.135,3 l 0.03,0.045 c 0.18,-0.03 0.525,-0.045 0.705,-0.045 0.18,0 0.525,0.015 0.705,0.045 l 0.03,-0.045 c -0.12,-0.855 -0.135,-1.86 -0.135,-3 l 0,-0.66 c 0.39,0.21 0.945,0.33 1.485,0.33 1.98,0 3.18,-1.5 3.18,-3.615 0,-1.59 -0.93,-3.12 -2.61,-3.12 -0.585,0 -1.335,0.3 -2.025,1.35 l -0.03,-0.045 z"
       style="font-style:normal;font-variant:normal;font-weight:normal;font-stretch:normal;font-size:15px;font-family:'Linux Biolinum O';-inkscape-font-specification:'Linux Biolinum O';text-align:center;text-anchor:middle"
       id="path3462" />
    <path
       d="m 504.3002,339.86053 c 0,1.125 -0.03,2.205 -0.135,3 l 0.03,0.045 c 0.18,-0.03 0.525,-0.045 0.705,-0.045 0.18,0 0.525,0.015 0.705,0.045 l 0.03,-0.045 c -0.12,-0.855 -0.135,-1.86 -0.135,-3 l 0,-4.5 c 0,-1.125 0.06,-1.86 0.135,-2.82 0,-0.105 -0.045,-0.15 -0.135,-0.15 -0.39,0.15 -0.705,0.255 -1.305,0.3 l -0.03,0.045 c 0.105,0.645 0.135,1.755 0.135,2.895 l 0,4.23 z"
       style="font-style:normal;font-variant:normal;font-weight:normal;font-stretch:normal;font-size:15px;font-family:'Linux Biolinum O';-inkscape-font-specification:'Linux Biolinum O';text-align:center;text-anchor:middle"
       id="path3464" />
    <path
       d="m 507.92949,333.90553 c 0,0.405 0.36,0.765 0.765,0.765 0.405,0 0.765,-0.36 0.765,-0.765 0,-0.405 -0.36,-0.765 -0.765,-0.765 -0.405,0 -0.765,0.36 -0.765,0.765 z m 0.15,5.43 0,0.825 c 0,1.125 -0.03,1.89 -0.135,2.7 l 0.03,0.045 c 0.18,-0.03 0.525,-0.045 0.705,-0.045 0.18,0 0.525,0.015 0.705,0.045 l 0.03,-0.045 c -0.12,-0.84 -0.135,-1.56 -0.135,-2.7 l 0,-1.065 c 0,-1.125 0.03,-1.665 0.135,-2.58 0,-0.135 -0.03,-0.15 -0.135,-0.15 -0.345,0.045 -0.99,0.045 -1.305,0.015 l -0.03,0.045 c 0.09,0.645 0.135,1.785 0.135,2.91 z"
       style="font-style:normal;font-variant:normal;font-weight:normal;font-stretch:normal;font-size:15px;font-family:'Linux Biolinum O';-inkscape-font-specification:'Linux Biolinum O';text-align:center;text-anchor:middle"
       id="path3466" />
    <path
       d="m 516.43098,337.08553 0,2.055 c 0,0.9 -0.045,1.98 -0.045,2.43 0,0.975 0.63,1.44 1.32,1.44 0.63,0 1.11,-0.15 1.74,-0.555 l -0.195,-0.36 c -0.45,0.15 -0.795,0.165 -1.17,0.105 -0.36,-0.045 -0.495,-0.405 -0.495,-1.23 0,-0.45 0.045,-1.095 0.045,-1.995 l 0,-1.89 0.57,0 c 0.36,0 0.87,0.015 1.08,0.03 0.045,-0.24 0.09,-0.39 0.18,-0.615 l -0.075,-0.105 c -0.21,0.015 -0.705,0.03 -1.05,0.03 l -0.705,0 c 0,-1.11 0,-1.32 0.075,-2.19 0,-0.105 -0.045,-0.15 -0.135,-0.15 -0.39,0.15 -0.57,0.315 -1.05,0.375 l -0.03,0.045 c 0,0.585 -0.06,1.05 -0.06,1.92 l -3.18,0 c 0,-1.11 0,-1.32 0.075,-2.19 0,-0.105 -0.045,-0.15 -0.135,-0.15 -0.39,0.15 -0.57,0.315 -1.05,0.375 l -0.03,0.045 c 0,0.585 -0.06,1.05 -0.06,1.92 -0.315,0 -0.63,0 -0.81,-0.03 -0.105,0.255 -0.195,0.39 -0.33,0.615 l 0.075,0.105 c 0.255,-0.015 0.72,-0.015 1.065,-0.03 l 0,2.31 c 0,0.9 -0.045,1.98 -0.045,2.43 0,0.705 0.48,1.185 1.17,1.185 0.63,0 1.155,-0.21 1.74,-0.75 l -0.195,-0.405 c -0.39,0.225 -0.63,0.255 -1.02,0.255 -0.405,0 -0.495,-0.315 -0.495,-0.93 0,-0.45 0.045,-1.05 0.045,-1.95 l 0,-2.145 3.18,0 z"
       style="font-style:normal;font-variant:normal;font-weight:normal;font-stretch:normal;font-size:15px;font-family:'Linux Biolinum O';-inkscape-font-specification:'Linux Biolinum O';text-align:center;text-anchor:middle"
       id="path3468" />
    <path
       d="m 521.52441,338.76553 c 0.255,-1.56 1.23,-1.89 1.71,-1.89 0.585,0 1.26,0.555 1.26,1.68 0,0.135 -0.06,0.21 -0.21,0.21 l -2.76,0 z m 4.005,2.535 c -0.525,0.57 -1.23,0.825 -2.055,0.825 -0.525,0 -1.23,-0.195 -1.635,-0.855 -0.27,-0.42 -0.36,-1.02 -0.36,-1.905 l 4.08,0 c 0.165,0 0.27,-0.09 0.27,-0.255 0,-1.26 -0.615,-2.835 -2.595,-2.835 -1.545,0 -3.075,1.245 -3.075,3.45 0,0.855 0.165,1.695 0.675,2.295 0.51,0.63 1.365,0.99 2.385,0.99 1.08,0 2.04,-0.555 2.61,-1.335 l -0.3,-0.375 z"
       style="font-style:normal;font-variant:normal;font-weight:normal;font-stretch:normal;font-size:15px;font-family:'Linux Biolinum O';-inkscape-font-specification:'Linux Biolinum O';text-align:center;text-anchor:middle"
       id="path3470" />
    <path
       d="m 528.95129,337.85053 0,-1.365 c 0,-0.105 -0.03,-0.15 -0.09,-0.15 -0.345,0.075 -0.885,0.09 -1.215,0.045 l -0.03,0.045 c 0.105,0.66 0.135,1.785 0.135,2.91 l 0,0.825 c 0,1.125 -0.03,1.905 -0.135,2.7 l 0.03,0.045 c 0.18,-0.03 0.525,-0.045 0.705,-0.045 0.18,0 0.525,0.015 0.705,0.045 l 0.03,-0.045 c -0.12,-0.855 -0.135,-1.56 -0.135,-2.7 l 0,-0.78 c 0,-0.63 0.18,-0.99 0.51,-1.485 0.21,-0.33 0.555,-0.525 0.84,-0.525 0.3,0 0.585,0.03 0.78,0.21 l 0.12,-0.03 0.3,-1.11 -0.06,-0.06 c -0.255,-0.075 -0.27,-0.105 -0.54,-0.105 -0.81,0 -1.245,0.465 -1.905,1.605 l -0.045,-0.03 z"
       style="font-style:normal;font-variant:normal;font-weight:normal;font-stretch:normal;font-size:15px;font-family:'Linux Biolinum O';-inkscape-font-specification:'Linux Biolinum O';text-align:center;text-anchor:middle"
       id="path3472" />
  </g>
  <g
     style="font-style:normal;font-variant:normal;font-weight:normal;font-stretch:normal;font-size:60px;line-height:125%;font-family:Arial;-inkscape-font-specification:Arial;letter-spacing:0px;word-spacing:0px;fill:#000000;fill-opacity:1;stroke:none"
     id="text4393-5-5-5-36">
    <path
       d="m 491.08636,487.2902 c 0,-0.435 0.27,-0.66 1.35,-0.66 1.035,0 2.13,0.285 2.13,2.07 0,1.725 -0.84,2.28 -2.295,2.28 -0.375,0 -0.99,-0.045 -1.185,-0.15 l 0,-3.54 z m -1.29,1.8 0,3.675 c 0,1.125 -0.03,2.19 -0.15,3 l 0.03,0.045 c 0.18,-0.03 0.585,-0.045 0.765,-0.045 0.18,0 0.585,0.015 0.765,0.045 l 0.03,-0.045 c -0.12,-0.855 -0.15,-1.875 -0.15,-3 l 0,-1.29 c 0.33,0.105 0.735,0.15 1.26,0.15 2.73,0 3.675,-1.725 3.675,-3 0,-1.11 -0.705,-2.64 -3.48,-2.64 -0.39,0 -1.65,0.105 -2.1,0.105 -0.18,0 -0.585,-0.015 -0.765,-0.045 l -0.03,0.045 c 0.12,0.855 0.15,1.875 0.15,3 z"
       style="font-style:normal;font-variant:normal;font-weight:normal;font-stretch:normal;font-size:15px;font-family:'Linux Biolinum O';-inkscape-font-specification:'Linux Biolinum O'"
       id="path3425" />
    <path
       d="m 499.34105,490.4852 0,-2.235 c 0,-1.11 0.06,-1.875 0.135,-2.805 0,-0.105 -0.045,-0.15 -0.135,-0.15 -0.39,0.15 -0.705,0.255 -1.305,0.3 l -0.03,0.045 c 0.105,0.645 0.135,1.77 0.135,2.91 l 0,4.515 c 0,1.125 -0.03,1.86 -0.135,2.7 l 0.03,0.045 c 0.18,-0.03 0.525,-0.045 0.705,-0.045 0.18,0 0.525,0.015 0.705,0.045 l 0.03,-0.045 c -0.12,-0.855 -0.135,-1.56 -0.135,-2.7 l 0,-1.755 c 0.765,-0.9 1.635,-1.23 2.175,-1.23 0.765,0 1.08,0.3 1.08,1.515 l 0,1.47 c 0,1.125 -0.015,1.905 -0.135,2.7 l 0.03,0.045 c 0.18,-0.03 0.525,-0.045 0.705,-0.045 0.18,0 0.525,0.015 0.705,0.045 l 0.03,-0.045 c -0.12,-0.855 -0.135,-1.56 -0.135,-2.7 0,-0.48 0.03,-1.035 0.03,-1.515 0,-1.56 -0.51,-2.37 -1.86,-2.37 -0.57,0 -1.635,0.225 -2.595,1.35 l -0.03,-0.045 z"
       style="font-style:normal;font-variant:normal;font-weight:normal;font-stretch:normal;font-size:15px;font-family:'Linux Biolinum O';-inkscape-font-specification:'Linux Biolinum O'"
       id="path3427" />
    <path
       d="m 505.59347,492.6902 c 0,1.8 1.185,3.225 3.18,3.225 1.98,0 3.18,-1.395 3.18,-3.36 0,-2.04 -1.095,-3.375 -3.12,-3.375 -1.965,0 -3.24,1.38 -3.24,3.51 z m 3.135,-2.91 c 1.59,0 1.905,1.23 1.905,3.045 0,1.44 -0.72,2.49 -1.725,2.49 -1.59,0 -1.995,-1.725 -1.995,-2.88 0,-1.305 0.405,-2.655 1.815,-2.655 z"
       style="font-style:normal;font-variant:normal;font-weight:normal;font-stretch:normal;font-size:15px;font-family:'Linux Biolinum O';-inkscape-font-specification:'Linux Biolinum O'"
       id="path3429" />
    <path
       d="m 513.94847,489.3302 c -0.315,0 -0.63,0 -0.81,-0.03 -0.105,0.255 -0.195,0.39 -0.33,0.615 l 0.075,0.105 c 0.255,-0.015 0.72,-0.015 1.065,-0.03 l 0,2.055 c 0,0.9 -0.045,1.98 -0.045,2.43 0,0.975 0.63,1.44 1.32,1.44 0.63,0 1.11,-0.15 1.74,-0.555 l -0.195,-0.36 c -0.45,0.15 -0.795,0.165 -1.17,0.105 -0.36,-0.045 -0.495,-0.405 -0.495,-1.23 0,-0.45 0.045,-1.095 0.045,-1.995 l 0,-1.89 0.57,0 c 0.36,0 0.87,0.015 1.08,0.03 0.045,-0.24 0.09,-0.39 0.18,-0.615 l -0.075,-0.105 c -0.27,0.015 -0.705,0.03 -1.05,0.03 l -0.705,0 c 0,-1.11 0,-1.32 0.075,-2.19 0,-0.105 -0.045,-0.15 -0.135,-0.15 -0.39,0.15 -0.57,0.315 -1.05,0.375 l -0.03,0.045 c -0.03,0.525 -0.06,1.05 -0.06,1.92 z"
       style="font-style:normal;font-variant:normal;font-weight:normal;font-stretch:normal;font-size:15px;font-family:'Linux Biolinum O';-inkscape-font-specification:'Linux Biolinum O'"
       id="path3431" />
    <path
       d="m 518.19112,492.6902 c 0,1.8 1.185,3.225 3.18,3.225 1.98,0 3.18,-1.395 3.18,-3.36 0,-2.04 -1.095,-3.375 -3.12,-3.375 -1.965,0 -3.24,1.38 -3.24,3.51 z m 3.135,-2.91 c 1.59,0 1.905,1.23 1.905,3.045 0,1.44 -0.72,2.49 -1.725,2.49 -1.59,0 -1.995,-1.725 -1.995,-2.88 0,-1.305 0.405,-2.655 1.815,-2.655 z"
       style="font-style:normal;font-variant:normal;font-weight:normal;font-stretch:normal;font-size:15px;font-family:'Linux Biolinum O';-inkscape-font-specification:'Linux Biolinum O'"
       id="path3433" />
    <path
       d="m 530.65331,494.0702 c -0.555,0.705 -1.245,1.065 -1.845,1.065 -0.81,0 -1.5,-0.81 -1.5,-2.685 0,-2.25 1.185,-2.67 1.92,-2.67 0.705,0 1.065,0.3 1.425,0.87 l 0,3.42 z m 0,0.825 0.03,0 0.075,0.87 c 0,0.03 0.045,0.045 0.135,0.045 0.195,-0.015 0.3,-0.045 0.51,-0.045 0.195,0 0.48,0.015 0.675,0.045 l 0.03,-0.045 c -0.12,-0.645 -0.255,-1.755 -0.255,-2.88 l 0,-4.62 c 0,-1.11 0.06,-1.89 0.135,-2.82 0,-0.105 -0.045,-0.15 -0.135,-0.15 -0.39,0.15 -0.705,0.255 -1.305,0.3 l -0.03,0.045 c 0.105,0.645 0.135,1.755 0.135,2.895 l 0,0.975 c -0.345,-0.195 -0.96,-0.33 -1.26,-0.33 -1.965,0 -3.39,1.35 -3.39,3.39 0,1.845 1.095,3.345 2.715,3.345 0.72,0 1.395,-0.315 1.935,-1.02 z"
       style="font-style:normal;font-variant:normal;font-weight:normal;font-stretch:normal;font-size:15px;font-family:'Linux Biolinum O';-inkscape-font-specification:'Linux Biolinum O'"
       id="path3435" />
    <path
       d="m 535.05276,491.6702 c 0.255,-1.56 1.23,-1.89 1.71,-1.89 0.585,0 1.26,0.555 1.26,1.68 0,0.135 -0.06,0.21 -0.21,0.21 l -2.76,0 z m 4.005,2.535 c -0.525,0.57 -1.23,0.825 -2.055,0.825 -0.525,0 -1.23,-0.195 -1.635,-0.855 -0.27,-0.42 -0.36,-1.02 -0.36,-1.905 l 4.08,0 c 0.165,0 0.27,-0.09 0.27,-0.255 0,-1.26 -0.615,-2.835 -2.595,-2.835 -1.545,0 -3.075,1.245 -3.075,3.45 0,0.855 0.165,1.695 0.675,2.295 0.51,0.63 1.365,0.99 2.385,0.99 1.08,0 2.04,-0.555 2.61,-1.335 l -0.3,-0.375 z"
       style="font-style:normal;font-variant:normal;font-weight:normal;font-stretch:normal;font-size:15px;font-family:'Linux Biolinum O';-inkscape-font-specification:'Linux Biolinum O'"
       id="path3437" />
    <path
       d="m 541.39964,489.3302 c -0.315,0 -0.63,0 -0.81,-0.03 -0.105,0.255 -0.195,0.39 -0.33,0.615 l 0.075,0.105 c 0.255,-0.015 0.72,-0.015 1.065,-0.03 l 0,2.055 c 0,0.9 -0.045,1.98 -0.045,2.43 0,0.975 0.63,1.44 1.32,1.44 0.63,0 1.11,-0.15 1.74,-0.555 l -0.195,-0.36 c -0.45,0.15 -0.795,0.165 -1.17,0.105 -0.36,-0.045 -0.495,-0.405 -0.495,-1.23 0,-0.45 0.045,-1.095 0.045,-1.995 l 0,-1.89 0.57,0 c 0.36,0 0.87,0.015 1.08,0.03 0.045,-0.24 0.09,-0.39 0.18,-0.615 l -0.075,-0.105 c -0.27,0.015 -0.705,0.03 -1.05,0.03 l -0.705,0 c 0,-1.11 0,-1.32 0.075,-2.19 0,-0.105 -0.045,-0.15 -0.135,-0.15 -0.39,0.15 -0.57,0.315 -1.05,0.375 l -0.03,0.045 c -0.03,0.525 -0.06,1.05 -0.06,1.92 z"
       style="font-style:normal;font-variant:normal;font-weight:normal;font-stretch:normal;font-size:15px;font-family:'Linux Biolinum O';-inkscape-font-specification:'Linux Biolinum O'"
       id="path3439" />
    <path
       d="m 546.9473,491.6702 c 0.255,-1.56 1.23,-1.89 1.71,-1.89 0.585,0 1.26,0.555 1.26,1.68 0,0.135 -0.06,0.21 -0.21,0.21 l -2.76,0 z m 4.005,2.535 c -0.525,0.57 -1.23,0.825 -2.055,0.825 -0.525,0 -1.23,-0.195 -1.635,-0.855 -0.27,-0.42 -0.36,-1.02 -0.36,-1.905 l 4.08,0 c 0.165,0 0.27,-0.09 0.27,-0.255 0,-1.26 -0.615,-2.835 -2.595,-2.835 -1.545,0 -3.075,1.245 -3.075,3.45 0,0.855 0.165,1.695 0.675,2.295 0.51,0.63 1.365,0.99 2.385,0.99 1.08,0 2.04,-0.555 2.61,-1.335 l -0.3,-0.375 z"
       style="font-style:normal;font-variant:normal;font-weight:normal;font-stretch:normal;font-size:15px;font-family:'Linux Biolinum O';-inkscape-font-specification:'Linux Biolinum O'"
       id="path3441" />
    <path
       d="m 555.73636,489.7802 c 0.57,0 1.095,0.435 1.5,1.11 l 0.195,-0.015 0.345,-1.23 -0.03,-0.045 c -0.465,-0.24 -1.245,-0.42 -1.995,-0.42 -1.56,0 -3.195,1.275 -3.195,3.315 0,2.1 1.185,3.42 3.015,3.42 0.9,0 1.605,-0.3 2.205,-1.065 l -0.285,-0.315 -0.06,0 c -0.57,0.51 -1.05,0.63 -1.605,0.63 -1.095,0 -1.95,-0.99 -1.95,-2.745 0,-1.65 0.87,-2.64 1.86,-2.64 z"
       style="font-style:normal;font-variant:normal;font-weight:normal;font-stretch:normal;font-size:15px;font-family:'Linux Biolinum O';-inkscape-font-specification:'Linux Biolinum O'"
       id="path3443" />
    <path
       d="m 559.85667,489.3302 c -0.315,0 -0.63,0 -0.81,-0.03 -0.105,0.255 -0.195,0.39 -0.33,0.615 l 0.075,0.105 c 0.255,-0.015 0.72,-0.015 1.065,-0.03 l 0,2.055 c 0,0.9 -0.045,1.98 -0.045,2.43 0,0.975 0.63,1.44 1.32,1.44 0.63,0 1.11,-0.15 1.74,-0.555 l -0.195,-0.36 c -0.45,0.15 -0.795,0.165 -1.17,0.105 -0.36,-0.045 -0.495,-0.405 -0.495,-1.23 0,-0.45 0.045,-1.095 0.045,-1.995 l 0,-1.89 0.57,0 c 0.36,0 0.87,0.015 1.08,0.03 0.045,-0.24 0.09,-0.39 0.18,-0.615 l -0.075,-0.105 c -0.27,0.015 -0.705,0.03 -1.05,0.03 l -0.705,0 c 0,-1.11 0,-1.32 0.075,-2.19 0,-0.105 -0.045,-0.15 -0.135,-0.15 -0.39,0.15 -0.57,0.315 -1.05,0.375 l -0.03,0.045 c -0.03,0.525 -0.06,1.05 -0.06,1.92 z"
       style="font-style:normal;font-variant:normal;font-weight:normal;font-stretch:normal;font-size:15px;font-family:'Linux Biolinum O';-inkscape-font-specification:'Linux Biolinum O'"
       id="path3445" />
    <path
       d="m 564.09933,492.6902 c 0,1.8 1.185,3.225 3.18,3.225 1.98,0 3.18,-1.395 3.18,-3.36 0,-2.04 -1.095,-3.375 -3.12,-3.375 -1.965,0 -3.24,1.38 -3.24,3.51 z m 3.135,-2.91 c 1.59,0 1.905,1.23 1.905,3.045 0,1.44 -0.72,2.49 -1.725,2.49 -1.59,0 -1.995,-1.725 -1.995,-2.88 0,-1.305 0.405,-2.655 1.815,-2.655 z"
       style="font-style:normal;font-variant:normal;font-weight:normal;font-stretch:normal;font-size:15px;font-family:'Linux Biolinum O';-inkscape-font-specification:'Linux Biolinum O'"
       id="path3447" />
    <path
       d="m 573.53433,490.7552 0,-1.365 c 0,-0.105 -0.03,-0.15 -0.09,-0.15 -0.345,0.075 -0.885,0.09 -1.215,0.045 l -0.03,0.045 c 0.105,0.66 0.135,1.785 0.135,2.91 l 0,0.825 c 0,1.125 -0.03,1.905 -0.135,2.7 l 0.03,0.045 c 0.18,-0.03 0.525,-0.045 0.705,-0.045 0.18,0 0.525,0.015 0.705,0.045 l 0.03,-0.045 c -0.12,-0.855 -0.135,-1.56 -0.135,-2.7 l 0,-0.78 c 0,-0.63 0.18,-0.99 0.51,-1.485 0.21,-0.33 0.555,-0.525 0.84,-0.525 0.3,0 0.585,0.03 0.78,0.21 l 0.12,-0.03 0.3,-1.11 -0.06,-0.06 c -0.255,-0.075 -0.27,-0.105 -0.54,-0.105 -0.81,0 -1.245,0.465 -1.905,1.605 l -0.045,-0.03 z"
       style="font-style:normal;font-variant:normal;font-weight:normal;font-stretch:normal;font-size:15px;font-family:'Linux Biolinum O';-inkscape-font-specification:'Linux Biolinum O'"
       id="path3449" />
  </g>
  <g
     style="font-style:normal;font-variant:normal;font-weight:normal;font-stretch:normal;font-size:60px;line-height:125%;font-family:Arial;-inkscape-font-specification:Arial;letter-spacing:0px;word-spacing:0px;fill:#000000;fill-opacity:1;stroke:none"
     id="text4393-5-5-5-5">
    <path
       d="m 491.58137,160.6208 c -0.525,3.03 -1.35,7.17 -1.935,9.975 0.165,-0.045 0.315,-0.045 0.495,-0.045 0.165,0 0.285,0 0.45,0.045 0.225,-1.575 0.735,-4.92 1.095,-7.185 l 0.075,0 c 1.125,2.385 2.19,4.815 3.15,7.14 l 0.285,0 c 1.08,-2.46 2.145,-4.74 3.33,-7.095 l 0.045,0.015 c 0.315,2.355 0.615,4.65 0.84,7.125 0.225,-0.045 0.51,-0.045 0.735,-0.045 0.225,0 0.615,0 0.84,0.045 -0.54,-3.21 -0.99,-6.33 -1.41,-9.975 l -0.375,0 -3.645,7.44 -0.12,0 c -1.185,-2.46 -2.265,-4.86 -3.36,-7.44 l -0.495,0 z"
       style="font-style:normal;font-variant:normal;font-weight:normal;font-stretch:normal;font-size:15px;font-family:'Linux Biolinum O';-inkscape-font-specification:'Linux Biolinum O'"
       id="path3412" />
    <path
       d="m 503.18715,161.5958 c 0,0.405 0.36,0.765 0.765,0.765 0.405,0 0.765,-0.36 0.765,-0.765 0,-0.405 -0.36,-0.765 -0.765,-0.765 -0.405,0 -0.765,0.36 -0.765,0.765 z m 0.15,5.43 0,0.825 c 0,1.125 -0.03,1.89 -0.135,2.7 l 0.03,0.045 c 0.18,-0.03 0.525,-0.045 0.705,-0.045 0.18,0 0.525,0.015 0.705,0.045 l 0.03,-0.045 c -0.12,-0.84 -0.135,-1.56 -0.135,-2.7 l 0,-1.065 c 0,-1.125 0.03,-1.665 0.135,-2.58 0,-0.135 -0.03,-0.15 -0.135,-0.15 -0.345,0.045 -0.99,0.045 -1.305,0.015 l -0.03,0.045 c 0.09,0.645 0.135,1.785 0.135,2.91 z"
       style="font-style:normal;font-variant:normal;font-weight:normal;font-stretch:normal;font-size:15px;font-family:'Linux Biolinum O';-inkscape-font-specification:'Linux Biolinum O'"
       id="path3414" />
    <path
       d="m 508.38864,165.5408 0,-1.365 c 0,-0.105 -0.03,-0.15 -0.09,-0.15 -0.345,0.075 -0.885,0.09 -1.215,0.045 l -0.03,0.045 c 0.105,0.66 0.135,1.785 0.135,2.91 l 0,0.825 c 0,1.125 -0.03,1.905 -0.135,2.7 l 0.03,0.045 c 0.18,-0.03 0.525,-0.045 0.705,-0.045 0.18,0 0.525,0.015 0.705,0.045 l 0.03,-0.045 c -0.12,-0.855 -0.135,-1.56 -0.135,-2.7 l 0,-0.78 c 0,-0.63 0.18,-0.99 0.51,-1.485 0.21,-0.33 0.555,-0.525 0.84,-0.525 0.3,0 0.585,0.03 0.78,0.21 l 0.12,-0.03 0.3,-1.11 -0.06,-0.06 c -0.255,-0.075 -0.27,-0.105 -0.54,-0.105 -0.81,0 -1.245,0.465 -1.905,1.605 l -0.045,-0.03 z"
       style="font-style:normal;font-variant:normal;font-weight:normal;font-stretch:normal;font-size:15px;font-family:'Linux Biolinum O';-inkscape-font-specification:'Linux Biolinum O'"
       id="path3416" />
    <path
       d="m 513.72067,165.5408 0,-1.365 c 0,-0.105 -0.03,-0.15 -0.09,-0.15 -0.345,0.075 -0.885,0.09 -1.215,0.045 l -0.03,0.045 c 0.105,0.66 0.135,1.785 0.135,2.91 l 0,0.825 c 0,1.125 -0.03,1.905 -0.135,2.7 l 0.03,0.045 c 0.18,-0.03 0.525,-0.045 0.705,-0.045 0.18,0 0.525,0.015 0.705,0.045 l 0.03,-0.045 c -0.12,-0.855 -0.135,-1.56 -0.135,-2.7 l 0,-0.78 c 0,-0.63 0.18,-0.99 0.51,-1.485 0.21,-0.33 0.555,-0.525 0.84,-0.525 0.3,0 0.585,0.03 0.78,0.21 l 0.12,-0.03 0.3,-1.11 -0.06,-0.06 c -0.255,-0.075 -0.27,-0.105 -0.54,-0.105 -0.81,0 -1.245,0.465 -1.905,1.605 l -0.045,-0.03 z"
       style="font-style:normal;font-variant:normal;font-weight:normal;font-stretch:normal;font-size:15px;font-family:'Linux Biolinum O';-inkscape-font-specification:'Linux Biolinum O'"
       id="path3418" />
    <path
       d="m 517.00051,167.4758 c 0,1.8 1.185,3.225 3.18,3.225 1.98,0 3.18,-1.395 3.18,-3.36 0,-2.04 -1.095,-3.375 -3.12,-3.375 -1.965,0 -3.24,1.38 -3.24,3.51 z m 3.135,-2.91 c 1.59,0 1.905,1.23 1.905,3.045 0,1.44 -0.72,2.49 -1.725,2.49 -1.59,0 -1.995,-1.725 -1.995,-2.88 0,-1.305 0.405,-2.655 1.815,-2.655 z"
       style="font-style:normal;font-variant:normal;font-weight:normal;font-stretch:normal;font-size:15px;font-family:'Linux Biolinum O';-inkscape-font-specification:'Linux Biolinum O'"
       id="path3420" />
    <path
       d="m 526.43551,165.5408 0,-1.365 c 0,-0.105 -0.03,-0.15 -0.09,-0.15 -0.345,0.075 -0.885,0.09 -1.215,0.045 l -0.03,0.045 c 0.105,0.66 0.135,1.785 0.135,2.91 l 0,0.825 c 0,1.125 -0.03,1.905 -0.135,2.7 l 0.03,0.045 c 0.18,-0.03 0.525,-0.045 0.705,-0.045 0.18,0 0.525,0.015 0.705,0.045 l 0.03,-0.045 c -0.12,-0.855 -0.135,-1.56 -0.135,-2.7 l 0,-0.78 c 0,-0.63 0.18,-0.99 0.51,-1.485 0.21,-0.33 0.555,-0.525 0.84,-0.525 0.3,0 0.585,0.03 0.78,0.21 l 0.12,-0.03 0.3,-1.11 -0.06,-0.06 c -0.255,-0.075 -0.27,-0.105 -0.54,-0.105 -0.81,0 -1.245,0.465 -1.905,1.605 l -0.045,-0.03 z"
       style="font-style:normal;font-variant:normal;font-weight:normal;font-stretch:normal;font-size:15px;font-family:'Linux Biolinum O';-inkscape-font-specification:'Linux Biolinum O'"
       id="path3422" />
  </g>
  <g
     style="font-style:normal;font-variant:normal;font-weight:normal;font-stretch:normal;font-size:60px;line-height:125%;font-family:Arial;-inkscape-font-specification:Arial;letter-spacing:0px;word-spacing:0px;fill:#000000;fill-opacity:1;stroke:none"
     id="text4393-5-5-5-5-5">
    <path
       d="m 660.69059,330.79305 c -0.525,3.03 -1.35,7.17 -1.935,9.975 0.165,-0.045 0.315,-0.045 0.495,-0.045 0.165,0 0.285,0 0.45,0.045 0.225,-1.575 0.735,-4.92 1.095,-7.185 l 0.075,0 c 1.125,2.385 2.19,4.815 3.15,7.14 l 0.285,0 c 1.08,-2.46 2.145,-4.74 3.33,-7.095 l 0.045,0.015 c 0.315,2.355 0.615,4.65 0.84,7.125 0.225,-0.045 0.51,-0.045 0.735,-0.045 0.225,0 0.615,0 0.84,0.045 -0.54,-3.21 -0.99,-6.33 -1.41,-9.975 l -0.375,0 -3.645,7.44 -0.12,0 c -1.185,-2.46 -2.265,-4.86 -3.36,-7.44 l -0.495,0 z"
       style="font-style:normal;font-variant:normal;font-weight:normal;font-stretch:normal;font-size:15px;font-family:'Linux Biolinum O';-inkscape-font-specification:'Linux Biolinum O'"
       id="path3399" />
    <path
       d="m 672.29637,331.76805 c 0,0.405 0.36,0.765 0.765,0.765 0.405,0 0.765,-0.36 0.765,-0.765 0,-0.405 -0.36,-0.765 -0.765,-0.765 -0.405,0 -0.765,0.36 -0.765,0.765 z m 0.15,5.43 0,0.825 c 0,1.125 -0.03,1.89 -0.135,2.7 l 0.03,0.045 c 0.18,-0.03 0.525,-0.045 0.705,-0.045 0.18,0 0.525,0.015 0.705,0.045 l 0.03,-0.045 c -0.12,-0.84 -0.135,-1.56 -0.135,-2.7 l 0,-1.065 c 0,-1.125 0.03,-1.665 0.135,-2.58 0,-0.135 -0.03,-0.15 -0.135,-0.15 -0.345,0.045 -0.99,0.045 -1.305,0.015 l -0.03,0.045 c 0.09,0.645 0.135,1.785 0.135,2.91 z"
       style="font-style:normal;font-variant:normal;font-weight:normal;font-stretch:normal;font-size:15px;font-family:'Linux Biolinum O';-inkscape-font-specification:'Linux Biolinum O'"
       id="path3401" />
    <path
       d="m 677.49786,335.71305 0,-1.365 c 0,-0.105 -0.03,-0.15 -0.09,-0.15 -0.345,0.075 -0.885,0.09 -1.215,0.045 l -0.03,0.045 c 0.105,0.66 0.135,1.785 0.135,2.91 l 0,0.825 c 0,1.125 -0.03,1.905 -0.135,2.7 l 0.03,0.045 c 0.18,-0.03 0.525,-0.045 0.705,-0.045 0.18,0 0.525,0.015 0.705,0.045 l 0.03,-0.045 c -0.12,-0.855 -0.135,-1.56 -0.135,-2.7 l 0,-0.78 c 0,-0.63 0.18,-0.99 0.51,-1.485 0.21,-0.33 0.555,-0.525 0.84,-0.525 0.3,0 0.585,0.03 0.78,0.21 l 0.12,-0.03 0.3,-1.11 -0.06,-0.06 c -0.255,-0.075 -0.27,-0.105 -0.54,-0.105 -0.81,0 -1.245,0.465 -1.905,1.605 l -0.045,-0.03 z"
       style="font-style:normal;font-variant:normal;font-weight:normal;font-stretch:normal;font-size:15px;font-family:'Linux Biolinum O';-inkscape-font-specification:'Linux Biolinum O'"
       id="path3403" />
    <path
       d="m 682.82989,335.71305 0,-1.365 c 0,-0.105 -0.03,-0.15 -0.09,-0.15 -0.345,0.075 -0.885,0.09 -1.215,0.045 l -0.03,0.045 c 0.105,0.66 0.135,1.785 0.135,2.91 l 0,0.825 c 0,1.125 -0.03,1.905 -0.135,2.7 l 0.03,0.045 c 0.18,-0.03 0.525,-0.045 0.705,-0.045 0.18,0 0.525,0.015 0.705,0.045 l 0.03,-0.045 c -0.12,-0.855 -0.135,-1.56 -0.135,-2.7 l 0,-0.78 c 0,-0.63 0.18,-0.99 0.51,-1.485 0.21,-0.33 0.555,-0.525 0.84,-0.525 0.3,0 0.585,0.03 0.78,0.21 l 0.12,-0.03 0.3,-1.11 -0.06,-0.06 c -0.255,-0.075 -0.27,-0.105 -0.54,-0.105 -0.81,0 -1.245,0.465 -1.905,1.605 l -0.045,-0.03 z"
       style="font-style:normal;font-variant:normal;font-weight:normal;font-stretch:normal;font-size:15px;font-family:'Linux Biolinum O';-inkscape-font-specification:'Linux Biolinum O'"
       id="path3405" />
    <path
       d="m 686.10973,337.64805 c 0,1.8 1.185,3.225 3.18,3.225 1.98,0 3.18,-1.395 3.18,-3.36 0,-2.04 -1.095,-3.375 -3.12,-3.375 -1.965,0 -3.24,1.38 -3.24,3.51 z m 3.135,-2.91 c 1.59,0 1.905,1.23 1.905,3.045 0,1.44 -0.72,2.49 -1.725,2.49 -1.59,0 -1.995,-1.725 -1.995,-2.88 0,-1.305 0.405,-2.655 1.815,-2.655 z"
       style="font-style:normal;font-variant:normal;font-weight:normal;font-stretch:normal;font-size:15px;font-family:'Linux Biolinum O';-inkscape-font-specification:'Linux Biolinum O'"
       id="path3407" />
    <path
       d="m 695.54473,335.71305 0,-1.365 c 0,-0.105 -0.03,-0.15 -0.09,-0.15 -0.345,0.075 -0.885,0.09 -1.215,0.045 l -0.03,0.045 c 0.105,0.66 0.135,1.785 0.135,2.91 l 0,0.825 c 0,1.125 -0.03,1.905 -0.135,2.7 l 0.03,0.045 c 0.18,-0.03 0.525,-0.045 0.705,-0.045 0.18,0 0.525,0.015 0.705,0.045 l 0.03,-0.045 c -0.12,-0.855 -0.135,-1.56 -0.135,-2.7 l 0,-0.78 c 0,-0.63 0.18,-0.99 0.51,-1.485 0.21,-0.33 0.555,-0.525 0.84,-0.525 0.3,0 0.585,0.03 0.78,0.21 l 0.12,-0.03 0.3,-1.11 -0.06,-0.06 c -0.255,-0.075 -0.27,-0.105 -0.54,-0.105 -0.81,0 -1.245,0.465 -1.905,1.605 l -0.045,-0.03 z"
       style="font-style:normal;font-variant:normal;font-weight:normal;font-stretch:normal;font-size:15px;font-family:'Linux Biolinum O';-inkscape-font-specification:'Linux Biolinum O'"
       id="path3409" />
  </g>
</svg>
