<?xml version="1.0" encoding="UTF-8" standalone="no"?>
<!-- Created with Inkscape (http://www.inkscape.org/) -->

<svg
   xmlns:dc="http://purl.org/dc/elements/1.1/"
   xmlns:cc="http://creativecommons.org/ns#"
   xmlns:rdf="http://www.w3.org/1999/02/22-rdf-syntax-ns#"
   xmlns:svg="http://www.w3.org/2000/svg"
   xmlns="http://www.w3.org/2000/svg"
   xmlns:xlink="http://www.w3.org/1999/xlink"
   xmlns:sodipodi="http://sodipodi.sourceforge.net/DTD/sodipodi-0.dtd"
   xmlns:inkscape="http://www.inkscape.org/namespaces/inkscape"
   width="744.09448819"
   height="1052.3622047"
   id="svg5763"
   version="1.1"
   inkscape:version="0.91 r13725"
   sodipodi:docname="30-etm-rear.svg">
  <defs
     id="defs5765">
    <marker
       inkscape:stockid="Arrow2Mend"
       orient="auto"
       refY="0.0"
       refX="0.0"
       id="Arrow2Mend"
       style="overflow:visible;">
      <path
         id="path10914"
         style="fill-rule:evenodd;stroke-width:0.62500000;stroke-linejoin:round;"
         d="M 8.7185878,4.0337352 L -2.2072895,0.016013256 L 8.7185884,-4.0017078 C 6.9730900,-1.6296469 6.9831476,1.6157441 8.7185878,4.0337352 z "
         transform="scale(0.6) rotate(180) translate(0,0)" />
    </marker>
    <marker
       inkscape:stockid="Arrow2Mstart"
       orient="auto"
       refY="0.0"
       refX="0.0"
       id="Arrow2Mstart"
       style="overflow:visible">
      <path
         id="path10911"
         style="fill-rule:evenodd;stroke-width:0.62500000;stroke-linejoin:round"
         d="M 8.7185878,4.0337352 L -2.2072895,0.016013256 L 8.7185884,-4.0017078 C 6.9730900,-1.6296469 6.9831476,1.6157441 8.7185878,4.0337352 z "
         transform="scale(0.6) translate(0,0)" />
    </marker>
    <linearGradient
       inkscape:collect="always"
       xlink:href="#linearGradient5690"
       id="linearGradient5729"
       gradientUnits="userSpaceOnUse"
       x1="401.98752"
       y1="513.80469"
       x2="493.72681"
       y2="513.80469" />
    <linearGradient
       x1="630.75781"
       y1="156.4561"
       x2="650.75592"
       y2="156.4561"
       id="linearGradient5690"
       gradientUnits="userSpaceOnUse">
      <stop
         id="stop5693"
         style="stop-color:#87c5c9;stop-opacity:1"
         offset="0" />
      <stop
         id="stop5705"
         style="stop-color:#deefef;stop-opacity:1"
         offset="0.5" />
      <stop
         id="stop5710"
         style="stop-color:#87c5c9;stop-opacity:1"
         offset="1" />
    </linearGradient>
  </defs>
  <sodipodi:namedview
     id="base"
     pagecolor="#ffffff"
     bordercolor="#666666"
     borderopacity="1.0"
     inkscape:pageopacity="0.0"
     inkscape:pageshadow="2"
     inkscape:zoom="2.8"
     inkscape:cx="262.92701"
     inkscape:cy="572.53098"
     inkscape:document-units="px"
     inkscape:current-layer="layer1"
     showgrid="false"
     inkscape:window-width="1920"
     inkscape:window-height="1015"
     inkscape:window-x="0"
     inkscape:window-y="0"
     inkscape:window-maximized="1" />
  <metadata
     id="metadata5768">
    <rdf:RDF>
      <cc:Work
         rdf:about="">
        <dc:format>image/svg+xml</dc:format>
        <dc:type
           rdf:resource="http://purl.org/dc/dcmitype/StillImage" />
        <dc:title />
      </cc:Work>
    </rdf:RDF>
  </metadata>
  <g
     inkscape:label="Layer 1"
     inkscape:groupmode="layer"
     id="layer1">
    <g
       id="g5714"
       transform="matrix(1.25,0,0,1.25,-231.25002,-181.32226)">
      <path
         sodipodi:nodetypes="sccsccssssss"
         id="path2985"
         d="m 447.86065,463.1922 c -20.30033,0 -37.80765,11.95306 -45.87314,29.20341 l 0,42.81818 c 8.06487,17.25195 25.57164,29.20341 45.87314,29.20341 20.29597,0 37.79835,-11.94509 45.86616,-29.18946 l 0,-42.84608 C 485.65836,475.13893 468.15543,463.1922 447.86065,463.1922 z m 0,29.25921 c 11.79278,0 21.3498,9.564 21.3498,21.35678 0,11.79278 -9.55702,21.3498 -21.3498,21.3498 -11.79278,0 -21.35678,-9.55702 -21.35678,-21.3498 0,-11.79278 9.564,-21.35678 21.35678,-21.35678 z"
         style="fill:url(#linearGradient5729);fill-opacity:1;stroke:none"
         inkscape:connector-curvature="0" />
      <path
         transform="matrix(0.62916668,0,0,0.62916668,95.505847,110.92194)"
         style="opacity:0.5;fill:#a6c5ca;fill-opacity:1;stroke:none"
         d="m 593.96969,640.34344 a 33.941124,33.941124 0 0 1 -33.94113,33.94113 33.941124,33.941124 0 0 1 -33.94112,-33.94113 33.941124,33.941124 0 0 1 33.94112,-33.94112 33.941124,33.941124 0 0 1 33.94113,33.94112 z"
         id="path5712" />
    </g>
    <path
       transform="matrix(0.18872349,0,0,0.18872349,262.51821,358.17679)"
       style="fill:#4e4e4e;fill-opacity:1;stroke:none"
       d="M 365.71429,236.6479 A 15.714286,15.714286 0 0 1 350,252.36219 15.714286,15.714286 0 0 1 334.28571,236.6479 15.714286,15.714286 0 0 1 350,220.93362 15.714286,15.714286 0 0 1 365.71429,236.6479 Z"
       id="path3841" />
    <path
       transform="matrix(0.18872349,0,0,0.18872349,210.30698,442.35244)"
       style="fill:#4e4e4e;fill-opacity:1;stroke:none"
       d="M 365.71429,236.6479 A 15.714286,15.714286 0 0 1 350,252.36219 15.714286,15.714286 0 0 1 334.28571,236.6479 15.714286,15.714286 0 0 1 350,220.93362 15.714286,15.714286 0 0 1 365.71429,236.6479 Z"
       id="path3841-0" />
    <path
       transform="matrix(0.18872349,0,0,0.18872349,314.72942,442.35244)"
       style="fill:#4e4e4e;fill-opacity:1;stroke:none"
       d="M 365.71429,236.6479 A 15.714286,15.714286 0 0 1 350,252.36219 15.714286,15.714286 0 0 1 334.28571,236.6479 15.714286,15.714286 0 0 1 350,220.93362 15.714286,15.714286 0 0 1 365.71429,236.6479 Z"
       id="path3841-0-0" />
    <path
       inkscape:connector-curvature="0"
       style="fill:none;stroke:#000000;stroke-width:1;stroke-linecap:round;stroke-linejoin:miter;stroke-miterlimit:4;stroke-opacity:1;stroke-dasharray:none;marker-start:url(#Arrow2Mstart);marker-end:url(#Arrow2Mend);display:inline;enable-background:new"
       d="m 330.36605,536.18854 48.59685,0"
       id="path4592-1-0"
       sodipodi:nodetypes="cc" />
    <path
       inkscape:connector-curvature="0"
       style="fill:none;stroke:#000000;stroke-width:1;stroke-linecap:round;stroke-linejoin:miter;stroke-miterlimit:4;stroke-opacity:1;stroke-dasharray:1, 3;stroke-dashoffset:0;marker-start:none;marker-end:none;display:inline;enable-background:new"
       d="m 328.57143,402.87861 0,134.38969"
       id="path4592-1-0-6"
       sodipodi:nodetypes="cc" />
    <path
       inkscape:connector-curvature="0"
       style="fill:none;stroke:#000000;stroke-width:1;stroke-linecap:round;stroke-linejoin:miter;stroke-miterlimit:4;stroke-opacity:1;stroke-dasharray:1, 3.00000001;stroke-dashoffset:0;marker-start:none;marker-end:none;display:inline;enable-background:new"
       d="m 380.78264,487.23304 0,50.03526"
       id="path4592-1-0-6-8"
       sodipodi:nodetypes="cc" />
    <path
       inkscape:connector-curvature="0"
       style="fill:none;stroke:#000000;stroke-width:1;stroke-linecap:round;stroke-linejoin:miter;stroke-miterlimit:4;stroke-opacity:1;stroke-dasharray:1, 3.00000001;stroke-dashoffset:0;marker-start:none;marker-end:none;display:inline;enable-background:new"
       d="m 276.3602,487.23304 0,50.03526"
       id="path4592-1-0-6-8-2"
       sodipodi:nodetypes="cc" />
    <path
       inkscape:connector-curvature="0"
       style="fill:none;stroke:#000000;stroke-width:1;stroke-linecap:round;stroke-linejoin:miter;stroke-miterlimit:4;stroke-opacity:1;stroke-dasharray:none;marker-start:url(#Arrow2Mstart);marker-end:url(#Arrow2Mend);display:inline;enable-background:new"
       d="m 278.15694,536.18854 48.59685,0"
       id="path4592-1-0-3"
       sodipodi:nodetypes="cc" />
    <g
       style="font-style:normal;font-weight:normal;font-size:40px;line-height:125%;font-family:Sans;letter-spacing:0px;word-spacing:0px;fill:#000000;fill-opacity:1;stroke:none"
       id="text12010">
      <path
         d="m 339.38511,549.13339 c 1.19,0 2.04,-0.88 2.04,-2.06 0,-0.97 -0.65,-1.84 -1.77,-1.84 -0.41,0 -0.87,0.07 -1.09,0.15 l 0.21,-1.77 c 0.37,0.05 0.8,0.09 1.27,0.09 0.3,0 0.64,-0.01 1.05,-0.06 l 0.16,-0.68 -0.07,-0.03 c -0.57,0.07 -1.11,0.1 -1.64,0.1 -0.37,0 -0.8,-0.03 -1.14,-0.06 l -0.32,2.95 0.07,0.02 c 0.39,-0.16 0.77,-0.31 1.24,-0.31 0.65,0 1.15,0.52 1.15,1.61 0,0.92 -0.46,1.49 -1.14,1.49 -0.75,0 -0.88,-0.4 -1.21,-1 l -0.14,0.01 -0.22,0.8 0.04,0.03 c 0.25,0.22 0.75,0.56 1.51,0.56 z"
         style="font-style:normal;font-variant:normal;font-weight:normal;font-stretch:normal;font-size:10px;font-family:'Linux Biolinum O';-inkscape-font-specification:'Linux Biolinum O'"
         id="path3402" />
      <path
         d="m 343.28355,546.26339 c 0.39,-0.4 0.79,-0.41 1.01,-0.41 1.01,0 1.16,0.96 1.16,1.45 0,1.1 -0.41,1.46 -0.89,1.46 -0.53,0 -1.29,-0.35 -1.29,-2.13 0,-0.1 0,-0.27 0.01,-0.37 z m 2.73,-3.06 -0.03,-0.28 c -1.03,0.06 -1.76,0.34 -2.44,1.03 -0.73,0.73 -1.07,1.68 -1.07,2.65 0,2.1 1.21,2.52 1.98,2.52 1.46,0 1.88,-1.17 1.88,-1.89 0,-0.48 -0.27,-1.78 -1.83,-1.78 -0.4,0 -0.96,0.22 -1.2,0.52 0.11,-0.85 0.47,-1.56 0.95,-2.03 0.51,-0.49 1.07,-0.67 1.76,-0.74 z"
         style="font-style:normal;font-variant:normal;font-weight:normal;font-stretch:normal;font-size:10px;font-family:'Linux Biolinum O';-inkscape-font-specification:'Linux Biolinum O'"
         id="path3404" />
      <path
         d="m 347.20199,548.59339 c 0.08,0.34 0.22,0.47 0.54,0.54 l 0.04,0 c 0.28,-0.07 0.43,-0.21 0.54,-0.54 l 0,-0.04 c -0.1,-0.28 -0.25,-0.43 -0.54,-0.54 l -0.04,0 c -0.31,0.13 -0.45,0.28 -0.54,0.54 l 0,0.04 z"
         style="font-style:normal;font-variant:normal;font-weight:normal;font-stretch:normal;font-size:10px;font-family:'Linux Biolinum O';-inkscape-font-specification:'Linux Biolinum O'"
         id="path3406" />
      <path
         d="m 350.95902,548.74339 c -0.79,0 -0.9,-0.3 -1.17,-0.88 l -0.15,0.01 -0.22,0.75 0.03,0.03 c 0.26,0.22 0.69,0.48 1.49,0.48 0.85,0 2.19,-0.58 2.19,-1.9 0,-0.79 -0.61,-1.35 -1.38,-1.42 l 0,-0.05 c 0.52,-0.12 1.18,-0.7 1.18,-1.53 0,-0.72 -0.62,-1.3 -1.61,-1.3 -0.77,0 -1.33,0.34 -1.58,0.56 l -0.03,0.03 0.21,0.64 0.15,0.01 c 0.24,-0.56 0.56,-0.85 1.16,-0.85 0.39,0 0.83,0.41 0.83,1.06 0,0.44 -0.15,0.76 -0.38,0.98 -0.2,0.19 -0.49,0.28 -0.83,0.28 -0.12,0 -0.23,-0.01 -0.37,-0.03 l 0,0.44 c 0.12,-0.02 0.33,-0.02 0.42,-0.02 0.32,0 0.7,0.09 0.98,0.32 0.26,0.22 0.39,0.57 0.39,0.96 0,1.21 -0.95,1.43 -1.31,1.43 z"
         style="font-style:normal;font-variant:normal;font-weight:normal;font-stretch:normal;font-size:10px;font-family:'Linux Biolinum O';-inkscape-font-specification:'Linux Biolinum O'"
         id="path3408" />
      <path
         d="m 357.63746,545.51339 0,-0.73 c 0,-0.07 -0.02,-0.1 -0.06,-0.1 -0.23,0.05 -0.59,0.06 -0.81,0.03 l -0.02,0.03 c 0.07,0.44 0.09,1.19 0.09,1.94 l 0,0.55 c 0,0.75 -0.01,1.26 -0.09,1.8 l 0.02,0.03 c 0.12,-0.02 0.35,-0.03 0.47,-0.03 0.12,0 0.35,0.01 0.47,0.03 l 0.02,-0.03 c -0.08,-0.57 -0.09,-1.04 -0.09,-1.8 l 0,-1.21 c 0.47,-0.48 1.03,-0.78 1.38,-0.78 0.38,0 0.66,0.22 0.66,0.89 l 0,1.1 c 0,0.75 -0.01,1.26 -0.09,1.8 l 0.02,0.03 c 0.12,-0.02 0.35,-0.03 0.47,-0.03 0.12,0 0.35,0.01 0.47,0.03 l 0.02,-0.03 c -0.08,-0.57 -0.09,-1.04 -0.09,-1.8 l 0,-1.01 c 0,-0.14 0,-0.26 -0.01,-0.38 0.48,-0.53 0.88,-0.6 1.27,-0.6 0.54,0 0.8,0.22 0.8,0.89 l 0,1.1 c 0,0.75 -0.01,1.26 -0.09,1.8 l 0.02,0.03 c 0.12,-0.02 0.35,-0.03 0.47,-0.03 0.12,0 0.35,0.01 0.47,0.03 l 0.02,-0.03 c -0.08,-0.57 -0.09,-1.04 -0.09,-1.8 l 0,-1 c 0,-0.89 -0.16,-1.59 -1.24,-1.59 -0.54,0 -1.12,0.19 -1.69,0.79 -0.09,-0.48 -0.5,-0.79 -1.06,-0.79 -0.62,0 -1.21,0.4 -1.68,0.9 l -0.03,-0.03 z"
         style="font-style:normal;font-variant:normal;font-weight:normal;font-stretch:normal;font-size:10px;font-family:'Linux Biolinum O';-inkscape-font-specification:'Linux Biolinum O'"
         id="path3410" />
      <path
         d="m 365.70386,545.51339 0,-0.73 c 0,-0.07 -0.02,-0.1 -0.06,-0.1 -0.23,0.05 -0.59,0.06 -0.81,0.03 l -0.02,0.03 c 0.07,0.44 0.09,1.19 0.09,1.94 l 0,0.55 c 0,0.75 -0.01,1.26 -0.09,1.8 l 0.02,0.03 c 0.12,-0.02 0.35,-0.03 0.47,-0.03 0.12,0 0.35,0.01 0.47,0.03 l 0.02,-0.03 c -0.08,-0.57 -0.09,-1.04 -0.09,-1.8 l 0,-1.21 c 0.47,-0.48 1.03,-0.78 1.38,-0.78 0.38,0 0.66,0.22 0.66,0.89 l 0,1.1 c 0,0.75 -0.01,1.26 -0.09,1.8 l 0.02,0.03 c 0.12,-0.02 0.35,-0.03 0.47,-0.03 0.12,0 0.35,0.01 0.47,0.03 l 0.02,-0.03 c -0.08,-0.57 -0.09,-1.04 -0.09,-1.8 l 0,-1.01 c 0,-0.14 0,-0.26 -0.01,-0.38 0.48,-0.53 0.88,-0.6 1.27,-0.6 0.54,0 0.8,0.22 0.8,0.89 l 0,1.1 c 0,0.75 -0.01,1.26 -0.09,1.8 l 0.02,0.03 c 0.12,-0.02 0.35,-0.03 0.47,-0.03 0.12,0 0.35,0.01 0.47,0.03 l 0.02,-0.03 c -0.08,-0.57 -0.09,-1.04 -0.09,-1.8 l 0,-1 c 0,-0.89 -0.16,-1.59 -1.24,-1.59 -0.54,0 -1.12,0.19 -1.69,0.79 -0.09,-0.48 -0.5,-0.79 -1.06,-0.79 -0.62,0 -1.21,0.4 -1.68,0.9 l -0.03,-0.03 z"
         style="font-style:normal;font-variant:normal;font-weight:normal;font-stretch:normal;font-size:10px;font-family:'Linux Biolinum O';-inkscape-font-specification:'Linux Biolinum O'"
         id="path3412" />
    </g>
    <g
       style="font-style:normal;font-weight:normal;font-size:40px;line-height:125%;font-family:Sans;letter-spacing:0px;word-spacing:0px;fill:#000000;fill-opacity:1;stroke:none"
       id="text12010-1">
      <path
         d="m 287.17598,549.13339 c 1.19,0 2.04,-0.88 2.04,-2.06 0,-0.97 -0.65,-1.84 -1.77,-1.84 -0.41,0 -0.87,0.07 -1.09,0.15 l 0.21,-1.77 c 0.37,0.05 0.8,0.09 1.27,0.09 0.3,0 0.64,-0.01 1.05,-0.06 l 0.16,-0.68 -0.07,-0.03 c -0.57,0.07 -1.11,0.1 -1.64,0.1 -0.37,0 -0.8,-0.03 -1.14,-0.06 l -0.32,2.95 0.07,0.02 c 0.39,-0.16 0.77,-0.31 1.24,-0.31 0.65,0 1.15,0.52 1.15,1.61 0,0.92 -0.46,1.49 -1.14,1.49 -0.75,0 -0.88,-0.4 -1.21,-1 l -0.14,0.01 -0.22,0.8 0.04,0.03 c 0.25,0.22 0.75,0.56 1.51,0.56 z"
         style="font-style:normal;font-variant:normal;font-weight:normal;font-stretch:normal;font-size:10px;font-family:'Linux Biolinum O';-inkscape-font-specification:'Linux Biolinum O'"
         id="path3389" />
      <path
         d="m 291.07441,546.26339 c 0.39,-0.4 0.79,-0.41 1.01,-0.41 1.01,0 1.16,0.96 1.16,1.45 0,1.1 -0.41,1.46 -0.89,1.46 -0.53,0 -1.29,-0.35 -1.29,-2.13 0,-0.1 0,-0.27 0.01,-0.37 z m 2.73,-3.06 -0.03,-0.28 c -1.03,0.06 -1.76,0.34 -2.44,1.03 -0.73,0.73 -1.07,1.68 -1.07,2.65 0,2.1 1.21,2.52 1.98,2.52 1.46,0 1.88,-1.17 1.88,-1.89 0,-0.48 -0.27,-1.78 -1.83,-1.78 -0.4,0 -0.96,0.22 -1.2,0.52 0.11,-0.85 0.47,-1.56 0.95,-2.03 0.51,-0.49 1.07,-0.67 1.76,-0.74 z"
         style="font-style:normal;font-variant:normal;font-weight:normal;font-stretch:normal;font-size:10px;font-family:'Linux Biolinum O';-inkscape-font-specification:'Linux Biolinum O'"
         id="path3391" />
      <path
         d="m 294.99285,548.59339 c 0.08,0.34 0.22,0.47 0.54,0.54 l 0.04,0 c 0.28,-0.07 0.43,-0.21 0.54,-0.54 l 0,-0.04 c -0.1,-0.28 -0.25,-0.43 -0.54,-0.54 l -0.04,0 c -0.31,0.13 -0.45,0.28 -0.54,0.54 l 0,0.04 z"
         style="font-style:normal;font-variant:normal;font-weight:normal;font-stretch:normal;font-size:10px;font-family:'Linux Biolinum O';-inkscape-font-specification:'Linux Biolinum O'"
         id="path3393" />
      <path
         d="m 298.74988,548.74339 c -0.79,0 -0.9,-0.3 -1.17,-0.88 l -0.15,0.01 -0.22,0.75 0.03,0.03 c 0.26,0.22 0.69,0.48 1.49,0.48 0.85,0 2.19,-0.58 2.19,-1.9 0,-0.79 -0.61,-1.35 -1.38,-1.42 l 0,-0.05 c 0.52,-0.12 1.18,-0.7 1.18,-1.53 0,-0.72 -0.62,-1.3 -1.61,-1.3 -0.77,0 -1.33,0.34 -1.58,0.56 l -0.03,0.03 0.21,0.64 0.15,0.01 c 0.24,-0.56 0.56,-0.85 1.16,-0.85 0.39,0 0.83,0.41 0.83,1.06 0,0.44 -0.15,0.76 -0.38,0.98 -0.2,0.19 -0.49,0.28 -0.83,0.28 -0.12,0 -0.23,-0.01 -0.37,-0.03 l 0,0.44 c 0.12,-0.02 0.33,-0.02 0.42,-0.02 0.32,0 0.7,0.09 0.98,0.32 0.26,0.22 0.39,0.57 0.39,0.96 0,1.21 -0.95,1.43 -1.31,1.43 z"
         style="font-style:normal;font-variant:normal;font-weight:normal;font-stretch:normal;font-size:10px;font-family:'Linux Biolinum O';-inkscape-font-specification:'Linux Biolinum O'"
         id="path3395" />
      <path
         d="m 305.42832,545.51339 0,-0.73 c 0,-0.07 -0.02,-0.1 -0.06,-0.1 -0.23,0.05 -0.59,0.06 -0.81,0.03 l -0.02,0.03 c 0.07,0.44 0.09,1.19 0.09,1.94 l 0,0.55 c 0,0.75 -0.01,1.26 -0.09,1.8 l 0.02,0.03 c 0.12,-0.02 0.35,-0.03 0.47,-0.03 0.12,0 0.35,0.01 0.47,0.03 l 0.02,-0.03 c -0.08,-0.57 -0.09,-1.04 -0.09,-1.8 l 0,-1.21 c 0.47,-0.48 1.03,-0.78 1.38,-0.78 0.38,0 0.66,0.22 0.66,0.89 l 0,1.1 c 0,0.75 -0.01,1.26 -0.09,1.8 l 0.02,0.03 c 0.12,-0.02 0.35,-0.03 0.47,-0.03 0.12,0 0.35,0.01 0.47,0.03 l 0.02,-0.03 c -0.08,-0.57 -0.09,-1.04 -0.09,-1.8 l 0,-1.01 c 0,-0.14 0,-0.26 -0.01,-0.38 0.48,-0.53 0.88,-0.6 1.27,-0.6 0.54,0 0.8,0.22 0.8,0.89 l 0,1.1 c 0,0.75 -0.01,1.26 -0.09,1.8 l 0.02,0.03 c 0.12,-0.02 0.35,-0.03 0.47,-0.03 0.12,0 0.35,0.01 0.47,0.03 l 0.02,-0.03 c -0.08,-0.57 -0.09,-1.04 -0.09,-1.8 l 0,-1 c 0,-0.89 -0.16,-1.59 -1.24,-1.59 -0.54,0 -1.12,0.19 -1.69,0.79 -0.09,-0.48 -0.5,-0.79 -1.06,-0.79 -0.62,0 -1.21,0.4 -1.68,0.9 l -0.03,-0.03 z"
         style="font-style:normal;font-variant:normal;font-weight:normal;font-stretch:normal;font-size:10px;font-family:'Linux Biolinum O';-inkscape-font-specification:'Linux Biolinum O'"
         id="path3397" />
      <path
         d="m 313.49473,545.51339 0,-0.73 c 0,-0.07 -0.02,-0.1 -0.06,-0.1 -0.23,0.05 -0.59,0.06 -0.81,0.03 l -0.02,0.03 c 0.07,0.44 0.09,1.19 0.09,1.94 l 0,0.55 c 0,0.75 -0.01,1.26 -0.09,1.8 l 0.02,0.03 c 0.12,-0.02 0.35,-0.03 0.47,-0.03 0.12,0 0.35,0.01 0.47,0.03 l 0.02,-0.03 c -0.08,-0.57 -0.09,-1.04 -0.09,-1.8 l 0,-1.21 c 0.47,-0.48 1.03,-0.78 1.38,-0.78 0.38,0 0.66,0.22 0.66,0.89 l 0,1.1 c 0,0.75 -0.01,1.26 -0.09,1.8 l 0.02,0.03 c 0.12,-0.02 0.35,-0.03 0.47,-0.03 0.12,0 0.35,0.01 0.47,0.03 l 0.02,-0.03 c -0.08,-0.57 -0.09,-1.04 -0.09,-1.8 l 0,-1.01 c 0,-0.14 0,-0.26 -0.01,-0.38 0.48,-0.53 0.88,-0.6 1.27,-0.6 0.54,0 0.8,0.22 0.8,0.89 l 0,1.1 c 0,0.75 -0.01,1.26 -0.09,1.8 l 0.02,0.03 c 0.12,-0.02 0.35,-0.03 0.47,-0.03 0.12,0 0.35,0.01 0.47,0.03 l 0.02,-0.03 c -0.08,-0.57 -0.09,-1.04 -0.09,-1.8 l 0,-1 c 0,-0.89 -0.16,-1.59 -1.24,-1.59 -0.54,0 -1.12,0.19 -1.69,0.79 -0.09,-0.48 -0.5,-0.79 -1.06,-0.79 -0.62,0 -1.21,0.4 -1.68,0.9 l -0.03,-0.03 z"
         style="font-style:normal;font-variant:normal;font-weight:normal;font-stretch:normal;font-size:10px;font-family:'Linux Biolinum O';-inkscape-font-specification:'Linux Biolinum O'"
         id="path3399" />
    </g>
    <g
       style="font-style:normal;font-weight:normal;font-size:40px;line-height:125%;font-family:Sans;letter-spacing:0px;word-spacing:0px;fill:#ff0000;fill-opacity:1;stroke:none"
       id="text12010-1-3">
      <path
         d="m 252.48664,486.29149 c 0,-0.75 0.02,-1.47 0.1,-2 l -0.01,-0.03 c -0.12,0.02 -0.4,0.03 -0.52,0.03 -0.12,0 -0.39,-0.01 -0.51,-0.03 l -0.02,0.03 c 0.08,0.57 0.1,1.25 0.1,2 l 0,2.45 c 0,0.75 -0.02,1.46 -0.1,2 l 0.01,0.03 c 0,0 0.18,-0.03 0.52,-0.03 l 2.73,0 c 0.21,0 0.44,0.01 0.6,0.03 l 0.02,-0.03 c -0.01,-0.14 -0.02,-0.34 -0.02,-0.44 0,-0.1 0.01,-0.27 0.02,-0.35 l -0.02,-0.04 c 0,0 -1.48,0.22 -2.82,0.22 -0.07,-0.24 -0.08,-1.22 -0.08,-1.39 l 0,-2.45 z"
         style="font-style:normal;font-variant:normal;font-weight:normal;font-stretch:normal;font-size:10px;font-family:'Linux Biolinum O';-inkscape-font-specification:'Linux Biolinum O';fill:#000000"
         id="path3382" />
      <path
         d="m 256.98289,488.01149 c 0.17,-1.04 0.82,-1.26 1.14,-1.26 0.39,0 0.84,0.37 0.84,1.12 0,0.09 -0.04,0.14 -0.14,0.14 l -1.84,0 z m 2.67,1.69 c -0.35,0.38 -0.82,0.55 -1.37,0.55 -0.35,0 -0.82,-0.13 -1.09,-0.57 -0.18,-0.28 -0.24,-0.68 -0.24,-1.27 l 2.72,0 c 0.11,0 0.18,-0.06 0.18,-0.17 0,-0.84 -0.41,-1.89 -1.73,-1.89 -1.03,0 -2.05,0.83 -2.05,2.3 0,0.57 0.11,1.13 0.45,1.53 0.34,0.42 0.91,0.66 1.59,0.66 0.72,0 1.36,-0.37 1.74,-0.89 l -0.2,-0.25 z"
         style="font-style:normal;font-variant:normal;font-weight:normal;font-stretch:normal;font-size:10px;font-family:'Linux Biolinum O';-inkscape-font-specification:'Linux Biolinum O';fill:#000000"
         id="path3384" />
      <path
         d="m 261.25414,486.89149 0,1.85 c 0,0.75 -0.02,1.47 -0.1,2 l 0.01,0.03 c 0,0 0.14,-0.03 0.49,-0.03 0.34,0 0.48,0.03 0.48,0.03 l 0.02,-0.03 c -0.09,-0.57 -0.1,-1.24 -0.1,-2 l 0,-1.85 2.12,0 0,1.54 c 0,0.6 -0.03,1.32 -0.03,1.62 0,0.47 0.32,0.79 0.78,0.79 0.42,0 0.87,-0.11 1.26,-0.47 l -0.13,-0.24 c -0.26,0.15 -0.52,0.17 -0.78,0.17 -0.27,0 -0.33,-0.24 -0.33,-0.65 0,-0.3 0.03,-0.73 0.03,-1.33 l 0,-1.43 0.38,0 c 0.24,0 0.58,0.01 0.72,0.02 0.03,-0.16 0.06,-0.26 0.12,-0.41 l -0.05,-0.07 c -0.14,0.01 -0.47,0.02 -0.7,0.02 l -0.47,0 c 0,-0.74 0,-0.81 0.05,-1.39 0,-0.07 -0.03,-0.1 -0.09,-0.1 -0.26,0.1 -0.41,0.22 -0.81,0.25 l -0.02,0.03 c 0.07,0.42 0.07,0.63 0.07,1.21 l -2.12,0 0,-0.1 c 0,-0.25 -0.05,-0.78 -0.05,-0.96 0,-0.55 0.25,-1.03 0.83,-1.03 0.29,0 0.47,0.15 0.58,0.35 l 0.11,-0.01 c 0.07,-0.27 0.17,-0.63 0.28,-0.82 l -0.01,-0.03 c -0.08,-0.05 -0.26,-0.09 -0.45,-0.09 -0.63,0 -1.18,0.27 -1.54,0.76 -0.36,0.49 -0.55,0.75 -0.55,1.53 l 0,0.4 c -0.22,0 -0.45,0 -0.58,-0.02 -0.07,0.17 -0.13,0.26 -0.22,0.41 l 0.05,0.07 c 0.18,-0.01 0.51,-0.02 0.74,-0.02 l 0.01,0 z"
         style="font-style:normal;font-variant:normal;font-weight:normal;font-stretch:normal;font-size:10px;font-family:'Linux Biolinum O';-inkscape-font-specification:'Linux Biolinum O';fill:#000000"
         id="path3386" />
    </g>
    <g
       style="font-style:normal;font-weight:normal;font-size:40px;line-height:125%;font-family:Sans;letter-spacing:0px;word-spacing:0px;fill:#ff0000;fill-opacity:1;stroke:none"
       id="text12010-1-3-5">
      <path
         d="m 392.80674,486.74648 c 0.35,0 0.65,-0.01 0.92,-0.03 0.28,0.33 0.5,0.72 0.76,1.13 0.36,0.58 0.84,1.45 0.95,1.79 0.19,-0.03 0.41,-0.03 0.6,-0.03 0.2,0 0.4,0 0.6,0.03 l 0.02,-0.03 c -0.5,-0.56 -1.51,-2.14 -2.14,-2.99 0.27,-0.05 0.47,-0.11 0.61,-0.19 0.54,-0.27 1,-0.79 1,-1.61 0,-0.5 -0.17,-0.91 -0.53,-1.25 -0.48,-0.45 -1.24,-0.48 -1.87,-0.48 -0.25,0 -1.05,0.07 -1.35,0.07 -0.12,0 -0.39,-0.01 -0.51,-0.03 l -0.02,0.03 c 0.08,0.57 0.1,1.25 0.1,2 l 0,2.45 c 0,0.75 -0.02,1.46 -0.1,2 l 0.02,0.03 c 0.12,-0.02 0.39,-0.03 0.51,-0.03 0.12,0 0.39,0.01 0.51,0.03 l 0.02,-0.03 c -0.08,-0.57 -0.1,-1.25 -0.1,-2 l 0,-0.86 z m 0.93,-3.23 c 0.61,0 1.43,0.23 1.43,1.31 0,1.22 -0.81,1.52 -1.78,1.52 l -0.58,0 0,-2.39 c 0,-0.39 0.03,-0.44 0.93,-0.44 z"
         style="font-style:normal;font-variant:normal;font-weight:normal;font-stretch:normal;font-size:10px;font-family:'Linux Biolinum O';-inkscape-font-specification:'Linux Biolinum O';fill:#000000"
         id="path3371" />
      <path
         d="m 397.70283,483.63648 c 0,0.27 0.24,0.51 0.51,0.51 0.27,0 0.51,-0.24 0.51,-0.51 0,-0.27 -0.24,-0.51 -0.51,-0.51 -0.27,0 -0.51,0.24 -0.51,0.51 z m 0.1,3.62 0,0.55 c 0,0.75 -0.02,1.26 -0.09,1.8 l 0.02,0.03 c 0.12,-0.02 0.35,-0.03 0.47,-0.03 0.12,0 0.35,0.01 0.47,0.03 l 0.02,-0.03 c -0.08,-0.56 -0.09,-1.04 -0.09,-1.8 l 0,-0.71 c 0,-0.75 0.02,-1.11 0.09,-1.72 0,-0.09 -0.02,-0.1 -0.09,-0.1 -0.23,0.03 -0.66,0.03 -0.87,0.01 l -0.02,0.03 c 0.06,0.43 0.09,1.19 0.09,1.94 z"
         style="font-style:normal;font-variant:normal;font-weight:normal;font-stretch:normal;font-size:10px;font-family:'Linux Biolinum O';-inkscape-font-specification:'Linux Biolinum O';fill:#000000"
         id="path3373" />
      <path
         d="m 400.51049,490.64648 c 0,-0.33 0.3,-0.7 0.65,-0.89 0.29,0 0.75,-0.03 0.89,-0.03 0.48,0 0.78,0.01 1.06,0.17 0.29,0.17 0.39,0.46 0.39,0.72 0,0.61 -0.82,0.93 -1.68,0.93 -0.65,0 -1.31,-0.22 -1.31,-0.9 z m 2.89,-3.89 c 0,-0.69 -0.27,-1.01 -0.51,-1.16 0.3,0.02 0.63,0.06 1.05,0.1 l 0.03,-0.03 c -0.02,-0.09 -0.03,-0.17 -0.03,-0.26 0,-0.09 0.01,-0.17 0.03,-0.26 l -0.03,-0.03 c -0.48,0.05 -0.84,0.15 -1.58,0.19 -0.18,-0.06 -0.4,-0.09 -0.61,-0.09 -0.79,0 -1.7,0.53 -1.7,1.52 0,0.75 0.43,1.09 0.71,1.25 -0.29,0.2 -0.64,0.49 -0.64,0.83 0,0.41 0.24,0.77 0.77,0.87 -0.27,0.11 -0.59,0.3 -0.84,0.5 -0.13,0.19 -0.23,0.48 -0.23,0.66 0,0.79 0.86,1.13 1.92,1.13 1.56,0 2.49,-0.65 2.49,-1.59 0,-0.44 -0.14,-0.75 -0.42,-0.99 -0.38,-0.32 -1.06,-0.33 -1.41,-0.33 -0.17,0 -0.57,0.02 -0.8,0.05 -0.14,0.01 -0.24,0.02 -0.29,0.02 -0.28,0 -0.58,-0.04 -0.58,-0.47 0,-0.2 0.05,-0.37 0.27,-0.56 0.13,0.07 0.43,0.14 0.74,0.14 1.04,0 1.66,-0.7 1.66,-1.49 z m -0.78,0.01 c 0,0.61 -0.25,1.08 -0.85,1.08 -0.72,0 -0.94,-0.47 -0.94,-1.16 0,-0.66 0.3,-1.09 0.88,-1.09 0.65,0 0.91,0.46 0.91,1.17 z"
         style="font-style:normal;font-variant:normal;font-weight:normal;font-stretch:normal;font-size:10px;font-family:'Linux Biolinum O';-inkscape-font-specification:'Linux Biolinum O';fill:#000000"
         id="path3375" />
      <path
         d="m 406.18096,486.08648 0,-1.49 c 0,-0.74 0.04,-1.25 0.09,-1.87 0,-0.07 -0.03,-0.1 -0.09,-0.1 -0.26,0.1 -0.47,0.17 -0.87,0.2 l -0.02,0.03 c 0.07,0.43 0.09,1.18 0.09,1.94 l 0,3.01 c 0,0.75 -0.02,1.24 -0.09,1.8 l 0.02,0.03 c 0.12,-0.02 0.35,-0.03 0.47,-0.03 0.12,0 0.35,0.01 0.47,0.03 l 0.02,-0.03 c -0.08,-0.57 -0.09,-1.04 -0.09,-1.8 l 0,-1.17 c 0.51,-0.6 1.09,-0.82 1.45,-0.82 0.51,0 0.72,0.2 0.72,1.01 l 0,0.98 c 0,0.75 -0.01,1.27 -0.09,1.8 l 0.02,0.03 c 0.12,-0.02 0.35,-0.03 0.47,-0.03 0.12,0 0.35,0.01 0.47,0.03 l 0.02,-0.03 c -0.08,-0.57 -0.09,-1.04 -0.09,-1.8 0,-0.32 0.02,-0.69 0.02,-1.01 0,-1.04 -0.34,-1.58 -1.24,-1.58 -0.38,0 -1.09,0.15 -1.73,0.9 l -0.02,-0.03 z"
         style="font-style:normal;font-variant:normal;font-weight:normal;font-stretch:normal;font-size:10px;font-family:'Linux Biolinum O';-inkscape-font-specification:'Linux Biolinum O';fill:#000000"
         id="path3377" />
      <path
         d="m 410.91924,485.31648 c -0.21,0 -0.42,0 -0.54,-0.02 -0.07,0.17 -0.13,0.26 -0.22,0.41 l 0.05,0.07 c 0.17,-0.01 0.48,-0.01 0.71,-0.02 l 0,1.37 c 0,0.6 -0.03,1.32 -0.03,1.62 0,0.65 0.42,0.96 0.88,0.96 0.42,0 0.74,-0.1 1.16,-0.37 l -0.13,-0.24 c -0.3,0.1 -0.53,0.11 -0.78,0.07 -0.24,-0.03 -0.33,-0.27 -0.33,-0.82 0,-0.3 0.03,-0.73 0.03,-1.33 l 0,-1.26 0.38,0 c 0.24,0 0.58,0.01 0.72,0.02 0.03,-0.16 0.06,-0.26 0.12,-0.41 l -0.05,-0.07 c -0.18,0.01 -0.47,0.02 -0.7,0.02 l -0.47,0 c 0,-0.74 0,-0.88 0.05,-1.46 0,-0.07 -0.03,-0.1 -0.09,-0.1 -0.26,0.1 -0.38,0.21 -0.7,0.25 l -0.02,0.03 c -0.02,0.35 -0.04,0.7 -0.04,1.28 z"
         style="font-style:normal;font-variant:normal;font-weight:normal;font-stretch:normal;font-size:10px;font-family:'Linux Biolinum O';-inkscape-font-specification:'Linux Biolinum O';fill:#000000"
         id="path3379" />
    </g>
    <g
       style="font-style:normal;font-weight:normal;font-size:40px;line-height:125%;font-family:Sans;letter-spacing:0px;word-spacing:0px;fill:#ff0000;fill-opacity:1;stroke:none"
       id="text12010-1-3-7">
      <path
         d="m 323.51863,386.8108 0,2.45 c 0,0.75 -0.02,1.46 -0.1,2 l 0.02,0.03 c 0.12,-0.02 0.39,-0.03 0.51,-0.03 0.12,0 0.39,0.01 0.51,0.03 l 0.02,-0.03 c -0.08,-0.57 -0.1,-1.25 -0.1,-2 l 0,-2.45 c 0,-0.17 0.01,-1.2 0.08,-1.44 1.34,0 2.02,0.14 2.02,0.14 l 0.02,-0.04 c -0.02,-0.15 -0.02,-0.38 0,-0.66 l -0.02,-0.03 c -0.16,0.02 -0.39,0.03 -0.6,0.03 l -3.86,0 c -0.21,0 -0.44,-0.01 -0.6,-0.03 l -0.02,0.03 c 0.02,0.28 0.02,0.51 0,0.66 l 0.02,0.04 c 0,0 0.68,-0.14 2.02,-0.14 0.07,0.24 0.08,1.27 0.08,1.44 z"
         style="font-style:normal;font-variant:normal;font-weight:normal;font-stretch:normal;font-size:10px;font-family:'Linux Biolinum O';-inkscape-font-specification:'Linux Biolinum O';fill:#000000"
         id="path3364" />
      <path
         d="m 326.39425,389.2108 c 0,1.2 0.79,2.15 2.12,2.15 1.32,0 2.12,-0.93 2.12,-2.24 0,-1.36 -0.73,-2.25 -2.08,-2.25 -1.31,0 -2.16,0.92 -2.16,2.34 z m 2.09,-1.94 c 1.06,0 1.27,0.82 1.27,2.03 0,0.96 -0.48,1.66 -1.15,1.66 -1.06,0 -1.33,-1.15 -1.33,-1.92 0,-0.87 0.27,-1.77 1.21,-1.77 z"
         style="font-style:normal;font-variant:normal;font-weight:normal;font-stretch:normal;font-size:10px;font-family:'Linux Biolinum O';-inkscape-font-specification:'Linux Biolinum O';fill:#000000"
         id="path3366" />
      <path
         d="m 332.63425,388.3208 c 0.22,-0.53 0.81,-0.99 1.2,-0.99 0.68,0 1.03,0.62 1.03,1.75 0,0.82 -0.23,1.88 -1.3,1.88 -0.16,0 -0.58,-0.04 -0.93,-0.45 l 0,-2.19 z m 0,-0.58 0,-0.73 c 0,-0.07 -0.02,-0.1 -0.06,-0.1 -0.23,0.05 -0.59,0.06 -0.81,0.03 l -0.02,0.03 c 0.07,0.44 0.09,1.19 0.09,1.94 l 0,2.67 c 0,0.75 -0.02,1.47 -0.09,2 l 0.02,0.03 c 0.12,-0.02 0.35,-0.03 0.47,-0.03 0.12,0 0.35,0.01 0.47,0.03 l 0.02,-0.03 c -0.08,-0.57 -0.09,-1.24 -0.09,-2 l 0,-0.44 c 0.26,0.14 0.63,0.22 0.99,0.22 1.32,0 2.12,-1 2.12,-2.41 0,-1.06 -0.62,-2.08 -1.74,-2.08 -0.39,0 -0.89,0.2 -1.35,0.9 l -0.02,-0.03 z"
         style="font-style:normal;font-variant:normal;font-weight:normal;font-stretch:normal;font-size:10px;font-family:'Linux Biolinum O';-inkscape-font-specification:'Linux Biolinum O';fill:#000000"
         id="path3368" />
    </g>
  </g>
</svg>
