<?xml version="1.0" encoding="UTF-8" standalone="no"?>
<!-- Created with Inkscape (http://www.inkscape.org/) -->

<svg
   xmlns:dc="http://purl.org/dc/elements/1.1/"
   xmlns:cc="http://creativecommons.org/ns#"
   xmlns:rdf="http://www.w3.org/1999/02/22-rdf-syntax-ns#"
   xmlns:svg="http://www.w3.org/2000/svg"
   xmlns="http://www.w3.org/2000/svg"
   xmlns:sodipodi="http://sodipodi.sourceforge.net/DTD/sodipodi-0.dtd"
   xmlns:inkscape="http://www.inkscape.org/namespaces/inkscape"
   width="800px"
   height="600px"
   id="svg4528"
   version="1.1"
   inkscape:version="0.91 r13725"
   sodipodi:docname="30-mirror-longitudinal-effect.svg">
  <defs
     id="defs4530">
    <marker
       inkscape:stockid="StopM"
       orient="auto"
       refY="0.0"
       refX="0.0"
       id="StopM"
       style="overflow:visible">
      <path
         id="path4237"
         d="M 0.0,5.65 L 0.0,-5.65"
         style="fill:none;fill-opacity:0.75000000;fill-rule:evenodd;stroke:#000000;stroke-width:1.0pt"
         transform="scale(0.4)" />
    </marker>
  </defs>
  <sodipodi:namedview
     id="base"
     pagecolor="#ffffff"
     bordercolor="#666666"
     borderopacity="1.0"
     inkscape:pageopacity="0.0"
     inkscape:pageshadow="2"
     inkscape:zoom="0.5"
     inkscape:cx="-20.583278"
     inkscape:cy="236.36361"
     inkscape:current-layer="layer1"
     inkscape:document-units="px"
     showgrid="false"
     showguides="true"
     inkscape:snap-midpoints="true"
     inkscape:window-width="1320"
     inkscape:window-height="644"
     inkscape:window-x="0"
     inkscape:window-y="59"
     inkscape:window-maximized="0"
     inkscape:guide-bbox="true">
    <inkscape:grid
       type="xygrid"
       id="grid5274" />
  </sodipodi:namedview>
  <metadata
     id="metadata4533">
    <rdf:RDF>
      <cc:Work
         rdf:about="">
        <dc:format>image/svg+xml</dc:format>
        <dc:type
           rdf:resource="http://purl.org/dc/dcmitype/StillImage" />
        <dc:title />
      </cc:Work>
    </rdf:RDF>
  </metadata>
  <g
     id="layer1"
     inkscape:label="Layer 1"
     inkscape:groupmode="layer">
    <path
       style="fill:none;stroke:#ff7f0e;stroke-width:2.50000000000000000;stroke-linecap:butt;stroke-linejoin:miter;stroke-miterlimit:4;stroke-opacity:1;stroke-dasharray:none"
       d="m 250.1378,247.59635 -57.78799,0"
       id="path5302-0"
       inkscape:connector-curvature="0" />
    <path
       style="fill:none;stroke:#ff7f0e;stroke-width:2.50000000000000000;stroke-linecap:butt;stroke-linejoin:miter;stroke-miterlimit:4;stroke-opacity:1;stroke-dasharray:2.50000000000000000, 2.50000000000000000;stroke-dashoffset:0"
       d="m 251.05896,375.31972 84.62959,-18.57451"
       id="path3023"
       inkscape:connector-curvature="0" />
    <path
       inkscape:connector-curvature="0"
       id="path5280"
       style="fill:none;stroke:#1f77b4;stroke-width:2.50000000000000000;stroke-linecap:butt;stroke-linejoin:miter;stroke-miterlimit:4;stroke-opacity:1;stroke-dasharray:none"
       d="m 405.11121,87.11121 0,508 m -154,-254 308,0 m -308,254 0,-508 308,0 0,508 z" />
    <path
       inkscape:connector-curvature="0"
       id="path5280-5"
       style="fill:none;stroke:#000000;stroke-width:2.5;stroke-linecap:butt;stroke-linejoin:miter;stroke-miterlimit:4;stroke-opacity:1;stroke-dasharray:2.5,5;stroke-dashoffset:0"
       d="M 297.76617,110.90903 512.45625,571.31339 M 265.53981,406.19442 544.68261,276.028 M 372.88485,636.3966 158.19477,175.99225 437.33757,45.82582 652.02765,506.23017 z" />
    <g
       style="font-style:normal;font-weight:normal;font-size:40px;line-height:125%;font-family:Sans;letter-spacing:0px;word-spacing:0px;fill:#000000;fill-opacity:1;stroke:none"
       id="text5957">
      <path
         d="m 331.62257,321.64026 -6.944,0 c 0.028,-3.612 1.036,-8.232 3.388,-8.232 2.072,0 3.528,3.864 3.556,8.232 z m 0,1.232 c -0.028,4.06 -1.26,8.148 -3.416,8.148 -2.156,0 -3.5,-4.116 -3.528,-8.148 l 6.944,0 z m -9.268,-0.644 c 0,7.616 3.304,9.912 5.712,9.912 2.24,0 5.88,-2.24 5.88,-9.912 0,-7.42 -3.472,-9.912 -5.712,-9.912 -2.744,0 -5.88,3.192 -5.88,9.912 z"
         style="font-style:normal;font-variant:normal;font-weight:normal;font-stretch:normal;font-size:28px;font-family:'Linux Biolinum O';-inkscape-font-specification:'Linux Biolinum O'"
         id="path3368" />
    </g>
    <path
       transform="matrix(0,-1.3484406,1.3484406,0,-23.692914,856.2155)"
       style="fill:none;stroke:#ff7f0e;stroke-width:1.85399342;stroke-linecap:butt;stroke-miterlimit:4;stroke-dasharray:none;stroke-dashoffset:0;stroke-opacity:1"
       d="M 359.83422,270.42171 A 52.488239,52.488239 0 0 1 382,265.51176 L 382,318 Z"
       id="path5969" />
    <path
       style="fill:none;stroke:#000000;stroke-width:2.50000000000000000;stroke-linecap:butt;stroke-linejoin:miter;stroke-miterlimit:4;stroke-opacity:1;stroke-dasharray:none;marker-start:url(#StopM);marker-end:url(#StopM)"
       d="m 251.07996,36.61121 308.0625,0"
       id="path5971"
       inkscape:connector-curvature="0" />
    <g
       style="font-style:normal;font-weight:normal;font-size:40px;line-height:125%;font-family:Sans;letter-spacing:0px;word-spacing:0px;fill:#000000;fill-opacity:1;stroke:none"
       id="text6913">
      <path
         d="m 406.83151,19.876897 c -1.036,1.316 -2.324,1.988 -3.444,1.988 -1.512,0 -2.8,-1.512 -2.8,-5.012 0,-4.2 2.212,-4.984 3.584,-4.984 1.316,0 1.988,0.56 2.66,1.624 l 0,6.384 z m 0,1.54 0.056,0 0.14,1.624 c 0,0.056 0.084,0.084 0.252,0.084 0.364,-0.028 0.56,-0.084 0.952,-0.084 0.364,0 0.896,0.028 1.26,0.084 l 0.056,-0.084 c -0.224,-1.204 -0.476,-3.276 -0.476,-5.376 l 0,-8.6239996 c 0,-2.072 0.112,-3.528 0.252,-5.264 0,-0.196 -0.084,-0.28 -0.252,-0.28 -0.728,0.28 -1.316,0.476 -2.436,0.56 l -0.056,0.084 c 0.196,1.204 0.252,3.276 0.252,5.404 l 0,1.8199996 c -0.644,-0.364 -1.792,-0.616 -2.352,-0.616 -3.668,0 -6.328,2.52 -6.328,6.328 0,3.444 2.044,6.244 5.068,6.244 1.344,0 2.604,-0.588 3.612,-1.904 z"
         style="font-style:normal;font-variant:normal;font-weight:normal;font-stretch:normal;font-size:28px;font-family:'Linux Biolinum O';-inkscape-font-specification:'Linux Biolinum O'"
         id="path3364" />
    </g>
    <path
       style="fill:none;stroke:#000000;stroke-width:2.50000000000000000;stroke-linecap:butt;stroke-linejoin:miter;stroke-miterlimit:4;stroke-opacity:1;stroke-dasharray:none;marker-start:url(#StopM);marker-end:url(#StopM)"
       d="m 141.11121,249.06768 0,88.04353"
       id="path5971-2"
       inkscape:connector-curvature="0" />
    <g
       style="font-style:normal;font-weight:normal;font-size:40px;line-height:125%;font-family:Sans;letter-spacing:0px;word-spacing:0px;fill:#000000;fill-opacity:1;stroke:none"
       id="text6913-7">
      <path
         d="m 92.801578,285.72083 c 1.092,2.492 4.424,9.716 5.432,12.376 -0.896,2.1 -2.044,4.256 -3.304,6.356 0.28,-0.084 0.7,-0.14 0.98,-0.14 0.28,0 1.092,0.056 1.372,0.14 1.064,-3.5 7.196002,-16.856 8.120002,-18.732 -0.28,0.084 -0.924,0.084 -1.204,0.084 -0.28,0 -0.812,0 -1.092,-0.084 -1.008,3.164 -2.324,6.748 -3.696002,9.66 l -0.056,0 c -1.372,-3.332 -2.688,-6.44 -3.724,-9.66 -0.364,0.084 -0.98,0.084 -1.372,0.084 -0.364,0 -1.064,0 -1.456,-0.084 z"
         style="font-style:normal;font-variant:normal;font-weight:normal;font-stretch:normal;font-size:28px;font-family:'Linux Biolinum O';-inkscape-font-specification:'Linux Biolinum O'"
         id="path3361" />
    </g>
    <path
       inkscape:connector-curvature="0"
       id="path5280-3"
       style="fill:none;stroke:#000000;stroke-width:2.5;stroke-linecap:butt;stroke-linejoin:miter;stroke-miterlimit:4;stroke-opacity:1;stroke-dasharray:5, 2.5;stroke-dashoffset:0"
       d="m 391.11121,87.11121 0,508 m -154,-254 308,0 m -308,254 0,-508 308,0 0,508 z" />
    <path
       style="fill:none;stroke:#000000;stroke-width:2.5;stroke-linecap:butt;stroke-linejoin:miter;stroke-miterlimit:4;stroke-opacity:1;stroke-dasharray:none;marker-start:url(#StopM);marker-end:url(#StopM)"
       d="m 207.11121,341.11121 0,36.0369"
       id="path5971-2-4"
       inkscape:connector-curvature="0" />
    <g
       style="font-style:normal;font-weight:normal;font-size:40px;line-height:125%;font-family:Sans;letter-spacing:0px;word-spacing:0px;fill:#000000;fill-opacity:1;stroke:none"
       id="text6913-7-0">
      <path
         d="m 158.78431,350.58869 c 1.092,2.492 4.424,9.716 5.432,12.376 -0.896,2.1 -2.044,4.256 -3.304,6.356 0.28,-0.084 0.7,-0.14 0.98,-0.14 0.28,0 1.092,0.056 1.372,0.14 1.064,-3.5 7.196,-16.856 8.12,-18.732 -0.28,0.084 -0.924,0.084 -1.204,0.084 -0.28,0 -0.812,0 -1.092,-0.084 -1.008,3.164 -2.324,6.748 -3.696,9.66 l -0.056,0 c -1.372,-3.332 -2.688,-6.44 -3.724,-9.66 -0.364,0.084 -0.98,0.084 -1.372,0.084 -0.364,0 -1.064,0 -1.456,-0.084 z"
         style="font-style:normal;font-variant:normal;font-weight:normal;font-stretch:normal;font-size:28px;font-family:'Linux Biolinum O';-inkscape-font-specification:'Linux Biolinum O'"
         id="path3356" />
      <path
         d="m 178.73457,366.22809 c -0.6734,0.8554 -1.5106,1.2922 -2.2386,1.2922 -0.9828,0 -1.82,-0.9828 -1.82,-3.2578 0,-2.73 1.4378,-3.2396 2.3296,-3.2396 0.8554,0 1.2922,0.364 1.729,1.0556 l 0,4.1496 z m 0,1.001 0.0364,0 0.091,1.0556 c 0,0.0364 0.0546,0.0546 0.1638,0.0546 0.2366,-0.0182 0.364,-0.0546 0.6188,-0.0546 0.2366,0 0.5824,0.0182 0.819,0.0546 l 0.0364,-0.0546 c -0.1456,-0.7826 -0.3094,-2.1294 -0.3094,-3.4944 l 0,-5.6056 c 0,-1.3468 0.0728,-2.2932 0.1638,-3.4216 0,-0.1274 -0.0546,-0.182 -0.1638,-0.182 -0.4732,0.182 -0.8554,0.3094 -1.5834,0.364 l -0.0364,0.0546 c 0.1274,0.7826 0.1638,2.1294 0.1638,3.5126 l 0,1.183 c -0.4186,-0.2366 -1.1648,-0.4004 -1.5288,-0.4004 -2.3842,0 -4.1132,1.638 -4.1132,4.1132 0,2.2386 1.3286,4.0586 3.2942,4.0586 0.8736,0 1.6926,-0.3822 2.3478,-1.2376 z"
         style="font-style:normal;font-variant:normal;font-weight:normal;font-stretch:normal;font-size:64.99999762%;font-family:'Linux Biolinum O';-inkscape-font-specification:'Linux Biolinum O';baseline-shift:sub"
         id="path3358" />
    </g>
    <path
       style="fill:none;stroke:#000000;stroke-width:1.5;stroke-linecap:round;stroke-linejoin:miter;stroke-miterlimit:4;stroke-opacity:1;stroke-dasharray:none"
       d="m 341.53257,328.36027 c 11.69259,9.65667 12.75325,23.0917 12.75325,23.0917"
       id="path3859"
       inkscape:connector-curvature="0" />
  </g>
</svg>
