<?xml version="1.0" encoding="UTF-8" standalone="no"?>
<!-- Created with Inkscape (http://www.inkscape.org/) -->

<svg
   xmlns:dc="http://purl.org/dc/elements/1.1/"
   xmlns:cc="http://creativecommons.org/ns#"
   xmlns:rdf="http://www.w3.org/1999/02/22-rdf-syntax-ns#"
   xmlns:svg="http://www.w3.org/2000/svg"
   xmlns="http://www.w3.org/2000/svg"
   xmlns:sodipodi="http://sodipodi.sourceforge.net/DTD/sodipodi-0.dtd"
   xmlns:inkscape="http://www.inkscape.org/namespaces/inkscape"
   width="744.09448819"
   height="1052.3622047"
   id="svg2"
   version="1.1"
   inkscape:version="0.91 r13725"
   sodipodi:docname="AB-control-loop.svg">
  <defs
     id="defs4">
    <marker
       inkscape:stockid="Arrow2Sstart"
       orient="auto"
       refY="0.0"
       refX="0.0"
       id="Arrow2Sstart"
       style="overflow:visible">
      <path
         id="path3857"
         style="fill-rule:evenodd;stroke-width:0.62500000;stroke-linejoin:round"
         d="M 8.7185878,4.0337352 L -2.2072895,0.016013256 L 8.7185884,-4.0017078 C 6.9730900,-1.6296469 6.9831476,1.6157441 8.7185878,4.0337352 z "
         transform="scale(0.3) translate(-2.3,0)" />
    </marker>
    <marker
       inkscape:stockid="Arrow2Mend"
       orient="auto"
       refY="0.0"
       refX="0.0"
       id="Arrow2Mend"
       style="overflow:visible;">
      <path
         id="path3854"
         style="fill-rule:evenodd;stroke-width:0.62500000;stroke-linejoin:round;"
         d="M 8.7185878,4.0337352 L -2.2072895,0.016013256 L 8.7185884,-4.0017078 C 6.9730900,-1.6296469 6.9831476,1.6157441 8.7185878,4.0337352 z "
         transform="scale(0.6) rotate(180) translate(0,0)" />
    </marker>
    <marker
       inkscape:stockid="Arrow2Sstart"
       orient="auto"
       refY="0"
       refX="0"
       id="Arrow2Sstart-6"
       style="overflow:visible">
      <path
         inkscape:connector-curvature="0"
         id="path3857-5"
         style="fill-rule:evenodd;stroke-width:0.625;stroke-linejoin:round"
         d="M 8.7185878,4.0337352 -2.2072895,0.01601326 8.7185884,-4.0017078 c -1.7454984,2.3720609 -1.7354408,5.6174519 -6e-7,8.035443 z"
         transform="matrix(0.3,0,0,0.3,-0.69,0)" />
    </marker>
    <marker
       inkscape:stockid="Arrow2Sstart"
       orient="auto"
       refY="0"
       refX="0"
       id="Arrow2Sstart-2"
       style="overflow:visible">
      <path
         inkscape:connector-curvature="0"
         id="path3857-6"
         style="fill-rule:evenodd;stroke-width:0.625;stroke-linejoin:round"
         d="M 8.7185878,4.0337352 -2.2072895,0.01601326 8.7185884,-4.0017078 c -1.7454984,2.3720609 -1.7354408,5.6174519 -6e-7,8.035443 z"
         transform="matrix(0.3,0,0,0.3,-0.69,0)" />
    </marker>
    <marker
       inkscape:stockid="Arrow2Sstart"
       orient="auto"
       refY="0"
       refX="0"
       id="Arrow2Sstart-3"
       style="overflow:visible">
      <path
         inkscape:connector-curvature="0"
         id="path3857-55"
         style="fill-rule:evenodd;stroke-width:0.625;stroke-linejoin:round"
         d="M 8.7185878,4.0337352 -2.2072895,0.01601326 8.7185884,-4.0017078 c -1.7454984,2.3720609 -1.7354408,5.6174519 -6e-7,8.035443 z"
         transform="matrix(0.3,0,0,0.3,-0.69,0)" />
    </marker>
    <marker
       inkscape:stockid="Arrow2Sstart"
       orient="auto"
       refY="0"
       refX="0"
       id="Arrow2Sstart-0"
       style="overflow:visible">
      <path
         inkscape:connector-curvature="0"
         id="path3857-7"
         style="fill-rule:evenodd;stroke-width:0.625;stroke-linejoin:round"
         d="M 8.7185878,4.0337352 -2.2072895,0.01601326 8.7185884,-4.0017078 c -1.7454984,2.3720609 -1.7354408,5.6174519 -6e-7,8.035443 z"
         transform="matrix(0.3,0,0,0.3,-0.69,0)" />
    </marker>
    <marker
       inkscape:stockid="Arrow2Sstart"
       orient="auto"
       refY="0"
       refX="0"
       id="marker5342"
       style="overflow:visible">
      <path
         inkscape:connector-curvature="0"
         id="path5344"
         style="fill-rule:evenodd;stroke-width:0.625;stroke-linejoin:round"
         d="M 8.7185878,4.0337352 -2.2072895,0.01601326 8.7185884,-4.0017078 c -1.7454984,2.3720609 -1.7354408,5.6174519 -6e-7,8.035443 z"
         transform="matrix(0.3,0,0,0.3,-0.69,0)" />
    </marker>
    <marker
       inkscape:stockid="Arrow2Sstart"
       orient="auto"
       refY="0"
       refX="0"
       id="marker5346"
       style="overflow:visible">
      <path
         inkscape:connector-curvature="0"
         id="path5348"
         style="fill-rule:evenodd;stroke-width:0.625;stroke-linejoin:round"
         d="M 8.7185878,4.0337352 -2.2072895,0.01601326 8.7185884,-4.0017078 c -1.7454984,2.3720609 -1.7354408,5.6174519 -6e-7,8.035443 z"
         transform="matrix(0.3,0,0,0.3,-0.69,0)" />
    </marker>
    <marker
       inkscape:stockid="Arrow2Sstart"
       orient="auto"
       refY="0"
       refX="0"
       id="marker5350"
       style="overflow:visible">
      <path
         inkscape:connector-curvature="0"
         id="path5352"
         style="fill-rule:evenodd;stroke-width:0.625;stroke-linejoin:round"
         d="M 8.7185878,4.0337352 -2.2072895,0.01601326 8.7185884,-4.0017078 c -1.7454984,2.3720609 -1.7354408,5.6174519 -6e-7,8.035443 z"
         transform="matrix(0.3,0,0,0.3,-0.69,0)" />
    </marker>
    <marker
       inkscape:stockid="Arrow2Sstart"
       orient="auto"
       refY="0"
       refX="0"
       id="Arrow2Sstart-8"
       style="overflow:visible">
      <path
         inkscape:connector-curvature="0"
         id="path3857-2"
         style="fill-rule:evenodd;stroke-width:0.625;stroke-linejoin:round"
         d="M 8.7185878,4.0337352 -2.2072895,0.01601326 8.7185884,-4.0017078 c -1.7454984,2.3720609 -1.7354408,5.6174519 -6e-7,8.035443 z"
         transform="matrix(0.3,0,0,0.3,-0.69,0)" />
    </marker>
    <marker
       style="overflow:visible"
       id="marker13265"
       refX="0"
       refY="0"
       orient="auto"
       inkscape:stockid="Arrow2Send">
      <path
         transform="matrix(-0.3,0,0,-0.3,0.69,0)"
         d="M 8.7185878,4.0337352 -2.2072895,0.01601326 8.7185884,-4.0017078 c -1.7454984,2.3720609 -1.7354408,5.6174519 -6e-7,8.035443 z"
         style="fill-rule:evenodd;stroke-width:0.625;stroke-linejoin:round"
         id="path13267"
         inkscape:connector-curvature="0" />
    </marker>
    <marker
       style="overflow:visible"
       id="marker13265-2"
       refX="0"
       refY="0"
       orient="auto"
       inkscape:stockid="Arrow2Send">
      <path
         transform="matrix(-0.3,0,0,-0.3,0.69,0)"
         d="M 8.7185878,4.0337352 -2.2072895,0.01601326 8.7185884,-4.0017078 c -1.7454984,2.3720609 -1.7354408,5.6174519 -6e-7,8.035443 z"
         style="fill-rule:evenodd;stroke-width:0.625;stroke-linejoin:round"
         id="path13267-3"
         inkscape:connector-curvature="0" />
    </marker>
    <marker
       style="overflow:visible"
       id="Arrow2SstartI-58"
       refX="0"
       refY="0"
       orient="auto"
       inkscape:stockid="Arrow2SstartI">
      <path
         inkscape:connector-curvature="0"
         transform="matrix(0.3,0,0,0.3,-0.69,0)"
         d="M 8.7185878,4.0337352 -2.2072895,0.01601326 8.7185884,-4.0017078 c -1.7454984,2.3720609 -1.7354408,5.6174519 -6e-7,8.035443 z"
         style="fill:#ffaa00;fill-rule:evenodd;stroke:#ffaa00;stroke-width:0.625;stroke-linejoin:round"
         id="path6731-24" />
    </marker>
    <marker
       style="overflow:visible"
       id="marker13265-7"
       refX="0"
       refY="0"
       orient="auto"
       inkscape:stockid="Arrow2Send">
      <path
         transform="matrix(-0.3,0,0,-0.3,0.69,0)"
         d="M 8.7185878,4.0337352 -2.2072895,0.01601326 8.7185884,-4.0017078 c -1.7454984,2.3720609 -1.7354408,5.6174519 -6e-7,8.035443 z"
         style="fill-rule:evenodd;stroke-width:0.625;stroke-linejoin:round"
         id="path13267-1"
         inkscape:connector-curvature="0" />
    </marker>
    <marker
       style="overflow:visible"
       id="Arrow2SstartI-58-2"
       refX="0"
       refY="0"
       orient="auto"
       inkscape:stockid="Arrow2SstartI">
      <path
         inkscape:connector-curvature="0"
         transform="matrix(0.3,0,0,0.3,-0.69,0)"
         d="M 8.7185878,4.0337352 -2.2072895,0.01601326 8.7185884,-4.0017078 c -1.7454984,2.3720609 -1.7354408,5.6174519 -6e-7,8.035443 z"
         style="fill:#ffaa00;fill-rule:evenodd;stroke:#ffaa00;stroke-width:0.625;stroke-linejoin:round"
         id="path6731-24-0" />
    </marker>
    <marker
       inkscape:stockid="Arrow2Sstart"
       orient="auto"
       refY="0"
       refX="0"
       id="Arrow2Sstart-4"
       style="overflow:visible">
      <path
         inkscape:connector-curvature="0"
         id="path3857-3"
         style="fill-rule:evenodd;stroke-width:0.625;stroke-linejoin:round"
         d="M 8.7185878,4.0337352 -2.2072895,0.01601326 8.7185884,-4.0017078 c -1.7454984,2.3720609 -1.7354408,5.6174519 -6e-7,8.035443 z"
         transform="matrix(0.3,0,0,0.3,-0.69,0)" />
    </marker>
    <marker
       inkscape:stockid="Arrow2Sstart"
       orient="auto"
       refY="0"
       refX="0"
       id="Arrow2Sstart-46"
       style="overflow:visible">
      <path
         inkscape:connector-curvature="0"
         id="path3857-4"
         style="fill-rule:evenodd;stroke-width:0.625;stroke-linejoin:round"
         d="M 8.7185878,4.0337352 -2.2072895,0.01601326 8.7185884,-4.0017078 c -1.7454984,2.3720609 -1.7354408,5.6174519 -6e-7,8.035443 z"
         transform="matrix(0.3,0,0,0.3,-0.69,0)" />
    </marker>
  </defs>
  <sodipodi:namedview
     id="base"
     pagecolor="#ffffff"
     bordercolor="#666666"
     borderopacity="1.0"
     inkscape:pageopacity="0.0"
     inkscape:pageshadow="2"
     inkscape:zoom="0.9899495"
     inkscape:cx="159.14822"
     inkscape:cy="342.54558"
     inkscape:document-units="px"
     inkscape:current-layer="layer1"
     showgrid="true"
     inkscape:window-width="1920"
     inkscape:window-height="1015"
     inkscape:window-x="0"
     inkscape:window-y="0"
     inkscape:window-maximized="1"
     inkscape:snap-nodes="false">
    <inkscape:grid
       type="xygrid"
       id="grid11127" />
  </sodipodi:namedview>
  <metadata
     id="metadata7">
    <rdf:RDF>
      <cc:Work
         rdf:about="">
        <dc:format>image/svg+xml</dc:format>
        <dc:type
           rdf:resource="http://purl.org/dc/dcmitype/StillImage" />
        <dc:title />
      </cc:Work>
    </rdf:RDF>
  </metadata>
  <g
     inkscape:label="Layer 1"
     inkscape:groupmode="layer"
     id="layer1">
    <g
       id="g3942">
      <path
         sodipodi:nodetypes="cccccc"
         inkscape:connector-curvature="0"
         id="rect2985-8-46-3-88"
         d="m 336.0038,777.77825 0,-47.99099 97.03241,0 0,95.98199 -97.03241,0 0,-47.991"
         style="fill:#ff7f0e;fill-opacity:0.80000001;stroke:none" />
      <g
         style="font-style:normal;font-variant:normal;font-weight:normal;font-stretch:normal;font-size:40px;line-height:125%;font-family:'Linux Biolinum O';-inkscape-font-specification:'Linux Biolinum O';letter-spacing:0px;word-spacing:0px;fill:#000000;fill-opacity:1;stroke:none"
         id="text7745-5-8-4-24">
        <path
           d="m 391.44,772.87828 0,3.2 -13.84,0 0,-3.2 c 0,-3 0.08,-5.88 0.4,-8 l -0.04,-0.12 c -0.48,0.08 -1.6,0.12 -2.08,0.12 -0.48,0 -1.56,-0.04 -2.04,-0.12 l -0.08,0.12 c 0.32,2.28 0.4,5 0.4,8 l 0,9.8 c 0,3 -0.08,5.84 -0.4,8 l 0.04,0.12 c 0.48,-0.08 1.6,-0.12 2.08,-0.12 0.48,0 1.56,0.04 2.04,0.12 l 0.08,-0.12 c -0.32,-2.28 -0.4,-5 -0.4,-8 l 0,-4.84 13.84,0 0,4.84 c 0,3 -0.08,5.84 -0.4,8 l 0.04,0.12 c 0.48,-0.08 1.6,-0.12 2.08,-0.12 0.48,0 1.56,0.04 2.04,0.12 l 0.08,-0.12 c -0.32,-2.28 -0.4,-5 -0.4,-8 l 0,-9.8 c 0,-3 0.08,-5.88 0.4,-8 l -0.04,-0.12 c -0.48,0.08 -1.6,0.12 -2.08,0.12 -0.48,0 -1.56,-0.04 -2.04,-0.12 l -0.08,0.12 c 0.32,2.28 0.4,5 0.4,8 z"
           style=""
           id="path3602" />
      </g>
    </g>
    <g
       id="g3947">
      <path
         sodipodi:nodetypes="cccccc"
         inkscape:connector-curvature="0"
         id="rect2985-8-46-1"
         d="m 336.0038,602.88988 0,-47.99099 97.03241,0 0,95.98199 -97.03241,0 0,-47.991"
         style="fill:#1f77b4;fill-opacity:0.80000001;stroke:none" />
      <g
         style="font-style:normal;font-variant:normal;font-weight:normal;font-stretch:normal;font-size:40px;line-height:125%;font-family:'Linux Biolinum O';-inkscape-font-specification:'Linux Biolinum O';letter-spacing:0px;word-spacing:0px;fill:#000000;fill-opacity:1;stroke:none"
         id="text7745-5-8-47">
        <path
           d="m 392.47998,611.16991 0,1.8 c -1.36,1.28 -3.72,1.52 -5.88,1.52 -7.12,0 -9.76,-6.44 -9.76,-11.72 0,-7 3.88,-11.48 9.28,-11.48 3.6,0 6.68,2 8.48,5.04 l 0.48,-0.04 c 0.12,-2.04 0.36,-3.12 0.8,-4.64 l -0.08,-0.12 c 0,0 -4.24,-2 -9.12,-2 -6.88,0 -13.96,4.84 -13.96,13.64 0,6.92 4.92,13.08 12.96,13.08 4.64,0 7.92,-1.32 10.64,-3.6 l 0,-0.12 c -0.36,-0.4 -0.4,-1.48 -0.4,-1.92 l 0,-0.24 c 0,-3 0.08,-4.68 0.4,-6.8 l -0.04,-0.12 c 0,0 -0.68,0.12 -2.08,0.12 -1.36,0 -2.04,-0.12 -2.04,-0.12 l -0.08,0.12 c 0.32,2.28 0.4,4.6 0.4,7.6 z"
           style="font-style:normal;font-variant:normal;font-weight:normal;font-stretch:normal;font-family:'Linux Biolinum O';-inkscape-font-specification:'Linux Biolinum O'"
           id="path3605" />
      </g>
    </g>
    <path
       inkscape:export-ydpi="90"
       inkscape:export-xdpi="90"
       inkscape:export-filename="/home/sean/Desktop/Speedmeter Control Loop.png"
       sodipodi:nodetypes="cccc"
       inkscape:connector-curvature="0"
       id="path3821-3-5-7-6-0"
       d="m 336.01078,777.72235 -115.83421,-0.024 -0.01,-174.895 111.66474,0"
       style="fill:none;stroke:#000000;stroke-width:2.99999952;stroke-linecap:butt;stroke-linejoin:miter;stroke-miterlimit:4;stroke-opacity:1;stroke-dasharray:none;marker-start:none;marker-end:url(#marker13265)" />
    <path
       inkscape:export-ydpi="90"
       inkscape:export-xdpi="90"
       inkscape:export-filename="/tmp/ssm.png"
       sodipodi:nodetypes="cccccc"
       inkscape:connector-curvature="0"
       id="path3821-3-5-7-67-0-67-2-3-8"
       d="m 276.54004,770.45991 -0.0249,-3.33906 c 0,-4.68454 1.09443,-4.91416 1.09443,-4.91416 10.23901,-5.43608 0,-11.14664 0,-11.14664 -9.76279,-5.18324 0,-11.14664 0,-11.14664 10.52033,-5.58543 0,-11.14663 0,-11.14663"
       style="fill:none;stroke:#ffaa00;stroke-width:3;stroke-linecap:round;stroke-linejoin:miter;stroke-miterlimit:4;stroke-dasharray:none;stroke-opacity:1;marker-start:url(#Arrow2SstartI-58)" />
    <path
       inkscape:export-ydpi="90"
       inkscape:export-xdpi="90"
       inkscape:export-filename="/home/sean/Desktop/Speedmeter Control Loop.png"
       sodipodi:nodetypes="cccc"
       inkscape:connector-curvature="0"
       id="path3821-3-5-7-6-0-2"
       d="m 433.12427,602.788 115.83421,0.024 0.01,174.895 -111.66474,0"
       style="fill:none;stroke:#000000;stroke-width:2.99999952;stroke-linecap:butt;stroke-linejoin:miter;stroke-miterlimit:4;stroke-opacity:1;stroke-dasharray:none;marker-start:none;marker-end:url(#marker13265)" />
    <path
       inkscape:export-ydpi="90"
       inkscape:export-xdpi="90"
       inkscape:export-filename="/tmp/ssm.png"
       sodipodi:nodetypes="cccccc"
       inkscape:connector-curvature="0"
       id="path3821-3-5-7-67-0-67-2-3-8-0"
       d="m 492.9496,770.45991 -0.0249,-3.33906 c 0,-4.68454 1.09443,-4.91416 1.09443,-4.91416 10.23901,-5.43608 0,-11.14664 0,-11.14664 -9.76279,-5.18324 0,-11.14664 0,-11.14664 10.52033,-5.58543 0,-11.14663 0,-11.14663"
       style="fill:none;stroke:#ffaa00;stroke-width:3;stroke-linecap:round;stroke-linejoin:miter;stroke-miterlimit:4;stroke-dasharray:none;stroke-opacity:1;marker-start:url(#Arrow2SstartI-58)" />
    <g
       style="font-style:normal;font-weight:normal;font-size:22px;line-height:125%;font-family:'Linux Biolinum O';-inkscape-font-specification:'Linux Biolinum O';text-align:center;letter-spacing:0px;word-spacing:0px;text-anchor:middle;fill:#000000;fill-opacity:1;stroke:none"
       id="text4702-6-1-0-7">
      <path
         d="m 243.18136,674.86798 -5.72,0 c -0.748,0 -1.122,-0.066 -1.122,-0.066 l -0.044,0.066 c 0.176,1.254 0.22,2.75 0.22,4.4 l 0,5.39 c 0,1.65 -0.044,3.212 -0.22,4.4 l 0.022,0.066 c 0,0 0.374,-0.066 1.144,-0.066 0.748,0 1.122,0.066 1.122,0.066 l 0.044,-0.066 c -0.176,-1.254 -0.22,-2.75 -0.22,-4.4 l 0,-2.574 c 1.056,0 3.388,0.066 4.906,0.22 l 0.066,-0.066 c -0.044,-0.198 -0.066,-0.506 -0.066,-0.704 0,-0.198 0.022,-0.506 0.066,-0.704 l -0.066,-0.066 c -1.298,0.11 -2.31,0.22 -4.906,0.22 l 0,-1.716 c 0,-0.374 0.022,-2.64 0.176,-3.168 2.948,0 5.984,0.264 5.984,0.264 l 0.044,-0.088 c -0.022,-0.176 -0.044,-0.462 -0.044,-0.66 0,-0.176 0.022,-0.44 0.044,-0.748 l -0.044,-0.066 c -0.352,0.044 -0.858,0.066 -1.386,0.066 z"
         style="font-style:normal;font-variant:normal;font-weight:normal;font-stretch:normal;font-size:22px;font-family:'Linux Biolinum O';-inkscape-font-specification:'Linux Biolinum O'"
         id="path3512" />
      <path
         d="m 248.06329,683.05198 c 0.374,-2.288 1.804,-2.772 2.508,-2.772 0.858,0 1.848,0.814 1.848,2.464 0,0.198 -0.088,0.308 -0.308,0.308 l -4.048,0 z m 5.874,3.718 c -0.77,0.836 -1.804,1.21 -3.014,1.21 -0.77,0 -1.804,-0.286 -2.398,-1.254 -0.396,-0.616 -0.528,-1.496 -0.528,-2.794 l 5.984,0 c 0.242,0 0.396,-0.132 0.396,-0.374 0,-1.848 -0.902,-4.158 -3.806,-4.158 -2.266,0 -4.51,1.826 -4.51,5.06 0,1.254 0.242,2.486 0.99,3.366 0.748,0.924 2.002,1.452 3.498,1.452 1.584,0 2.992,-0.814 3.828,-1.958 l -0.44,-0.55 z"
         style="font-style:normal;font-variant:normal;font-weight:normal;font-stretch:normal;font-size:22px;font-family:'Linux Biolinum O';-inkscape-font-specification:'Linux Biolinum O'"
         id="path3514" />
      <path
         d="m 258.20392,683.05198 c 0.374,-2.288 1.804,-2.772 2.508,-2.772 0.858,0 1.848,0.814 1.848,2.464 0,0.198 -0.088,0.308 -0.308,0.308 l -4.048,0 z m 5.874,3.718 c -0.77,0.836 -1.804,1.21 -3.014,1.21 -0.77,0 -1.804,-0.286 -2.398,-1.254 -0.396,-0.616 -0.528,-1.496 -0.528,-2.794 l 5.984,0 c 0.242,0 0.396,-0.132 0.396,-0.374 0,-1.848 -0.902,-4.158 -3.806,-4.158 -2.266,0 -4.51,1.826 -4.51,5.06 0,1.254 0.242,2.486 0.99,3.366 0.748,0.924 2.002,1.452 3.498,1.452 1.584,0 2.992,-0.814 3.828,-1.958 l -0.44,-0.55 z"
         style="font-style:normal;font-variant:normal;font-weight:normal;font-stretch:normal;font-size:22px;font-family:'Linux Biolinum O';-inkscape-font-specification:'Linux Biolinum O'"
         id="path3516" />
      <path
         d="m 273.53654,686.57198 c -0.814,1.034 -1.826,1.562 -2.706,1.562 -1.188,0 -2.2,-1.188 -2.2,-3.938 0,-3.3 1.738,-3.916 2.816,-3.916 1.034,0 1.562,0.44 2.09,1.276 l 0,5.016 z m 0,1.21 0.044,0 0.11,1.276 c 0,0.044 0.066,0.066 0.198,0.066 0.286,-0.022 0.44,-0.066 0.748,-0.066 0.286,0 0.704,0.022 0.99,0.066 l 0.044,-0.066 c -0.176,-0.946 -0.374,-2.574 -0.374,-4.224 l 0,-6.776 c 0,-1.628 0.088,-2.772 0.198,-4.136 0,-0.154 -0.066,-0.22 -0.198,-0.22 -0.572,0.22 -1.034,0.374 -1.914,0.44 l -0.044,0.066 c 0.154,0.946 0.198,2.574 0.198,4.246 l 0,1.43 c -0.506,-0.286 -1.408,-0.484 -1.848,-0.484 -2.882,0 -4.972,1.98 -4.972,4.972 0,2.706 1.606,4.906 3.982,4.906 1.056,0 2.046,-0.462 2.838,-1.496 z"
         style="font-style:normal;font-variant:normal;font-weight:normal;font-stretch:normal;font-size:22px;font-family:'Linux Biolinum O';-inkscape-font-specification:'Linux Biolinum O'"
         id="path3518" />
      <path
         d="m 280.80307,687.27598 0,-5.698 c 0.858,-0.88 1.408,-1.298 2.31,-1.298 1.342,0 2.53,1.122 2.53,3.85 0,2.728 -0.814,4.268 -2.904,4.268 -0.682,0 -1.496,-0.572 -1.936,-1.122 z m 0,-9.218 c 0,-1.628 0.022,-2.772 0.132,-4.136 0,-0.154 -0.066,-0.22 -0.198,-0.22 -0.572,0.22 -1.034,0.374 -1.914,0.44 l -0.044,0.066 c 0.154,0.946 0.264,2.574 0.264,4.246 l 0,8.998 c 0,0.858 -0.022,1.188 -0.11,1.65 0.132,0.132 0.374,0.176 0.616,0.176 0.242,-0.264 0.484,-0.638 0.726,-1.078 0.638,0.55 1.65,1.078 2.596,1.078 2.244,0 4.73,-1.584 4.73,-5.324 0,-2.684 -1.914,-4.554 -4.048,-4.554 -1.056,0 -2.002,0.286 -2.75,1.1 l 0,-2.442 z"
         style="font-style:normal;font-variant:normal;font-weight:normal;font-stretch:normal;font-size:22px;font-family:'Linux Biolinum O';-inkscape-font-specification:'Linux Biolinum O'"
         id="path3520" />
      <path
         d="m 295.14501,684.10798 -0.088,2.618 c 0,0.286 -0.132,0.44 -0.308,0.572 -0.616,0.462 -1.364,0.858 -2.024,0.858 -0.99,0 -1.628,-0.66 -1.628,-1.342 0,-0.99 0.462,-1.738 2.178,-2.2 l 1.87,-0.506 z m 0,3.894 c 0.242,0.88 0.902,1.276 1.716,1.276 0.55,0 1.232,-0.132 1.738,-0.682 l -0.154,-0.528 c -0.242,0.088 -0.44,0.11 -0.594,0.11 -0.22,0 -0.506,-0.044 -0.66,-0.176 -0.22,-0.198 -0.352,-0.726 -0.352,-1.716 0,-0.638 0.066,-3.08 0.066,-3.322 0,-2.97 -1.958,-3.564 -3.63,-3.564 -1.672,0 -2.684,0.814 -3.234,1.276 l -0.066,0.088 0.374,1.474 0.286,0.022 c 0.616,-0.99 1.364,-1.87 2.42,-1.87 0.792,0 2.112,0.11 2.112,2.596 0,0.154 -0.088,0.242 -0.154,0.264 l -2.046,0.462 c -2.244,0.506 -3.652,1.694 -3.652,3.19 0,1.628 1.122,2.376 2.75,2.376 1.21,0 1.826,-0.286 2.992,-1.276 l 0.088,0 z"
         style="font-style:normal;font-variant:normal;font-weight:normal;font-stretch:normal;font-size:22px;font-family:'Linux Biolinum O';-inkscape-font-specification:'Linux Biolinum O'"
         id="path3522" />
      <path
         d="m 304.39532,680.27998 c 0.836,0 1.606,0.638 2.2,1.628 l 0.286,-0.022 0.506,-1.804 -0.044,-0.066 c -0.682,-0.352 -1.826,-0.616 -2.926,-0.616 -2.288,0 -4.686,1.87 -4.686,4.862 0,3.08 1.738,5.016 4.422,5.016 1.32,0 2.354,-0.44 3.234,-1.562 l -0.418,-0.462 -0.088,0 c -0.836,0.748 -1.54,0.924 -2.354,0.924 -1.606,0 -2.86,-1.452 -2.86,-4.026 0,-2.42 1.276,-3.872 2.728,-3.872 z"
         style="font-style:normal;font-variant:normal;font-weight:normal;font-stretch:normal;font-size:22px;font-family:'Linux Biolinum O';-inkscape-font-specification:'Linux Biolinum O'"
         id="path3524" />
      <path
         d="m 310.32845,684.65798 c 0,1.65 -0.044,3.234 -0.198,4.4 l 0.044,0.066 c 0.264,-0.044 0.77,-0.066 1.034,-0.066 0.264,0 0.77,0.022 1.034,0.066 l 0.044,-0.066 c -0.176,-1.254 -0.198,-2.728 -0.198,-4.4 l 0,-0.22 c 0.176,0.022 0.704,0.088 0.902,0.242 1.43,1.496 1.958,2.288 3.454,4.444 0.33,-0.022 1.078,-0.066 1.452,-0.066 0.352,0 1.122,0.044 1.32,0.066 l 0.044,-0.066 c -1.65,-1.716 -2.816,-2.684 -4.906,-5.236 0.858,-0.88 3.014,-2.97 4.444,-4.202 l -0.044,-0.066 c -0.418,0.066 -1.628,0.066 -2.222,0.066 -0.968,1.386 -2.618,3.168 -3.476,3.828 -0.286,0.22 -0.682,0.308 -0.968,0.33 l 0,-5.72 c 0,-1.65 0.088,-2.728 0.198,-4.136 0,-0.154 -0.066,-0.22 -0.198,-0.22 -0.572,0.22 -1.034,0.374 -1.914,0.44 l -0.044,0.066 c 0.154,0.946 0.198,2.574 0.198,4.246 l 0,6.204 z"
         style="font-style:normal;font-variant:normal;font-weight:normal;font-stretch:normal;font-size:22px;font-family:'Linux Biolinum O';-inkscape-font-specification:'Linux Biolinum O'"
         id="path3526" />
      <path
         d="m 263.31806,712.59798 c 0,-0.704 0.044,-1.518 0.044,-2.222 0,-2.288 -0.748,-3.476 -2.728,-3.476 -0.836,0 -2.398,0.33 -3.806,1.98 l -0.044,-0.066 0,-1.606 c -0.022,-0.154 -0.044,-0.22 -0.132,-0.22 -0.506,0.11 -1.298,0.132 -1.782,0.066 l -0.044,0.066 c 0.154,0.968 0.198,2.618 0.198,4.268 l 0,1.21 c 0,1.65 -0.022,2.772 -0.198,3.96 l 0.044,0.066 c 0.264,-0.044 0.77,-0.066 1.034,-0.066 0.264,0 0.77,0.022 1.034,0.066 l 0.044,-0.066 c -0.176,-1.254 -0.198,-2.288 -0.198,-3.96 l 0,-2.574 c 1.122,-1.32 2.398,-1.804 3.19,-1.804 1.122,0 1.584,0.44 1.584,2.222 l 0,2.156 c 0,1.65 -0.044,2.794 -0.198,3.96 l 0.044,0.066 c 0.264,-0.044 0.77,-0.066 1.034,-0.066 0.264,0 0.77,0.022 1.034,0.066 l 0.044,-0.066 c -0.176,-1.254 -0.198,-2.288 -0.198,-3.96 z"
         style="font-style:normal;font-variant:normal;font-weight:normal;font-stretch:normal;font-size:22px;font-family:'Linux Biolinum O';-inkscape-font-specification:'Linux Biolinum O'"
         id="path3528" />
      <path
         d="m 265.89343,712.04798 c 0,2.64 1.738,4.73 4.664,4.73 2.904,0 4.664,-2.046 4.664,-4.928 0,-2.992 -1.606,-4.95 -4.576,-4.95 -2.882,0 -4.752,2.024 -4.752,5.148 z m 4.598,-4.268 c 2.332,0 2.794,1.804 2.794,4.466 0,2.112 -1.056,3.652 -2.53,3.652 -2.332,0 -2.926,-2.53 -2.926,-4.224 0,-1.914 0.594,-3.894 2.662,-3.894 z"
         style="font-style:normal;font-variant:normal;font-weight:normal;font-stretch:normal;font-size:22px;font-family:'Linux Biolinum O';-inkscape-font-specification:'Linux Biolinum O'"
         id="path3530" />
      <path
         d="m 277.81743,703.42398 c 0,0.594 0.528,1.122 1.122,1.122 0.594,0 1.122,-0.528 1.122,-1.122 0,-0.594 -0.528,-1.122 -1.122,-1.122 -0.594,0 -1.122,0.528 -1.122,1.122 z m 0.22,7.964 0,1.21 c 0,1.65 -0.044,2.772 -0.198,3.96 l 0.044,0.066 c 0.264,-0.044 0.77,-0.066 1.034,-0.066 0.264,0 0.77,0.022 1.034,0.066 l 0.044,-0.066 c -0.176,-1.232 -0.198,-2.288 -0.198,-3.96 l 0,-1.562 c 0,-1.65 0.044,-2.442 0.198,-3.784 0,-0.198 -0.044,-0.22 -0.198,-0.22 -0.506,0.066 -1.452,0.066 -1.914,0.022 l -0.044,0.066 c 0.132,0.946 0.198,2.618 0.198,4.268 z"
         style="font-style:normal;font-variant:normal;font-weight:normal;font-stretch:normal;font-size:22px;font-family:'Linux Biolinum O';-inkscape-font-specification:'Linux Biolinum O'"
         id="path3532" />
      <path
         d="m 282.87228,714.33598 -0.374,1.848 c 1.254,0.44 2.486,0.594 3.322,0.594 3.036,0 3.74,-1.804 3.74,-3.014 0,-1.804 -1.43,-2.508 -2.992,-2.882 -0.836,-0.198 -2.046,-0.616 -2.046,-1.716 0,-0.902 0.726,-1.386 1.672,-1.386 1.144,0 1.848,0.902 2.354,1.496 l 0.308,-0.022 0.44,-1.628 -0.044,-0.066 c -0.638,-0.33 -1.848,-0.66 -2.97,-0.66 -1.628,0 -3.322,0.858 -3.322,2.684 0,1.76 1.298,2.354 2.64,2.706 1.276,0.352 2.222,0.704 2.222,1.782 0,1.166 -0.858,1.826 -2.024,1.826 -1.056,0 -1.98,-0.726 -2.596,-1.584 l -0.33,0.022 z"
         style="font-style:normal;font-variant:normal;font-weight:normal;font-stretch:normal;font-size:22px;font-family:'Linux Biolinum O';-inkscape-font-specification:'Linux Biolinum O'"
         id="path3534" />
      <path
         d="m 293.24493,710.55198 c 0.374,-2.288 1.804,-2.772 2.508,-2.772 0.858,0 1.848,0.814 1.848,2.464 0,0.198 -0.088,0.308 -0.308,0.308 l -4.048,0 z m 5.874,3.718 c -0.77,0.836 -1.804,1.21 -3.014,1.21 -0.77,0 -1.804,-0.286 -2.398,-1.254 -0.396,-0.616 -0.528,-1.496 -0.528,-2.794 l 5.984,0 c 0.242,0 0.396,-0.132 0.396,-0.374 0,-1.848 -0.902,-4.158 -3.806,-4.158 -2.266,0 -4.51,1.826 -4.51,5.06 0,1.254 0.242,2.486 0.99,3.366 0.748,0.924 2.002,1.452 3.498,1.452 1.584,0 2.992,-0.814 3.828,-1.958 l -0.44,-0.55 z"
         style="font-style:normal;font-variant:normal;font-weight:normal;font-stretch:normal;font-size:22px;font-family:'Linux Biolinum O';-inkscape-font-specification:'Linux Biolinum O'"
         id="path3536" />
    </g>
    <g
       style="font-style:normal;font-weight:normal;font-size:22px;line-height:125%;font-family:'Linux Biolinum O';-inkscape-font-specification:'Linux Biolinum O';text-align:center;letter-spacing:0px;word-spacing:0px;text-anchor:middle;fill:#000000;fill-opacity:1;stroke:none"
       id="text4702-6-1-0-7-2">
      <path
         d="m 464.13153,687.86998 c -1.232,0 -2.816,-1.078 -3.498,-2.376 l -0.22,0.022 c -0.088,0.792 -0.33,1.606 -0.506,2.266 l 0.044,0.066 c 0,0 1.43,0.99 4.004,0.99 2.706,0 4.796,-1.65 4.796,-4.202 0,-2.552 -2.178,-3.718 -3.938,-4.4 -1.122,-0.418 -2.684,-1.056 -2.684,-2.882 0,-0.792 0.44,-1.672 1.012,-1.98 0.374,-0.198 0.836,-0.264 1.342,-0.264 1.21,0 2.398,0.946 2.992,2.31 l 0.22,-0.022 c 0.088,-0.792 0.308,-1.54 0.506,-2.2 l -0.044,-0.066 c 0,0 -0.924,-0.99 -3.498,-0.99 -0.594,0 -1.254,0.11 -1.892,0.374 -1.298,0.55 -2.42,1.826 -2.42,3.432 0,2.31 1.958,3.388 3.784,4.158 1.43,0.594 2.574,1.32 2.574,3.19 0,1.65 -1.276,2.574 -2.574,2.574 z"
         style="font-style:normal;font-variant:normal;font-weight:normal;font-stretch:normal;font-size:22px;font-family:'Linux Biolinum O';-inkscape-font-specification:'Linux Biolinum O'"
         id="path3460" />
      <path
         d="m 472.68643,682.61198 c 0.374,-2.288 1.804,-2.772 2.508,-2.772 0.858,0 1.848,0.814 1.848,2.464 0,0.198 -0.088,0.308 -0.308,0.308 l -4.048,0 z m 5.874,3.718 c -0.77,0.836 -1.804,1.21 -3.014,1.21 -0.77,0 -1.804,-0.286 -2.398,-1.254 -0.396,-0.616 -0.528,-1.496 -0.528,-2.794 l 5.984,0 c 0.242,0 0.396,-0.132 0.396,-0.374 0,-1.848 -0.902,-4.158 -3.806,-4.158 -2.266,0 -4.51,1.826 -4.51,5.06 0,1.254 0.242,2.486 0.99,3.366 0.748,0.924 2.002,1.452 3.498,1.452 1.584,0 2.992,-0.814 3.828,-1.958 l -0.44,-0.55 z"
         style="font-style:normal;font-variant:normal;font-weight:normal;font-stretch:normal;font-size:22px;font-family:'Linux Biolinum O';-inkscape-font-specification:'Linux Biolinum O'"
         id="path3462" />
      <path
         d="m 490.02518,684.65798 c 0,-0.704 0.044,-1.518 0.044,-2.222 0,-2.288 -0.748,-3.476 -2.728,-3.476 -0.836,0 -2.398,0.33 -3.806,1.98 l -0.044,-0.066 0,-1.606 c -0.022,-0.154 -0.044,-0.22 -0.132,-0.22 -0.506,0.11 -1.298,0.132 -1.782,0.066 l -0.044,0.066 c 0.154,0.968 0.198,2.618 0.198,4.268 l 0,1.21 c 0,1.65 -0.022,2.772 -0.198,3.96 l 0.044,0.066 c 0.264,-0.044 0.77,-0.066 1.034,-0.066 0.264,0 0.77,0.022 1.034,0.066 l 0.044,-0.066 c -0.176,-1.254 -0.198,-2.288 -0.198,-3.96 l 0,-2.574 c 1.122,-1.32 2.398,-1.804 3.19,-1.804 1.122,0 1.584,0.44 1.584,2.222 l 0,2.156 c 0,1.65 -0.044,2.794 -0.198,3.96 l 0.044,0.066 c 0.264,-0.044 0.77,-0.066 1.034,-0.066 0.264,0 0.77,0.022 1.034,0.066 l 0.044,-0.066 c -0.176,-1.254 -0.198,-2.288 -0.198,-3.96 z"
         style="font-style:normal;font-variant:normal;font-weight:normal;font-stretch:normal;font-size:22px;font-family:'Linux Biolinum O';-inkscape-font-specification:'Linux Biolinum O'"
         id="path3464" />
      <path
         d="m 492.86456,686.39598 -0.374,1.848 c 1.254,0.44 2.486,0.594 3.322,0.594 3.036,0 3.74,-1.804 3.74,-3.014 0,-1.804 -1.43,-2.508 -2.992,-2.882 -0.836,-0.198 -2.046,-0.616 -2.046,-1.716 0,-0.902 0.726,-1.386 1.672,-1.386 1.144,0 1.848,0.902 2.354,1.496 l 0.308,-0.022 0.44,-1.628 -0.044,-0.066 c -0.638,-0.33 -1.848,-0.66 -2.97,-0.66 -1.628,0 -3.322,0.858 -3.322,2.684 0,1.76 1.298,2.354 2.64,2.706 1.276,0.352 2.222,0.704 2.222,1.782 0,1.166 -0.858,1.826 -2.024,1.826 -1.056,0 -1.98,-0.726 -2.596,-1.584 l -0.33,0.022 z"
         style="font-style:normal;font-variant:normal;font-weight:normal;font-stretch:normal;font-size:22px;font-family:'Linux Biolinum O';-inkscape-font-specification:'Linux Biolinum O'"
         id="path3466" />
      <path
         d="m 502.24721,675.48398 c 0,0.594 0.528,1.122 1.122,1.122 0.594,0 1.122,-0.528 1.122,-1.122 0,-0.594 -0.528,-1.122 -1.122,-1.122 -0.594,0 -1.122,0.528 -1.122,1.122 z m 0.22,7.964 0,1.21 c 0,1.65 -0.044,2.772 -0.198,3.96 l 0.044,0.066 c 0.264,-0.044 0.77,-0.066 1.034,-0.066 0.264,0 0.77,0.022 1.034,0.066 l 0.044,-0.066 c -0.176,-1.232 -0.198,-2.288 -0.198,-3.96 l 0,-1.562 c 0,-1.65 0.044,-2.442 0.198,-3.784 0,-0.198 -0.044,-0.22 -0.198,-0.22 -0.506,0.066 -1.452,0.066 -1.914,0.022 l -0.044,0.066 c 0.132,0.946 0.198,2.618 0.198,4.268 z"
         style="font-style:normal;font-variant:normal;font-weight:normal;font-stretch:normal;font-size:22px;font-family:'Linux Biolinum O';-inkscape-font-specification:'Linux Biolinum O'"
         id="path3468" />
      <path
         d="m 516.32206,684.65798 c 0,-0.704 0.044,-1.518 0.044,-2.222 0,-2.288 -0.748,-3.476 -2.728,-3.476 -0.836,0 -2.398,0.33 -3.806,1.98 l -0.044,-0.066 0,-1.606 c -0.022,-0.154 -0.044,-0.22 -0.132,-0.22 -0.506,0.11 -1.298,0.132 -1.782,0.066 l -0.044,0.066 c 0.154,0.968 0.198,2.618 0.198,4.268 l 0,1.21 c 0,1.65 -0.022,2.772 -0.198,3.96 l 0.044,0.066 c 0.264,-0.044 0.77,-0.066 1.034,-0.066 0.264,0 0.77,0.022 1.034,0.066 l 0.044,-0.066 c -0.176,-1.254 -0.198,-2.288 -0.198,-3.96 l 0,-2.574 c 1.122,-1.32 2.398,-1.804 3.19,-1.804 1.122,0 1.584,0.44 1.584,2.222 l 0,2.156 c 0,1.65 -0.044,2.794 -0.198,3.96 l 0.044,0.066 c 0.264,-0.044 0.77,-0.066 1.034,-0.066 0.264,0 0.77,0.022 1.034,0.066 l 0.044,-0.066 c -0.176,-1.254 -0.198,-2.288 -0.198,-3.96 z"
         style="font-style:normal;font-variant:normal;font-weight:normal;font-stretch:normal;font-size:22px;font-family:'Linux Biolinum O';-inkscape-font-specification:'Linux Biolinum O'"
         id="path3470" />
      <path
         d="m 520.28343,690.90598 c 0,-0.726 0.66,-1.54 1.43,-1.958 0.638,0 1.65,-0.066 1.958,-0.066 1.056,0 1.716,0.022 2.332,0.374 0.638,0.374 0.858,1.012 0.858,1.584 0,1.342 -1.804,2.046 -3.696,2.046 -1.43,0 -2.882,-0.484 -2.882,-1.98 z m 6.358,-8.558 c 0,-1.518 -0.594,-2.222 -1.122,-2.552 0.66,0.044 1.386,0.132 2.31,0.22 l 0.066,-0.066 c -0.044,-0.198 -0.066,-0.374 -0.066,-0.572 0,-0.198 0.022,-0.374 0.066,-0.572 l -0.066,-0.066 c -1.056,0.11 -1.848,0.33 -3.476,0.418 -0.396,-0.132 -0.88,-0.198 -1.342,-0.198 -1.738,0 -3.74,1.166 -3.74,3.344 0,1.65 0.946,2.398 1.562,2.75 -0.638,0.44 -1.408,1.078 -1.408,1.826 0,0.902 0.528,1.694 1.694,1.914 -0.594,0.242 -1.298,0.66 -1.848,1.1 -0.286,0.418 -0.506,1.056 -0.506,1.452 0,1.738 1.892,2.486 4.224,2.486 3.432,0 5.478,-1.43 5.478,-3.498 0,-0.968 -0.308,-1.65 -0.924,-2.178 -0.836,-0.704 -2.332,-0.726 -3.102,-0.726 -0.374,0 -1.254,0.044 -1.76,0.11 -0.308,0.022 -0.528,0.044 -0.638,0.044 -0.616,0 -1.276,-0.088 -1.276,-1.034 0,-0.44 0.11,-0.814 0.594,-1.232 0.286,0.154 0.946,0.308 1.628,0.308 2.288,0 3.652,-1.54 3.652,-3.278 z m -1.716,0.022 c 0,1.342 -0.55,2.376 -1.87,2.376 -1.584,0 -2.068,-1.034 -2.068,-2.552 0,-1.452 0.66,-2.398 1.936,-2.398 1.43,0 2.002,1.012 2.002,2.574 z"
         style="font-style:normal;font-variant:normal;font-weight:normal;font-stretch:normal;font-size:22px;font-family:'Linux Biolinum O';-inkscape-font-specification:'Linux Biolinum O'"
         id="path3472" />
      <path
         d="m 480.40018,712.15798 c 0,-0.704 0.044,-1.518 0.044,-2.222 0,-2.288 -0.748,-3.476 -2.728,-3.476 -0.836,0 -2.398,0.33 -3.806,1.98 l -0.044,-0.066 0,-1.606 c -0.022,-0.154 -0.044,-0.22 -0.132,-0.22 -0.506,0.11 -1.298,0.132 -1.782,0.066 l -0.044,0.066 c 0.154,0.968 0.198,2.618 0.198,4.268 l 0,1.21 c 0,1.65 -0.022,2.772 -0.198,3.96 l 0.044,0.066 c 0.264,-0.044 0.77,-0.066 1.034,-0.066 0.264,0 0.77,0.022 1.034,0.066 l 0.044,-0.066 c -0.176,-1.254 -0.198,-2.288 -0.198,-3.96 l 0,-2.574 c 1.122,-1.32 2.398,-1.804 3.19,-1.804 1.122,0 1.584,0.44 1.584,2.222 l 0,2.156 c 0,1.65 -0.044,2.794 -0.198,3.96 l 0.044,0.066 c 0.264,-0.044 0.77,-0.066 1.034,-0.066 0.264,0 0.77,0.022 1.034,0.066 l 0.044,-0.066 c -0.176,-1.254 -0.198,-2.288 -0.198,-3.96 z"
         style="font-style:normal;font-variant:normal;font-weight:normal;font-stretch:normal;font-size:22px;font-family:'Linux Biolinum O';-inkscape-font-specification:'Linux Biolinum O'"
         id="path3474" />
      <path
         d="m 482.97556,711.60798 c 0,2.64 1.738,4.73 4.664,4.73 2.904,0 4.664,-2.046 4.664,-4.928 0,-2.992 -1.606,-4.95 -4.576,-4.95 -2.882,0 -4.752,2.024 -4.752,5.148 z m 4.598,-4.268 c 2.332,0 2.794,1.804 2.794,4.466 0,2.112 -1.056,3.652 -2.53,3.652 -2.332,0 -2.926,-2.53 -2.926,-4.224 0,-1.914 0.594,-3.894 2.662,-3.894 z"
         style="font-style:normal;font-variant:normal;font-weight:normal;font-stretch:normal;font-size:22px;font-family:'Linux Biolinum O';-inkscape-font-specification:'Linux Biolinum O'"
         id="path3476" />
      <path
         d="m 494.89956,702.98398 c 0,0.594 0.528,1.122 1.122,1.122 0.594,0 1.122,-0.528 1.122,-1.122 0,-0.594 -0.528,-1.122 -1.122,-1.122 -0.594,0 -1.122,0.528 -1.122,1.122 z m 0.22,7.964 0,1.21 c 0,1.65 -0.044,2.772 -0.198,3.96 l 0.044,0.066 c 0.264,-0.044 0.77,-0.066 1.034,-0.066 0.264,0 0.77,0.022 1.034,0.066 l 0.044,-0.066 c -0.176,-1.232 -0.198,-2.288 -0.198,-3.96 l 0,-1.562 c 0,-1.65 0.044,-2.442 0.198,-3.784 0,-0.198 -0.044,-0.22 -0.198,-0.22 -0.506,0.066 -1.452,0.066 -1.914,0.022 l -0.044,0.066 c 0.132,0.946 0.198,2.618 0.198,4.268 z"
         style="font-style:normal;font-variant:normal;font-weight:normal;font-stretch:normal;font-size:22px;font-family:'Linux Biolinum O';-inkscape-font-specification:'Linux Biolinum O'"
         id="path3478" />
      <path
         d="m 499.9544,713.89598 -0.374,1.848 c 1.254,0.44 2.486,0.594 3.322,0.594 3.036,0 3.74,-1.804 3.74,-3.014 0,-1.804 -1.43,-2.508 -2.992,-2.882 -0.836,-0.198 -2.046,-0.616 -2.046,-1.716 0,-0.902 0.726,-1.386 1.672,-1.386 1.144,0 1.848,0.902 2.354,1.496 l 0.308,-0.022 0.44,-1.628 -0.044,-0.066 c -0.638,-0.33 -1.848,-0.66 -2.97,-0.66 -1.628,0 -3.322,0.858 -3.322,2.684 0,1.76 1.298,2.354 2.64,2.706 1.276,0.352 2.222,0.704 2.222,1.782 0,1.166 -0.858,1.826 -2.024,1.826 -1.056,0 -1.98,-0.726 -2.596,-1.584 l -0.33,0.022 z"
         style="font-style:normal;font-variant:normal;font-weight:normal;font-stretch:normal;font-size:22px;font-family:'Linux Biolinum O';-inkscape-font-specification:'Linux Biolinum O'"
         id="path3480" />
      <path
         d="m 510.32706,710.11198 c 0.374,-2.288 1.804,-2.772 2.508,-2.772 0.858,0 1.848,0.814 1.848,2.464 0,0.198 -0.088,0.308 -0.308,0.308 l -4.048,0 z m 5.874,3.718 c -0.77,0.836 -1.804,1.21 -3.014,1.21 -0.77,0 -1.804,-0.286 -2.398,-1.254 -0.396,-0.616 -0.528,-1.496 -0.528,-2.794 l 5.984,0 c 0.242,0 0.396,-0.132 0.396,-0.374 0,-1.848 -0.902,-4.158 -3.806,-4.158 -2.266,0 -4.51,1.826 -4.51,5.06 0,1.254 0.242,2.486 0.99,3.366 0.748,0.924 2.002,1.452 3.498,1.452 1.584,0 2.992,-0.814 3.828,-1.958 l -0.44,-0.55 z"
         style="font-style:normal;font-variant:normal;font-weight:normal;font-stretch:normal;font-size:22px;font-family:'Linux Biolinum O';-inkscape-font-specification:'Linux Biolinum O'"
         id="path3482" />
    </g>
    <g
       style="font-style:normal;font-weight:normal;font-size:22px;line-height:125%;font-family:'Linux Biolinum O';-inkscape-font-specification:'Linux Biolinum O';text-align:center;letter-spacing:0px;word-spacing:0px;text-anchor:middle;fill:#000000;fill-opacity:1;stroke:none"
       id="text4702-6-1-0-7-4">
      <path
         d="m 364.13923,499.93218 c 0,-0.638 0.396,-0.968 1.98,-0.968 1.518,0 3.124,0.418 3.124,3.036 0,2.53 -1.232,3.344 -3.366,3.344 -0.55,0 -1.452,-0.066 -1.738,-0.22 l 0,-5.192 z m -1.892,2.64 0,5.39 c 0,1.65 -0.044,3.212 -0.22,4.4 l 0.044,0.066 c 0.264,-0.044 0.858,-0.066 1.122,-0.066 0.264,0 0.858,0.022 1.122,0.066 l 0.044,-0.066 c -0.176,-1.254 -0.22,-2.75 -0.22,-4.4 l 0,-1.892 c 0.484,0.154 1.078,0.22 1.848,0.22 4.004,0 5.39,-2.53 5.39,-4.4 0,-1.628 -1.034,-3.872 -5.104,-3.872 -0.572,0 -2.42,0.154 -3.08,0.154 -0.264,0 -0.858,-0.022 -1.122,-0.066 l -0.044,0.066 c 0.176,1.254 0.22,2.75 0.22,4.4 z"
         style="font-style:normal;font-variant:normal;font-weight:normal;font-stretch:normal;font-size:22px;font-family:'Linux Biolinum O';-inkscape-font-specification:'Linux Biolinum O'"
         id="path3591" />
      <path
         d="m 374.4861,507.96218 c 0,1.65 -0.044,3.234 -0.198,4.4 l 0.044,0.066 c 0.264,-0.044 0.77,-0.066 1.034,-0.066 0.264,0 0.77,0.022 1.034,0.066 l 0.044,-0.066 c -0.176,-1.254 -0.198,-2.728 -0.198,-4.4 l 0,-6.6 c 0,-1.65 0.088,-2.728 0.198,-4.136 0,-0.154 -0.066,-0.22 -0.198,-0.22 -0.572,0.22 -1.034,0.374 -1.914,0.44 l -0.044,0.066 c 0.154,0.946 0.198,2.574 0.198,4.246 l 0,6.204 z"
         style="font-style:normal;font-variant:normal;font-weight:normal;font-stretch:normal;font-size:22px;font-family:'Linux Biolinum O';-inkscape-font-specification:'Linux Biolinum O'"
         id="path3593" />
      <path
         d="m 384.86907,507.41218 -0.088,2.618 c 0,0.286 -0.132,0.44 -0.308,0.572 -0.616,0.462 -1.364,0.858 -2.024,0.858 -0.99,0 -1.628,-0.66 -1.628,-1.342 0,-0.99 0.462,-1.738 2.178,-2.2 l 1.87,-0.506 z m 0,3.894 c 0.242,0.88 0.902,1.276 1.716,1.276 0.55,0 1.232,-0.132 1.738,-0.682 l -0.154,-0.528 c -0.242,0.088 -0.44,0.11 -0.594,0.11 -0.22,0 -0.506,-0.044 -0.66,-0.176 -0.22,-0.198 -0.352,-0.726 -0.352,-1.716 0,-0.638 0.066,-3.08 0.066,-3.322 0,-2.97 -1.958,-3.564 -3.63,-3.564 -1.672,0 -2.684,0.814 -3.234,1.276 l -0.066,0.088 0.374,1.474 0.286,0.022 c 0.616,-0.99 1.364,-1.87 2.42,-1.87 0.792,0 2.112,0.11 2.112,2.596 0,0.154 -0.088,0.242 -0.154,0.264 l -2.046,0.462 c -2.244,0.506 -3.652,1.694 -3.652,3.19 0,1.628 1.122,2.376 2.75,2.376 1.21,0 1.826,-0.286 2.992,-1.276 l 0.088,0 z"
         style="font-style:normal;font-variant:normal;font-weight:normal;font-stretch:normal;font-size:22px;font-family:'Linux Biolinum O';-inkscape-font-specification:'Linux Biolinum O'"
         id="path3595" />
      <path
         d="m 398.73938,508.40218 c 0,-0.704 0.044,-1.518 0.044,-2.222 0,-2.288 -0.748,-3.476 -2.728,-3.476 -0.836,0 -2.398,0.33 -3.806,1.98 l -0.044,-0.066 0,-1.606 c -0.022,-0.154 -0.044,-0.22 -0.132,-0.22 -0.506,0.11 -1.298,0.132 -1.782,0.066 l -0.044,0.066 c 0.154,0.968 0.198,2.618 0.198,4.268 l 0,1.21 c 0,1.65 -0.022,2.772 -0.198,3.96 l 0.044,0.066 c 0.264,-0.044 0.77,-0.066 1.034,-0.066 0.264,0 0.77,0.022 1.034,0.066 l 0.044,-0.066 c -0.176,-1.254 -0.198,-2.288 -0.198,-3.96 l 0,-2.574 c 1.122,-1.32 2.398,-1.804 3.19,-1.804 1.122,0 1.584,0.44 1.584,2.222 l 0,2.156 c 0,1.65 -0.044,2.794 -0.198,3.96 l 0.044,0.066 c 0.264,-0.044 0.77,-0.066 1.034,-0.066 0.264,0 0.77,0.022 1.034,0.066 l 0.044,-0.066 c -0.176,-1.254 -0.198,-2.288 -0.198,-3.96 z"
         style="font-style:normal;font-variant:normal;font-weight:normal;font-stretch:normal;font-size:22px;font-family:'Linux Biolinum O';-inkscape-font-specification:'Linux Biolinum O'"
         id="path3597" />
      <path
         d="m 402.56876,502.92418 c -0.462,0 -0.924,0 -1.188,-0.044 -0.154,0.374 -0.286,0.572 -0.484,0.902 l 0.11,0.154 c 0.374,-0.022 1.056,-0.022 1.562,-0.044 l 0,3.014 c 0,1.32 -0.066,2.904 -0.066,3.564 0,1.43 0.924,2.112 1.936,2.112 0.924,0 1.628,-0.22 2.552,-0.814 l -0.286,-0.528 c -0.66,0.22 -1.166,0.242 -1.716,0.154 -0.528,-0.066 -0.726,-0.594 -0.726,-1.804 0,-0.66 0.066,-1.606 0.066,-2.926 l 0,-2.772 0.836,0 c 0.528,0 1.276,0.022 1.584,0.044 0.066,-0.352 0.132,-0.572 0.264,-0.902 l -0.11,-0.154 c -0.396,0.022 -1.034,0.044 -1.54,0.044 l -1.034,0 c 0,-1.628 0,-1.936 0.11,-3.212 0,-0.154 -0.066,-0.22 -0.198,-0.22 -0.572,0.22 -0.836,0.462 -1.54,0.55 l -0.044,0.066 c -0.044,0.77 -0.088,1.54 -0.088,2.816 z"
         style="font-style:normal;font-variant:normal;font-weight:normal;font-stretch:normal;font-size:22px;font-family:'Linux Biolinum O';-inkscape-font-specification:'Linux Biolinum O'"
         id="path3599" />
    </g>
    <g
       style="font-style:normal;font-weight:normal;font-size:22px;line-height:125%;font-family:'Linux Biolinum O';-inkscape-font-specification:'Linux Biolinum O';text-align:center;letter-spacing:0px;word-spacing:0px;text-anchor:middle;fill:#000000;fill-opacity:1;stroke:none"
       id="text4702-6-1-0-7-4-5">
      <path
         d="m 346.12639,857.88618 c -3.718,0 -7.216,3.212 -7.216,7.546 0,3.806 2.178,7.15 6.908,7.15 2.024,0 3.938,-0.616 5.412,-2.398 -0.022,-0.264 -0.066,-0.748 -0.132,-0.946 l -0.154,-0.066 c -1.562,1.716 -2.882,2.288 -4.928,2.288 -2.794,0 -4.84,-3.014 -4.84,-6.446 0,-4.466 2.838,-6.094 4.642,-6.094 1.98,0 3.586,0.792 4.488,2.596 l 0.264,-0.022 c 0.066,-1.122 0.154,-1.496 0.396,-2.442 l -0.044,-0.066 c 0,0 -2.112,-1.1 -4.796,-1.1 z"
         style="font-style:normal;font-variant:normal;font-weight:normal;font-stretch:normal;font-size:22px;font-family:'Linux Biolinum O';-inkscape-font-specification:'Linux Biolinum O'"
         id="path3418" />
      <path
         d="m 353.51254,867.85218 c 0,2.64 1.738,4.73 4.664,4.73 2.904,0 4.664,-2.046 4.664,-4.928 0,-2.992 -1.606,-4.95 -4.576,-4.95 -2.882,0 -4.752,2.024 -4.752,5.148 z m 4.598,-4.268 c 2.332,0 2.794,1.804 2.794,4.466 0,2.112 -1.056,3.652 -2.53,3.652 -2.332,0 -2.926,-2.53 -2.926,-4.224 0,-1.914 0.594,-3.894 2.662,-3.894 z"
         style="font-style:normal;font-variant:normal;font-weight:normal;font-stretch:normal;font-size:22px;font-family:'Linux Biolinum O';-inkscape-font-specification:'Linux Biolinum O'"
         id="path3420" />
      <path
         d="m 373.79654,868.40218 c 0,-0.704 0.044,-1.518 0.044,-2.222 0,-2.288 -0.748,-3.476 -2.728,-3.476 -0.836,0 -2.398,0.33 -3.806,1.98 l -0.044,-0.066 0,-1.606 c -0.022,-0.154 -0.044,-0.22 -0.132,-0.22 -0.506,0.11 -1.298,0.132 -1.782,0.066 l -0.044,0.066 c 0.154,0.968 0.198,2.618 0.198,4.268 l 0,1.21 c 0,1.65 -0.022,2.772 -0.198,3.96 l 0.044,0.066 c 0.264,-0.044 0.77,-0.066 1.034,-0.066 0.264,0 0.77,0.022 1.034,0.066 l 0.044,-0.066 c -0.176,-1.254 -0.198,-2.288 -0.198,-3.96 l 0,-2.574 c 1.122,-1.32 2.398,-1.804 3.19,-1.804 1.122,0 1.584,0.44 1.584,2.222 l 0,2.156 c 0,1.65 -0.044,2.794 -0.198,3.96 l 0.044,0.066 c 0.264,-0.044 0.77,-0.066 1.034,-0.066 0.264,0 0.77,0.022 1.034,0.066 l 0.044,-0.066 c -0.176,-1.254 -0.198,-2.288 -0.198,-3.96 z"
         style="font-style:normal;font-variant:normal;font-weight:normal;font-stretch:normal;font-size:22px;font-family:'Linux Biolinum O';-inkscape-font-specification:'Linux Biolinum O'"
         id="path3422" />
      <path
         d="m 377.62592,862.92418 c -0.462,0 -0.924,0 -1.188,-0.044 -0.154,0.374 -0.286,0.572 -0.484,0.902 l 0.11,0.154 c 0.374,-0.022 1.056,-0.022 1.562,-0.044 l 0,3.014 c 0,1.32 -0.066,2.904 -0.066,3.564 0,1.43 0.924,2.112 1.936,2.112 0.924,0 1.628,-0.22 2.552,-0.814 l -0.286,-0.528 c -0.66,0.22 -1.166,0.242 -1.716,0.154 -0.528,-0.066 -0.726,-0.594 -0.726,-1.804 0,-0.66 0.066,-1.606 0.066,-2.926 l 0,-2.772 0.836,0 c 0.528,0 1.276,0.022 1.584,0.044 0.066,-0.352 0.132,-0.572 0.264,-0.902 l -0.11,-0.154 c -0.396,0.022 -1.034,0.044 -1.54,0.044 l -1.034,0 c 0,-1.628 0,-1.936 0.11,-3.212 0,-0.154 -0.066,-0.22 -0.198,-0.22 -0.572,0.22 -0.836,0.462 -1.54,0.55 l -0.044,0.066 c -0.044,0.77 -0.088,1.54 -0.088,2.816 z"
         style="font-style:normal;font-variant:normal;font-weight:normal;font-stretch:normal;font-size:22px;font-family:'Linux Biolinum O';-inkscape-font-specification:'Linux Biolinum O'"
         id="path3424" />
      <path
         d="m 386.68648,865.01418 0,-2.002 c 0,-0.154 -0.044,-0.22 -0.132,-0.22 -0.506,0.11 -1.298,0.132 -1.782,0.066 l -0.044,0.066 c 0.154,0.968 0.198,2.618 0.198,4.268 l 0,1.21 c 0,1.65 -0.044,2.794 -0.198,3.96 l 0.044,0.066 c 0.264,-0.044 0.77,-0.066 1.034,-0.066 0.264,0 0.77,0.022 1.034,0.066 l 0.044,-0.066 c -0.176,-1.254 -0.198,-2.288 -0.198,-3.96 l 0,-1.144 c 0,-0.924 0.264,-1.452 0.748,-2.178 0.308,-0.484 0.814,-0.77 1.232,-0.77 0.44,0 0.858,0.044 1.144,0.308 l 0.176,-0.044 0.44,-1.628 -0.088,-0.088 c -0.374,-0.11 -0.396,-0.154 -0.792,-0.154 -1.188,0 -1.826,0.682 -2.794,2.354 l -0.066,-0.044 z"
         style="font-style:normal;font-variant:normal;font-weight:normal;font-stretch:normal;font-size:22px;font-family:'Linux Biolinum O';-inkscape-font-specification:'Linux Biolinum O'"
         id="path3426" />
      <path
         d="m 391.49692,867.85218 c 0,2.64 1.738,4.73 4.664,4.73 2.904,0 4.664,-2.046 4.664,-4.928 0,-2.992 -1.606,-4.95 -4.576,-4.95 -2.882,0 -4.752,2.024 -4.752,5.148 z m 4.598,-4.268 c 2.332,0 2.794,1.804 2.794,4.466 0,2.112 -1.056,3.652 -2.53,3.652 -2.332,0 -2.926,-2.53 -2.926,-4.224 0,-1.914 0.594,-3.894 2.662,-3.894 z"
         style="font-style:normal;font-variant:normal;font-weight:normal;font-stretch:normal;font-size:22px;font-family:'Linux Biolinum O';-inkscape-font-specification:'Linux Biolinum O'"
         id="path3428" />
      <path
         d="m 403.64092,867.96218 c 0,1.65 -0.044,3.234 -0.198,4.4 l 0.044,0.066 c 0.264,-0.044 0.77,-0.066 1.034,-0.066 0.264,0 0.77,0.022 1.034,0.066 l 0.044,-0.066 c -0.176,-1.254 -0.198,-2.728 -0.198,-4.4 l 0,-6.6 c 0,-1.65 0.088,-2.728 0.198,-4.136 0,-0.154 -0.066,-0.22 -0.198,-0.22 -0.572,0.22 -1.034,0.374 -1.914,0.44 l -0.044,0.066 c 0.154,0.946 0.198,2.574 0.198,4.246 l 0,6.204 z"
         style="font-style:normal;font-variant:normal;font-weight:normal;font-stretch:normal;font-size:22px;font-family:'Linux Biolinum O';-inkscape-font-specification:'Linux Biolinum O'"
         id="path3430" />
      <path
         d="m 409.18389,867.96218 c 0,1.65 -0.044,3.234 -0.198,4.4 l 0.044,0.066 c 0.264,-0.044 0.77,-0.066 1.034,-0.066 0.264,0 0.77,0.022 1.034,0.066 l 0.044,-0.066 c -0.176,-1.254 -0.198,-2.728 -0.198,-4.4 l 0,-6.6 c 0,-1.65 0.088,-2.728 0.198,-4.136 0,-0.154 -0.066,-0.22 -0.198,-0.22 -0.572,0.22 -1.034,0.374 -1.914,0.44 l -0.044,0.066 c 0.154,0.946 0.198,2.574 0.198,4.246 l 0,6.204 z"
         style="font-style:normal;font-variant:normal;font-weight:normal;font-stretch:normal;font-size:22px;font-family:'Linux Biolinum O';-inkscape-font-specification:'Linux Biolinum O'"
         id="path3432" />
      <path
         d="m 415.49686,866.35618 c 0.374,-2.288 1.804,-2.772 2.508,-2.772 0.858,0 1.848,0.814 1.848,2.464 0,0.198 -0.088,0.308 -0.308,0.308 l -4.048,0 z m 5.874,3.718 c -0.77,0.836 -1.804,1.21 -3.014,1.21 -0.77,0 -1.804,-0.286 -2.398,-1.254 -0.396,-0.616 -0.528,-1.496 -0.528,-2.794 l 5.984,0 c 0.242,0 0.396,-0.132 0.396,-0.374 0,-1.848 -0.902,-4.158 -3.806,-4.158 -2.266,0 -4.51,1.826 -4.51,5.06 0,1.254 0.242,2.486 0.99,3.366 0.748,0.924 2.002,1.452 3.498,1.452 1.584,0 2.992,-0.814 3.828,-1.958 l -0.44,-0.55 z"
         style="font-style:normal;font-variant:normal;font-weight:normal;font-stretch:normal;font-size:22px;font-family:'Linux Biolinum O';-inkscape-font-specification:'Linux Biolinum O'"
         id="path3434" />
      <path
         d="m 426.38961,865.01418 0,-2.002 c 0,-0.154 -0.044,-0.22 -0.132,-0.22 -0.506,0.11 -1.298,0.132 -1.782,0.066 l -0.044,0.066 c 0.154,0.968 0.198,2.618 0.198,4.268 l 0,1.21 c 0,1.65 -0.044,2.794 -0.198,3.96 l 0.044,0.066 c 0.264,-0.044 0.77,-0.066 1.034,-0.066 0.264,0 0.77,0.022 1.034,0.066 l 0.044,-0.066 c -0.176,-1.254 -0.198,-2.288 -0.198,-3.96 l 0,-1.144 c 0,-0.924 0.264,-1.452 0.748,-2.178 0.308,-0.484 0.814,-0.77 1.232,-0.77 0.44,0 0.858,0.044 1.144,0.308 l 0.176,-0.044 0.44,-1.628 -0.088,-0.088 c -0.374,-0.11 -0.396,-0.154 -0.792,-0.154 -1.188,0 -1.826,0.682 -2.794,2.354 l -0.066,-0.044 z"
         style="font-style:normal;font-variant:normal;font-weight:normal;font-stretch:normal;font-size:22px;font-family:'Linux Biolinum O';-inkscape-font-specification:'Linux Biolinum O'"
         id="path3436" />
    </g>
    <g
       id="g11404"
       transform="matrix(-1,0,0,-1,412.08595,1228.8235)">
      <path
         sodipodi:nodetypes="sssssssss"
         inkscape:connector-curvature="0"
         id="path3755-9-1-6-1-0"
         d="m 204.38836,613.68815 c -3.3815,-3.3815 -7.81351,-5.07224 -12.24551,-5.07228 -4.43198,4e-5 -8.86399,1.69078 -12.24548,5.07228 -3.3815,3.3815 -5.07225,7.81351 -5.07225,12.24548 0,4.43198 1.69075,8.86398 5.07225,12.24548 3.38149,3.3815 7.8135,5.07225 12.24548,5.07225 4.432,0 8.86398,-1.69075 12.24548,-5.07225 3.38149,-3.3815 5.07227,-7.81347 5.07227,-12.24548 -3e-5,-4.43197 -1.69078,-8.86398 -5.07224,-12.24548 z"
         style="fill:#e6e6e6;fill-opacity:1;stroke:#000000;stroke-width:3;stroke-miterlimit:4;stroke-opacity:1;stroke-dasharray:none" />
      <g
         transform="matrix(0,-0.82835087,-0.82835087,0,728.90361,762.35086)"
         id="g4924-3-4-9">
        <text
           xml:space="preserve"
           style="font-size:40px;font-style:normal;font-weight:normal;line-height:125%;letter-spacing:0px;word-spacing:0px;fill:#000000;fill-opacity:1;stroke:none;font-family:Sans"
           x="167.9082"
           y="658.94421"
           id="text5237-8-8-9-2-4"
           sodipodi:linespacing="125%"><tspan
             sodipodi:role="line"
             id="tspan5239-4-3-7-7-8"
             x="167.9082"
             y="658.94421">-</tspan></text>
        <text
           xml:space="preserve"
           style="font-size:40px;font-style:normal;font-weight:normal;line-height:125%;letter-spacing:0px;word-spacing:0px;fill:#000000;fill-opacity:1;stroke:none;font-family:Sans"
           x="640.77039"
           y="-164.16797"
           id="text5237-8-8-5-2-4-9"
           sodipodi:linespacing="125%"
           transform="matrix(0,1,-1,0,0,0)"><tspan
             sodipodi:role="line"
             id="tspan5239-4-3-8-0-1-8"
             x="640.77039"
             y="-164.16797">-</tspan></text>
      </g>
      <g
         transform="matrix(0,-0.82835087,-0.82835087,0,737.24378,770.99856)"
         id="g4924-3-4-9-4">
        <text
           xml:space="preserve"
           style="font-size:40px;font-style:normal;font-weight:normal;line-height:125%;letter-spacing:0px;word-spacing:0px;fill:#000000;fill-opacity:1;stroke:none;font-family:Sans"
           x="167.9082"
           y="658.94421"
           id="text5237-8-8-9-2-4-7"
           sodipodi:linespacing="125%"><tspan
             sodipodi:role="line"
             id="tspan5239-4-3-7-7-8-1"
             x="167.9082"
             y="658.94421">-</tspan></text>
        <text
           xml:space="preserve"
           style="font-size:40px;font-style:normal;font-weight:normal;line-height:125%;letter-spacing:0px;word-spacing:0px;fill:#000000;fill-opacity:1;stroke:none;font-family:Sans"
           x="640.77039"
           y="-164.16797"
           id="text5237-8-8-5-2-4-9-1"
           sodipodi:linespacing="125%"
           transform="matrix(0,1,-1,0,0,0)"><tspan
             sodipodi:role="line"
             id="tspan5239-4-3-8-0-1-8-9"
             x="640.77039"
             y="-164.16797">-</tspan></text>
      </g>
    </g>
    <path
       style="fill:none;stroke:#000000;stroke-width:2.99999976;stroke-linecap:butt;stroke-linejoin:miter;stroke-miterlimit:4;stroke-opacity:1;stroke-dasharray:none;marker-start:url(#Arrow2Sstart)"
       d="m 197.06879,602.9043 -93.20839,0"
       id="path3821-360"
       inkscape:connector-curvature="0"
       sodipodi:nodetypes="cc" />
    <path
       style="fill:none;stroke:#000000;stroke-width:2.99999976;stroke-linecap:butt;stroke-linejoin:miter;stroke-miterlimit:4;stroke-opacity:1;stroke-dasharray:none;marker-start:url(#Arrow2Sstart)"
       d="m 643.19023,602.81501 -93.20839,0"
       id="path3821-360-5"
       inkscape:connector-curvature="0"
       sodipodi:nodetypes="cc" />
    <path
       sodipodi:type="arc"
       style="fill:#000000;fill-opacity:1;stroke:none"
       id="path5590-7-9-9"
       sodipodi:cx="405.57623"
       sodipodi:cy="718.4436"
       sodipodi:rx="2.0834396"
       sodipodi:ry="2.0834396"
       d="m 407.65967,718.4436 a 2.0834396,2.0834396 0 1 1 -4.16688,0 2.0834396,2.0834396 0 1 1 4.16688,0 z"
       transform="matrix(1.9199021,0,0,1.9199021,-229.69436,-776.54079)" />
    <g
       style="font-style:normal;font-weight:normal;font-size:22px;line-height:125%;font-family:'Linux Biolinum O';-inkscape-font-specification:'Linux Biolinum O';text-align:center;letter-spacing:0px;word-spacing:0px;text-anchor:middle;fill:#000000;fill-opacity:1;stroke:none"
       id="text4702-6-1-0-7-4-7">
      <path
         d="m 36.751177,593.04491 c -1.232,0 -2.816,-1.078 -3.498,-2.376 l -0.22,0.022 c -0.088,0.792 -0.33,1.606 -0.506,2.266 l 0.044,0.066 c 0,0 1.43,0.99 4.004,0.99 2.706,0 4.796,-1.65 4.796,-4.202 0,-2.552 -2.178,-3.718 -3.938,-4.4 -1.122,-0.418 -2.684,-1.056 -2.684,-2.882 0,-0.792 0.44,-1.672 1.012,-1.98 0.374,-0.198 0.836,-0.264 1.342,-0.264 1.21,0 2.398,0.946 2.992,2.31 l 0.22,-0.022 c 0.088,-0.792 0.308,-1.54 0.506,-2.2 l -0.044,-0.066 c 0,0 -0.924,-0.99 -3.498,-0.99 -0.594,0 -1.254,0.11 -1.892,0.374 -1.298,0.55 -2.42,1.826 -2.42,3.432 0,2.31 1.958,3.388 3.784,4.158 1.43,0.594 2.574,1.32 2.574,3.19 0,1.65 -1.276,2.574 -2.574,2.574 z"
         style="font-style:normal;font-variant:normal;font-weight:normal;font-stretch:normal;font-size:22px;font-family:'Linux Biolinum O';-inkscape-font-specification:'Linux Biolinum O'"
         id="path3539" />
      <path
         d="m 45.306084,587.78691 c 0.374,-2.288 1.804,-2.772 2.508,-2.772 0.858,0 1.848,0.814 1.848,2.464 0,0.198 -0.088,0.308 -0.308,0.308 l -4.048,0 z m 5.874,3.718 c -0.77,0.836 -1.804,1.21 -3.014,1.21 -0.77,0 -1.804,-0.286 -2.398,-1.254 -0.396,-0.616 -0.528,-1.496 -0.528,-2.794 l 5.984,0 c 0.242,0 0.396,-0.132 0.396,-0.374 0,-1.848 -0.902,-4.158 -3.806,-4.158 -2.266,0 -4.51,1.826 -4.51,5.06 0,1.254 0.242,2.486 0.99,3.366 0.748,0.924 2.002,1.452 3.498,1.452 1.584,0 2.992,-0.814 3.828,-1.958 l -0.44,-0.55 z"
         style="font-style:normal;font-variant:normal;font-weight:normal;font-stretch:normal;font-size:22px;font-family:'Linux Biolinum O';-inkscape-font-specification:'Linux Biolinum O'"
         id="path3541" />
      <path
         d="m 54.614834,584.35491 c -0.462,0 -0.924,0 -1.188,-0.044 -0.154,0.374 -0.286,0.572 -0.484,0.902 l 0.11,0.154 c 0.374,-0.022 1.056,-0.022 1.562,-0.044 l 0,3.014 c 0,1.32 -0.066,2.904 -0.066,3.564 0,1.43 0.924,2.112 1.936,2.112 0.924,0 1.628,-0.22 2.552,-0.814 l -0.286,-0.528 c -0.66,0.22 -1.166,0.242 -1.716,0.154 -0.528,-0.066 -0.726,-0.594 -0.726,-1.804 0,-0.66 0.066,-1.606 0.066,-2.926 l 0,-2.772 0.836,0 c 0.528,0 1.276,0.022 1.584,0.044 0.066,-0.352 0.132,-0.572 0.264,-0.902 l -0.11,-0.154 c -0.396,0.022 -1.034,0.044 -1.54,0.044 l -1.034,0 c 0,-1.628 0,-1.936 0.11,-3.212 0,-0.154 -0.066,-0.22 -0.198,-0.22 -0.572,0.22 -0.836,0.462 -1.54,0.55 l -0.044,0.066 c -0.044,0.77 -0.088,1.54 -0.088,2.816 z"
         style="font-style:normal;font-variant:normal;font-weight:normal;font-stretch:normal;font-size:22px;font-family:'Linux Biolinum O';-inkscape-font-specification:'Linux Biolinum O'"
         id="path3543" />
      <path
         d="m 12.690396,614.82491 c 0.484,-1.166 1.782,-2.178 2.64,-2.178 1.496,0 2.266,1.364 2.266,3.85 0,1.804 -0.506,4.136 -2.86,4.136 -0.352,0 -1.276,-0.088 -2.046,-0.99 l 0,-4.818 z m 0,-1.276 0,-1.606 c 0,-0.154 -0.044,-0.22 -0.132,-0.22 -0.506,0.11 -1.298,0.132 -1.782,0.066 l -0.044,0.066 c 0.154,0.968 0.198,2.618 0.198,4.268 l 0,5.874 c 0,1.65 -0.044,3.234 -0.198,4.4 l 0.044,0.066 c 0.264,-0.044 0.77,-0.066 1.034,-0.066 0.264,0 0.77,0.022 1.034,0.066 l 0.044,-0.066 c -0.176,-1.254 -0.198,-2.728 -0.198,-4.4 l 0,-0.968 c 0.572,0.308 1.386,0.484 2.178,0.484 2.904,0 4.664,-2.2 4.664,-5.302 0,-2.332 -1.364,-4.576 -3.828,-4.576 -0.858,0 -1.958,0.44 -2.97,1.98 l -0.044,-0.066 z"
         style="font-style:normal;font-variant:normal;font-weight:normal;font-stretch:normal;font-size:22px;font-family:'Linux Biolinum O';-inkscape-font-specification:'Linux Biolinum O'"
         id="path3545" />
      <path
         d="m 21.649896,616.78291 c 0,2.64 1.738,4.73 4.664,4.73 2.904,0 4.664,-2.046 4.664,-4.928 0,-2.992 -1.606,-4.95 -4.576,-4.95 -2.882,0 -4.752,2.024 -4.752,5.148 z m 4.598,-4.268 c 2.332,0 2.794,1.804 2.794,4.466 0,2.112 -1.056,3.652 -2.53,3.652 -2.332,0 -2.926,-2.53 -2.926,-4.224 0,-1.914 0.594,-3.894 2.662,-3.894 z"
         style="font-style:normal;font-variant:normal;font-weight:normal;font-stretch:normal;font-size:22px;font-family:'Linux Biolinum O';-inkscape-font-specification:'Linux Biolinum O'"
         id="path3547" />
      <path
         d="m 32.913896,619.07091 -0.374,1.848 c 1.254,0.44 2.486,0.594 3.322,0.594 3.036,0 3.74,-1.804 3.74,-3.014 0,-1.804 -1.43,-2.508 -2.992,-2.882 -0.836,-0.198 -2.046,-0.616 -2.046,-1.716 0,-0.902 0.726,-1.386 1.672,-1.386 1.144,0 1.848,0.902 2.354,1.496 l 0.308,-0.022 0.44,-1.628 -0.044,-0.066 c -0.638,-0.33 -1.848,-0.66 -2.97,-0.66 -1.628,0 -3.322,0.858 -3.322,2.684 0,1.76 1.298,2.354 2.64,2.706 1.276,0.352 2.222,0.704 2.222,1.782 0,1.166 -0.858,1.826 -2.024,1.826 -1.056,0 -1.98,-0.726 -2.596,-1.584 l -0.33,0.022 z"
         style="font-style:normal;font-variant:normal;font-weight:normal;font-stretch:normal;font-size:22px;font-family:'Linux Biolinum O';-inkscape-font-specification:'Linux Biolinum O'"
         id="path3549" />
      <path
         d="m 42.296552,608.15891 c 0,0.594 0.528,1.122 1.122,1.122 0.594,0 1.122,-0.528 1.122,-1.122 0,-0.594 -0.528,-1.122 -1.122,-1.122 -0.594,0 -1.122,0.528 -1.122,1.122 z m 0.22,7.964 0,1.21 c 0,1.65 -0.044,2.772 -0.198,3.96 l 0.044,0.066 c 0.264,-0.044 0.77,-0.066 1.034,-0.066 0.264,0 0.77,0.022 1.034,0.066 l 0.044,-0.066 c -0.176,-1.232 -0.198,-2.288 -0.198,-3.96 l 0,-1.562 c 0,-1.65 0.044,-2.442 0.198,-3.784 0,-0.198 -0.044,-0.22 -0.198,-0.22 -0.506,0.066 -1.452,0.066 -1.914,0.022 l -0.044,0.066 c 0.132,0.946 0.198,2.618 0.198,4.268 z"
         style="font-style:normal;font-variant:normal;font-weight:normal;font-stretch:normal;font-size:22px;font-family:'Linux Biolinum O';-inkscape-font-specification:'Linux Biolinum O'"
         id="path3551" />
      <path
         d="m 48.341396,611.85491 c -0.462,0 -0.924,0 -1.188,-0.044 -0.154,0.374 -0.286,0.572 -0.484,0.902 l 0.11,0.154 c 0.374,-0.022 1.056,-0.022 1.562,-0.044 l 0,3.014 c 0,1.32 -0.066,2.904 -0.066,3.564 0,1.43 0.924,2.112 1.936,2.112 0.924,0 1.628,-0.22 2.552,-0.814 l -0.286,-0.528 c -0.66,0.22 -1.166,0.242 -1.716,0.154 -0.528,-0.066 -0.726,-0.594 -0.726,-1.804 0,-0.66 0.066,-1.606 0.066,-2.926 l 0,-2.772 0.836,0 c 0.528,0 1.276,0.022 1.584,0.044 0.066,-0.352 0.132,-0.572 0.264,-0.902 l -0.11,-0.154 c -0.396,0.022 -1.034,0.044 -1.54,0.044 l -1.034,0 c 0,-1.628 0,-1.936 0.11,-3.212 0,-0.154 -0.066,-0.22 -0.198,-0.22 -0.572,0.22 -0.836,0.462 -1.54,0.55 l -0.044,0.066 c -0.044,0.77 -0.088,1.54 -0.088,2.816 z"
         style="font-style:normal;font-variant:normal;font-weight:normal;font-stretch:normal;font-size:22px;font-family:'Linux Biolinum O';-inkscape-font-specification:'Linux Biolinum O'"
         id="path3553" />
      <path
         d="m 55.487959,608.15891 c 0,0.594 0.528,1.122 1.122,1.122 0.594,0 1.122,-0.528 1.122,-1.122 0,-0.594 -0.528,-1.122 -1.122,-1.122 -0.594,0 -1.122,0.528 -1.122,1.122 z m 0.22,7.964 0,1.21 c 0,1.65 -0.044,2.772 -0.198,3.96 l 0.044,0.066 c 0.264,-0.044 0.77,-0.066 1.034,-0.066 0.264,0 0.77,0.022 1.034,0.066 l 0.044,-0.066 c -0.176,-1.232 -0.198,-2.288 -0.198,-3.96 l 0,-1.562 c 0,-1.65 0.044,-2.442 0.198,-3.784 0,-0.198 -0.044,-0.22 -0.198,-0.22 -0.506,0.066 -1.452,0.066 -1.914,0.022 l -0.044,0.066 c 0.132,0.946 0.198,2.618 0.198,4.268 z"
         style="font-style:normal;font-variant:normal;font-weight:normal;font-stretch:normal;font-size:22px;font-family:'Linux Biolinum O';-inkscape-font-specification:'Linux Biolinum O'"
         id="path3555" />
      <path
         d="m 60.278802,616.78291 c 0,2.64 1.738,4.73 4.664,4.73 2.904,0 4.664,-2.046 4.664,-4.928 0,-2.992 -1.606,-4.95 -4.576,-4.95 -2.882,0 -4.752,2.024 -4.752,5.148 z m 4.598,-4.268 c 2.332,0 2.794,1.804 2.794,4.466 0,2.112 -1.056,3.652 -2.53,3.652 -2.332,0 -2.926,-2.53 -2.926,-4.224 0,-1.914 0.594,-3.894 2.662,-3.894 z"
         style="font-style:normal;font-variant:normal;font-weight:normal;font-stretch:normal;font-size:22px;font-family:'Linux Biolinum O';-inkscape-font-specification:'Linux Biolinum O'"
         id="path3557" />
      <path
         d="m 80.562802,617.33291 c 0,-0.704 0.044,-1.518 0.044,-2.222 0,-2.288 -0.748,-3.476 -2.728,-3.476 -0.836,0 -2.398,0.33 -3.806,1.98 l -0.044,-0.066 0,-1.606 c -0.022,-0.154 -0.044,-0.22 -0.132,-0.22 -0.506,0.11 -1.298,0.132 -1.782,0.066 l -0.044,0.066 c 0.154,0.968 0.198,2.618 0.198,4.268 l 0,1.21 c 0,1.65 -0.022,2.772 -0.198,3.96 l 0.044,0.066 c 0.264,-0.044 0.77,-0.066 1.034,-0.066 0.264,0 0.77,0.022 1.034,0.066 l 0.044,-0.066 c -0.176,-1.254 -0.198,-2.288 -0.198,-3.96 l 0,-2.574 c 1.122,-1.32 2.398,-1.804 3.19,-1.804 1.122,0 1.584,0.44 1.584,2.222 l 0,2.156 c 0,1.65 -0.044,2.794 -0.198,3.96 l 0.044,0.066 c 0.264,-0.044 0.77,-0.066 1.034,-0.066 0.264,0 0.77,0.022 1.034,0.066 l 0.044,-0.066 c -0.176,-1.254 -0.198,-2.288 -0.198,-3.96 z"
         style="font-style:normal;font-variant:normal;font-weight:normal;font-stretch:normal;font-size:22px;font-family:'Linux Biolinum O';-inkscape-font-specification:'Linux Biolinum O'"
         id="path3559" />
    </g>
    <g
       style="font-style:normal;font-weight:normal;font-size:22px;line-height:125%;font-family:'Linux Biolinum O';-inkscape-font-specification:'Linux Biolinum O';text-align:center;letter-spacing:0px;word-spacing:0px;text-anchor:middle;fill:#000000;fill-opacity:1;stroke:none"
       id="text4702-6-1-0-7-4-7-8">
      <path
         d="m 679.73525,588.18291 c -0.726,0.022 -1.65,0.044 -2.288,0.044 -0.638,0 -1.826,-0.022 -2.31,-0.044 l 2.332,-5.412 0.044,0 c 0.902,2.068 1.628,3.872 2.222,5.412 z m -5.016,1.034 c 0.55,-0.044 2.068,-0.066 2.838,-0.066 0.836,0 2.046,0.022 2.574,0.066 1.078,2.882 1.562,4.598 1.716,5.082 0.374,-0.066 0.726,-0.066 1.1,-0.066 0.374,0 0.946,0 1.32,0.066 -1.1,-2.222 -4.004,-9.724 -6.028,-14.542 l -0.616,0 c -2.112,4.884 -4.268,9.68 -6.49,14.542 0.264,-0.066 0.528,-0.066 0.77,-0.066 0.242,0 0.726,0 0.99,0.066 0.352,-1.342 1.034,-3.146 1.826,-5.082 z"
         style="font-style:normal;font-variant:normal;font-weight:normal;font-stretch:normal;font-size:22px;font-family:'Linux Biolinum O';-inkscape-font-specification:'Linux Biolinum O'"
         id="path3562" />
      <path
         d="m 689.85937,585.45491 c 0.83601,0 1.606,0.638 2.20001,1.628 l 0.28599,-0.022 0.506,-1.804 -0.044,-0.066 c -0.682,-0.352 -1.826,-0.616 -2.92599,-0.616 -2.288,0 -4.686,1.87 -4.686,4.862 0,3.08 1.73799,5.016 4.422,5.016 1.31999,0 2.35399,-0.44 3.23399,-1.562 l -0.418,-0.462 -0.088,0 c -0.836,0.748 -1.53999,0.924 -2.354,0.924 -1.606,0 -2.85999,-1.452 -2.85999,-4.026 0,-2.42 1.27599,-3.872 2.72799,-3.872 z"
         style="font-style:normal;font-variant:normal;font-weight:normal;font-stretch:normal;font-size:22px;font-family:'Linux Biolinum O';-inkscape-font-specification:'Linux Biolinum O'"
         id="path3564" />
      <path
         d="m 695.9025,584.79491 c -0.462,0 -0.924,0 -1.188,-0.044 -0.154,0.374 -0.286,0.572 -0.484,0.902 l 0.11,0.154 c 0.374,-0.022 1.056,-0.022 1.562,-0.044 l 0,3.014 c 0,1.32 -0.066,2.904 -0.066,3.564 0,1.43 0.924,2.112 1.936,2.112 0.924,0 1.628,-0.22 2.552,-0.814 l -0.286,-0.528 c -0.66,0.22 -1.166,0.242 -1.716,0.154 -0.528,-0.066 -0.726,-0.594 -0.726,-1.804 0,-0.66 0.066,-1.606 0.066,-2.926 l 0,-2.772 0.836,0 c 0.528,0 1.276,0.022 1.584,0.044 0.066,-0.352 0.132,-0.572 0.264,-0.902 l -0.11,-0.154 c -0.396,0.022 -1.034,0.044 -1.54,0.044 l -1.034,0 c 0,-1.628 0,-1.936 0.11,-3.212 0,-0.154 -0.066,-0.22 -0.198,-0.22 -0.572,0.22 -0.836,0.462 -1.54,0.55 l -0.044,0.066 c -0.044,0.77 -0.088,1.54 -0.088,2.816 z"
         style="font-style:normal;font-variant:normal;font-weight:normal;font-stretch:normal;font-size:22px;font-family:'Linux Biolinum O';-inkscape-font-specification:'Linux Biolinum O'"
         id="path3566" />
      <path
         d="m 709.31906,592.20891 0.088,0.066 0.11,1.958 c 0,0.044 0.022,0.066 0.088,0.066 0.286,-0.022 0.55,-0.066 0.858,-0.066 0.286,0 0.704,0.022 0.99,0.066 l 0.044,-0.066 c -0.176,-0.946 -0.374,-2.574 -0.374,-4.224 l 0,-1.254 c 0,-1.65 0.022,-2.794 0.198,-3.96 l -0.044,-0.066 c -0.264,0.044 -0.77,0.066 -1.034,0.066 -0.264,0 -0.77,-0.022 -1.034,-0.066 l -0.044,0.066 c 0.154,1.276 0.198,2.288 0.198,3.96 l 0,2.156 c -0.682,1.144 -1.936,2.31 -3.014,2.31 -0.77,0 -1.474,-0.242 -1.474,-2.288 l 0,-2.178 c 0,-1.65 0.022,-2.794 0.198,-3.96 l -0.044,-0.066 c -0.264,0.044 -0.77,0.066 -1.034,0.066 -0.264,0 -0.77,-0.022 -1.034,-0.066 l -0.044,0.066 c 0.176,1.254 0.198,2.288 0.198,3.96 l 0,2.64 c 0,1.518 0.704,3.058 2.882,3.058 1.364,0 2.596,-1.122 3.322,-2.244 z"
         style="font-style:normal;font-variant:normal;font-weight:normal;font-stretch:normal;font-size:22px;font-family:'Linux Biolinum O';-inkscape-font-specification:'Linux Biolinum O'"
         id="path3568" />
      <path
         d="m 719.92547,589.28291 -0.088,2.618 c 0,0.286 -0.132,0.44 -0.308,0.572 -0.616,0.462 -1.364,0.858 -2.024,0.858 -0.99,0 -1.628,-0.66 -1.628,-1.342 0,-0.99 0.462,-1.738 2.178,-2.2 l 1.87,-0.506 z m 0,3.894 c 0.242,0.88 0.902,1.276 1.716,1.276 0.55,0 1.232,-0.132 1.738,-0.682 l -0.154,-0.528 c -0.242,0.088 -0.44,0.11 -0.594,0.11 -0.22,0 -0.506,-0.044 -0.66,-0.176 -0.22,-0.198 -0.352,-0.726 -0.352,-1.716 0,-0.638 0.066,-3.08 0.066,-3.322 0,-2.97 -1.958,-3.564 -3.63,-3.564 -1.672,0 -2.684,0.814 -3.234,1.276 l -0.066,0.088 0.374,1.474 0.286,0.022 c 0.616,-0.99 1.364,-1.87 2.42,-1.87 0.792,0 2.112,0.11 2.112,2.596 0,0.154 -0.088,0.242 -0.154,0.264 l -2.046,0.462 c -2.244,0.506 -3.652,1.694 -3.652,3.19 0,1.628 1.122,2.376 2.75,2.376 1.21,0 1.826,-0.286 2.992,-1.276 l 0.088,0 z"
         style="font-style:normal;font-variant:normal;font-weight:normal;font-stretch:normal;font-size:22px;font-family:'Linux Biolinum O';-inkscape-font-specification:'Linux Biolinum O'"
         id="path3570" />
      <path
         d="m 725.65578,589.83291 c 0,1.65 -0.044,3.234 -0.198,4.4 l 0.044,0.066 c 0.264,-0.044 0.77,-0.066 1.034,-0.066 0.264,0 0.77,0.022 1.034,0.066 l 0.044,-0.066 c -0.176,-1.254 -0.198,-2.728 -0.198,-4.4 l 0,-6.6 c 0,-1.65 0.088,-2.728 0.198,-4.136 0,-0.154 -0.066,-0.22 -0.198,-0.22 -0.572,0.22 -1.034,0.374 -1.914,0.44 l -0.044,0.066 c 0.154,0.946 0.198,2.574 0.198,4.246 l 0,6.204 z"
         style="font-style:normal;font-variant:normal;font-weight:normal;font-stretch:normal;font-size:22px;font-family:'Linux Biolinum O';-inkscape-font-specification:'Linux Biolinum O'"
         id="path3572" />
      <path
         d="m 666.97611,615.26491 c 0.484,-1.166 1.782,-2.178 2.64,-2.178 1.496,0 2.266,1.364 2.266,3.85 0,1.804 -0.506,4.136 -2.86,4.136 -0.352,0 -1.276,-0.088 -2.046,-0.99 l 0,-4.818 z m 0,-1.276 0,-1.606 c 0,-0.154 -0.044,-0.22 -0.132,-0.22 -0.506,0.11 -1.298,0.132 -1.782,0.066 l -0.044,0.066 c 0.154,0.968 0.198,2.618 0.198,4.268 l 0,5.874 c 0,1.65 -0.044,3.234 -0.198,4.4 l 0.044,0.066 c 0.264,-0.044 0.77,-0.066 1.034,-0.066 0.264,0 0.77,0.022 1.034,0.066 l 0.044,-0.066 c -0.176,-1.254 -0.198,-2.728 -0.198,-4.4 l 0,-0.968 c 0.572,0.308 1.386,0.484 2.178,0.484 2.904,0 4.664,-2.2 4.664,-5.302 0,-2.332 -1.364,-4.576 -3.828,-4.576 -0.858,0 -1.958,0.44 -2.97,1.98 l -0.044,-0.066 z"
         style="font-style:normal;font-variant:normal;font-weight:normal;font-stretch:normal;font-size:22px;font-family:'Linux Biolinum O';-inkscape-font-specification:'Linux Biolinum O'"
         id="path3574" />
      <path
         d="m 675.93561,617.22291 c 0,2.64 1.738,4.73 4.664,4.73 2.904,0 4.664,-2.046 4.664,-4.928 0,-2.992 -1.606,-4.95 -4.576,-4.95 -2.882,0 -4.752,2.024 -4.752,5.148 z m 4.598,-4.268 c 2.332,0 2.794,1.804 2.794,4.466 0,2.112 -1.056,3.652 -2.53,3.652 -2.332,0 -2.926,-2.53 -2.926,-4.224 0,-1.914 0.594,-3.894 2.662,-3.894 z"
         style="font-style:normal;font-variant:normal;font-weight:normal;font-stretch:normal;font-size:22px;font-family:'Linux Biolinum O';-inkscape-font-specification:'Linux Biolinum O'"
         id="path3576" />
      <path
         d="m 687.19961,619.51091 -0.374,1.848 c 1.254,0.44 2.486,0.594 3.322,0.594 3.036,0 3.74,-1.804 3.74,-3.014 0,-1.804 -1.43,-2.508 -2.992,-2.882 -0.836,-0.198 -2.046,-0.616 -2.046,-1.716 0,-0.902 0.726,-1.386 1.672,-1.386 1.144,0 1.848,0.902 2.354,1.496 l 0.308,-0.022 0.44,-1.628 -0.044,-0.066 c -0.638,-0.33 -1.848,-0.66 -2.97,-0.66 -1.628,0 -3.322,0.858 -3.322,2.684 0,1.76 1.298,2.354 2.64,2.706 1.276,0.352 2.222,0.704 2.222,1.782 0,1.166 -0.858,1.826 -2.024,1.826 -1.056,0 -1.98,-0.726 -2.596,-1.584 l -0.33,0.022 z"
         style="font-style:normal;font-variant:normal;font-weight:normal;font-stretch:normal;font-size:22px;font-family:'Linux Biolinum O';-inkscape-font-specification:'Linux Biolinum O'"
         id="path3578" />
      <path
         d="m 696.58227,608.59891 c 0,0.594 0.528,1.122 1.122,1.122 0.594,0 1.122,-0.528 1.122,-1.122 0,-0.594 -0.528,-1.122 -1.122,-1.122 -0.594,0 -1.122,0.528 -1.122,1.122 z m 0.22,7.964 0,1.21 c 0,1.65 -0.044,2.772 -0.198,3.96 l 0.044,0.066 c 0.264,-0.044 0.77,-0.066 1.034,-0.066 0.264,0 0.77,0.022 1.034,0.066 l 0.044,-0.066 c -0.176,-1.232 -0.198,-2.288 -0.198,-3.96 l 0,-1.562 c 0,-1.65 0.044,-2.442 0.198,-3.784 0,-0.198 -0.044,-0.22 -0.198,-0.22 -0.506,0.066 -1.452,0.066 -1.914,0.022 l -0.044,0.066 c 0.132,0.946 0.198,2.618 0.198,4.268 z"
         style="font-style:normal;font-variant:normal;font-weight:normal;font-stretch:normal;font-size:22px;font-family:'Linux Biolinum O';-inkscape-font-specification:'Linux Biolinum O'"
         id="path3580" />
      <path
         d="m 702.62711,612.29491 c -0.462,0 -0.924,0 -1.188,-0.044 -0.154,0.374 -0.286,0.572 -0.484,0.902 l 0.11,0.154 c 0.374,-0.022 1.056,-0.022 1.562,-0.044 l 0,3.014 c 0,1.32 -0.066,2.904 -0.066,3.564 0,1.43 0.924,2.112 1.936,2.112 0.924,0 1.628,-0.22 2.552,-0.814 l -0.286,-0.528 c -0.66,0.22 -1.166,0.242 -1.716,0.154 -0.528,-0.066 -0.726,-0.594 -0.726,-1.804 0,-0.66 0.066,-1.606 0.066,-2.926 l 0,-2.772 0.836,0 c 0.528,0 1.276,0.022 1.584,0.044 0.066,-0.352 0.132,-0.572 0.264,-0.902 l -0.11,-0.154 c -0.396,0.022 -1.034,0.044 -1.54,0.044 l -1.034,0 c 0,-1.628 0,-1.936 0.11,-3.212 0,-0.154 -0.066,-0.22 -0.198,-0.22 -0.572,0.22 -0.836,0.462 -1.54,0.55 l -0.044,0.066 c -0.044,0.77 -0.088,1.54 -0.088,2.816 z"
         style="font-style:normal;font-variant:normal;font-weight:normal;font-stretch:normal;font-size:22px;font-family:'Linux Biolinum O';-inkscape-font-specification:'Linux Biolinum O'"
         id="path3582" />
      <path
         d="m 709.77367,608.59891 c 0,0.594 0.528,1.122 1.122,1.122 0.594,0 1.122,-0.528 1.122,-1.122 0,-0.594 -0.528,-1.122 -1.122,-1.122 -0.594,0 -1.122,0.528 -1.122,1.122 z m 0.22,7.964 0,1.21 c 0,1.65 -0.044,2.772 -0.198,3.96 l 0.044,0.066 c 0.264,-0.044 0.77,-0.066 1.034,-0.066 0.264,0 0.77,0.022 1.034,0.066 l 0.044,-0.066 c -0.176,-1.232 -0.198,-2.288 -0.198,-3.96 l 0,-1.562 c 0,-1.65 0.044,-2.442 0.198,-3.784 0,-0.198 -0.044,-0.22 -0.198,-0.22 -0.506,0.066 -1.452,0.066 -1.914,0.022 l -0.044,0.066 c 0.132,0.946 0.198,2.618 0.198,4.268 z"
         style="font-style:normal;font-variant:normal;font-weight:normal;font-stretch:normal;font-size:22px;font-family:'Linux Biolinum O';-inkscape-font-specification:'Linux Biolinum O'"
         id="path3584" />
      <path
         d="m 714.56452,617.22291 c 0,2.64 1.738,4.73 4.664,4.73 2.904,0 4.664,-2.046 4.664,-4.928 0,-2.992 -1.606,-4.95 -4.576,-4.95 -2.882,0 -4.752,2.024 -4.752,5.148 z m 4.598,-4.268 c 2.332,0 2.794,1.804 2.794,4.466 0,2.112 -1.056,3.652 -2.53,3.652 -2.332,0 -2.926,-2.53 -2.926,-4.224 0,-1.914 0.594,-3.894 2.662,-3.894 z"
         style="font-style:normal;font-variant:normal;font-weight:normal;font-stretch:normal;font-size:22px;font-family:'Linux Biolinum O';-inkscape-font-specification:'Linux Biolinum O'"
         id="path3586" />
      <path
         d="m 734.84852,617.77291 c 0,-0.704 0.044,-1.518 0.044,-2.222 0,-2.288 -0.748,-3.476 -2.728,-3.476 -0.836,0 -2.398,0.33 -3.806,1.98 l -0.044,-0.066 0,-1.606 c -0.022,-0.154 -0.044,-0.22 -0.132,-0.22 -0.506,0.11 -1.298,0.132 -1.782,0.066 l -0.044,0.066 c 0.154,0.968 0.198,2.618 0.198,4.268 l 0,1.21 c 0,1.65 -0.022,2.772 -0.198,3.96 l 0.044,0.066 c 0.264,-0.044 0.77,-0.066 1.034,-0.066 0.264,0 0.77,0.022 1.034,0.066 l 0.044,-0.066 c -0.176,-1.254 -0.198,-2.288 -0.198,-3.96 l 0,-2.574 c 1.122,-1.32 2.398,-1.804 3.19,-1.804 1.122,0 1.584,0.44 1.584,2.222 l 0,2.156 c 0,1.65 -0.044,2.794 -0.198,3.96 l 0.044,0.066 c 0.264,-0.044 0.77,-0.066 1.034,-0.066 0.264,0 0.77,0.022 1.034,0.066 l 0.044,-0.066 c -0.176,-1.254 -0.198,-2.288 -0.198,-3.96 z"
         style="font-style:normal;font-variant:normal;font-weight:normal;font-stretch:normal;font-size:22px;font-family:'Linux Biolinum O';-inkscape-font-specification:'Linux Biolinum O'"
         id="path3588" />
    </g>
    <g
       style="font-style:normal;font-weight:normal;font-size:22px;line-height:125%;font-family:'Linux Biolinum O';-inkscape-font-specification:'Linux Biolinum O';text-align:center;letter-spacing:0px;word-spacing:0px;text-anchor:middle;fill:#000000;fill-opacity:1;stroke:none"
       id="text4702-6-1-0-7-4-3">
      <path
         d="m 571.12727,681.63302 0,-2.574 c 1.056,0 3.388,0.066 4.906,0.22 l 0.066,-0.066 c -0.044,-0.198 -0.066,-0.506 -0.066,-0.704 0,-0.198 0.022,-0.506 0.066,-0.704 l -0.066,-0.066 c -1.298,0.11 -2.31,0.22 -4.906,0.22 l 0,-1.716 c 0,-0.374 0.022,-2.64 0.176,-3.168 2.948,0 5.984,0.264 5.984,0.264 l 0.044,-0.088 c -0.022,-0.176 -0.044,-0.374 -0.044,-0.572 0,-0.176 0.022,-0.528 0.044,-0.836 l -0.044,-0.066 c -0.352,0.044 -0.858,0.066 -1.32,0.066 l -5.786,0 c -0.748,0 -1.122,-0.066 -1.122,-0.066 l -0.044,0.066 c 0.176,1.254 0.22,2.75 0.22,4.4 l 0,5.39 c 0,1.65 -0.044,3.212 -0.22,4.4 l 0.022,0.066 c 0,0 0.374,-0.066 1.144,-0.066 l 6.006,0 c 0.462,0 0.968,0.022 1.32,0.066 l 0.044,-0.066 c -0.022,-0.308 -0.044,-0.462 -0.044,-0.682 0,-0.22 0.022,-0.55 0.044,-0.726 l -0.044,-0.088 c 0,0 -3.256,0.264 -6.204,0.264 -0.154,-0.528 -0.176,-2.794 -0.176,-3.168 z"
         style="font-style:normal;font-variant:normal;font-weight:normal;font-stretch:normal;font-size:22px;font-family:'Linux Biolinum O';-inkscape-font-specification:'Linux Biolinum O'"
         id="path3439" />
      <path
         d="m 582.43767,678.68502 0,-2.002 c 0,-0.154 -0.044,-0.22 -0.132,-0.22 -0.506,0.11 -1.298,0.132 -1.782,0.066 l -0.044,0.066 c 0.154,0.968 0.198,2.618 0.198,4.268 l 0,1.21 c 0,1.65 -0.044,2.794 -0.198,3.96 l 0.044,0.066 c 0.264,-0.044 0.77,-0.066 1.034,-0.066 0.264,0 0.77,0.022 1.034,0.066 l 0.044,-0.066 c -0.176,-1.254 -0.198,-2.288 -0.198,-3.96 l 0,-1.144 c 0,-0.924 0.264,-1.452 0.748,-2.178 0.308,-0.484 0.814,-0.77 1.232,-0.77 0.44,0 0.858,0.044 1.144,0.308 l 0.176,-0.044 0.44,-1.628 -0.088,-0.088 c -0.374,-0.11 -0.396,-0.154 -0.792,-0.154 -1.188,0 -1.826,0.682 -2.794,2.354 l -0.066,-0.044 z"
         style="font-style:normal;font-variant:normal;font-weight:normal;font-stretch:normal;font-size:22px;font-family:'Linux Biolinum O';-inkscape-font-specification:'Linux Biolinum O'"
         id="path3441" />
      <path
         d="m 590.25798,678.68502 0,-2.002 c 0,-0.154 -0.044,-0.22 -0.132,-0.22 -0.506,0.11 -1.298,0.132 -1.782,0.066 l -0.044,0.066 c 0.154,0.968 0.198,2.618 0.198,4.268 l 0,1.21 c 0,1.65 -0.044,2.794 -0.198,3.96 l 0.044,0.066 c 0.264,-0.044 0.77,-0.066 1.034,-0.066 0.264,0 0.77,0.022 1.034,0.066 l 0.044,-0.066 c -0.176,-1.254 -0.198,-2.288 -0.198,-3.96 l 0,-1.144 c 0,-0.924 0.264,-1.452 0.748,-2.178 0.308,-0.484 0.814,-0.77 1.232,-0.77 0.44,0 0.858,0.044 1.144,0.308 l 0.176,-0.044 0.44,-1.628 -0.088,-0.088 c -0.374,-0.11 -0.396,-0.154 -0.792,-0.154 -1.188,0 -1.826,0.682 -2.794,2.354 l -0.066,-0.044 z"
         style="font-style:normal;font-variant:normal;font-weight:normal;font-stretch:normal;font-size:22px;font-family:'Linux Biolinum O';-inkscape-font-specification:'Linux Biolinum O'"
         id="path3443" />
      <path
         d="m 595.06842,681.52302 c 0,2.64 1.738,4.73 4.664,4.73 2.904,0 4.664,-2.046 4.664,-4.928 0,-2.992 -1.606,-4.95 -4.576,-4.95 -2.882,0 -4.752,2.024 -4.752,5.148 z m 4.598,-4.268 c 2.332,0 2.794,1.804 2.794,4.466 0,2.112 -1.056,3.652 -2.53,3.652 -2.332,0 -2.926,-2.53 -2.926,-4.224 0,-1.914 0.594,-3.894 2.662,-3.894 z"
         style="font-style:normal;font-variant:normal;font-weight:normal;font-stretch:normal;font-size:22px;font-family:'Linux Biolinum O';-inkscape-font-specification:'Linux Biolinum O'"
         id="path3445" />
      <path
         d="m 608.90642,678.68502 0,-2.002 c 0,-0.154 -0.044,-0.22 -0.132,-0.22 -0.506,0.11 -1.298,0.132 -1.782,0.066 l -0.044,0.066 c 0.154,0.968 0.198,2.618 0.198,4.268 l 0,1.21 c 0,1.65 -0.044,2.794 -0.198,3.96 l 0.044,0.066 c 0.264,-0.044 0.77,-0.066 1.034,-0.066 0.264,0 0.77,0.022 1.034,0.066 l 0.044,-0.066 c -0.176,-1.254 -0.198,-2.288 -0.198,-3.96 l 0,-1.144 c 0,-0.924 0.264,-1.452 0.748,-2.178 0.308,-0.484 0.814,-0.77 1.232,-0.77 0.44,0 0.858,0.044 1.144,0.308 l 0.176,-0.044 0.44,-1.628 -0.088,-0.088 c -0.374,-0.11 -0.396,-0.154 -0.792,-0.154 -1.188,0 -1.826,0.682 -2.794,2.354 l -0.066,-0.044 z"
         style="font-style:normal;font-variant:normal;font-weight:normal;font-stretch:normal;font-size:22px;font-family:'Linux Biolinum O';-inkscape-font-specification:'Linux Biolinum O'"
         id="path3447" />
      <path
         d="m 569.69486,707.06502 c 0.484,-1.166 1.782,-2.178 2.64,-2.178 1.496,0 2.266,1.364 2.266,3.85 0,1.804 -0.506,4.136 -2.86,4.136 -0.352,0 -1.276,-0.088 -2.046,-0.99 l 0,-4.818 z m 0,-1.276 0,-1.606 c 0,-0.154 -0.044,-0.22 -0.132,-0.22 -0.506,0.11 -1.298,0.132 -1.782,0.066 l -0.044,0.066 c 0.154,0.968 0.198,2.618 0.198,4.268 l 0,5.874 c 0,1.65 -0.044,3.234 -0.198,4.4 l 0.044,0.066 c 0.264,-0.044 0.77,-0.066 1.034,-0.066 0.264,0 0.77,0.022 1.034,0.066 l 0.044,-0.066 c -0.176,-1.254 -0.198,-2.728 -0.198,-4.4 l 0,-0.968 c 0.572,0.308 1.386,0.484 2.178,0.484 2.904,0 4.664,-2.2 4.664,-5.302 0,-2.332 -1.364,-4.576 -3.828,-4.576 -0.858,0 -1.958,0.44 -2.97,1.98 l -0.044,-0.066 z"
         style="font-style:normal;font-variant:normal;font-weight:normal;font-stretch:normal;font-size:22px;font-family:'Linux Biolinum O';-inkscape-font-specification:'Linux Biolinum O'"
         id="path3449" />
      <path
         d="m 578.65436,709.02302 c 0,2.64 1.738,4.73 4.664,4.73 2.904,0 4.664,-2.046 4.664,-4.928 0,-2.992 -1.606,-4.95 -4.576,-4.95 -2.882,0 -4.752,2.024 -4.752,5.148 z m 4.598,-4.268 c 2.332,0 2.794,1.804 2.794,4.466 0,2.112 -1.056,3.652 -2.53,3.652 -2.332,0 -2.926,-2.53 -2.926,-4.224 0,-1.914 0.594,-3.894 2.662,-3.894 z"
         style="font-style:normal;font-variant:normal;font-weight:normal;font-stretch:normal;font-size:22px;font-family:'Linux Biolinum O';-inkscape-font-specification:'Linux Biolinum O'"
         id="path3451" />
      <path
         d="m 590.57836,700.39902 c 0,0.594 0.528,1.122 1.122,1.122 0.594,0 1.122,-0.528 1.122,-1.122 0,-0.594 -0.528,-1.122 -1.122,-1.122 -0.594,0 -1.122,0.528 -1.122,1.122 z m 0.22,7.964 0,1.21 c 0,1.65 -0.044,2.772 -0.198,3.96 l 0.044,0.066 c 0.264,-0.044 0.77,-0.066 1.034,-0.066 0.264,0 0.77,0.022 1.034,0.066 l 0.044,-0.066 c -0.176,-1.232 -0.198,-2.288 -0.198,-3.96 l 0,-1.562 c 0,-1.65 0.044,-2.442 0.198,-3.784 0,-0.198 -0.044,-0.22 -0.198,-0.22 -0.506,0.066 -1.452,0.066 -1.914,0.022 l -0.044,0.066 c 0.132,0.946 0.198,2.618 0.198,4.268 z"
         style="font-style:normal;font-variant:normal;font-weight:normal;font-stretch:normal;font-size:22px;font-family:'Linux Biolinum O';-inkscape-font-specification:'Linux Biolinum O'"
         id="path3453" />
      <path
         d="m 604.6532,709.57302 c 0,-0.704 0.044,-1.518 0.044,-2.222 0,-2.288 -0.748,-3.476 -2.728,-3.476 -0.836,0 -2.398,0.33 -3.806,1.98 l -0.044,-0.066 0,-1.606 c -0.022,-0.154 -0.044,-0.22 -0.132,-0.22 -0.506,0.11 -1.298,0.132 -1.782,0.066 l -0.044,0.066 c 0.154,0.968 0.198,2.618 0.198,4.268 l 0,1.21 c 0,1.65 -0.022,2.772 -0.198,3.96 l 0.044,0.066 c 0.264,-0.044 0.77,-0.066 1.034,-0.066 0.264,0 0.77,0.022 1.034,0.066 l 0.044,-0.066 c -0.176,-1.254 -0.198,-2.288 -0.198,-3.96 l 0,-2.574 c 1.122,-1.32 2.398,-1.804 3.19,-1.804 1.122,0 1.584,0.44 1.584,2.222 l 0,2.156 c 0,1.65 -0.044,2.794 -0.198,3.96 l 0.044,0.066 c 0.264,-0.044 0.77,-0.066 1.034,-0.066 0.264,0 0.77,0.022 1.034,0.066 l 0.044,-0.066 c -0.176,-1.254 -0.198,-2.288 -0.198,-3.96 z"
         style="font-style:normal;font-variant:normal;font-weight:normal;font-stretch:normal;font-size:22px;font-family:'Linux Biolinum O';-inkscape-font-specification:'Linux Biolinum O'"
         id="path3455" />
      <path
         d="m 608.48258,704.09502 c -0.462,0 -0.924,0 -1.188,-0.044 -0.154,0.374 -0.286,0.572 -0.484,0.902 l 0.11,0.154 c 0.374,-0.022 1.056,-0.022 1.562,-0.044 l 0,3.014 c 0,1.32 -0.066,2.904 -0.066,3.564 0,1.43 0.924,2.112 1.936,2.112 0.924,0 1.628,-0.22 2.552,-0.814 l -0.286,-0.528 c -0.66,0.22 -1.166,0.242 -1.716,0.154 -0.528,-0.066 -0.726,-0.594 -0.726,-1.804 0,-0.66 0.066,-1.606 0.066,-2.926 l 0,-2.772 0.836,0 c 0.528,0 1.276,0.022 1.584,0.044 0.066,-0.352 0.132,-0.572 0.264,-0.902 l -0.11,-0.154 c -0.396,0.022 -1.034,0.044 -1.54,0.044 l -1.034,0 c 0,-1.628 0,-1.936 0.11,-3.212 0,-0.154 -0.066,-0.22 -0.198,-0.22 -0.572,0.22 -0.836,0.462 -1.54,0.55 l -0.044,0.066 c -0.044,0.77 -0.088,1.54 -0.088,2.816 z"
         style="font-style:normal;font-variant:normal;font-weight:normal;font-stretch:normal;font-size:22px;font-family:'Linux Biolinum O';-inkscape-font-specification:'Linux Biolinum O'"
         id="path3457" />
    </g>
    <g
       style="font-style:normal;font-weight:normal;font-size:22px;line-height:125%;font-family:'Linux Biolinum O';-inkscape-font-specification:'Linux Biolinum O';text-align:center;letter-spacing:0px;word-spacing:0px;text-anchor:middle;fill:#000000;fill-opacity:1;stroke:none"
       id="text4702-6-1-0-7-4-3-9">
      <path
         d="m 126.35048,672.39301 -5.72,0 c -0.748,0 -1.122,-0.066 -1.122,-0.066 l -0.044,0.066 c 0.176,1.254 0.22,2.75 0.22,4.4 l 0,5.39 c 0,1.65 -0.044,3.212 -0.22,4.4 l 0.022,0.066 c 0,0 0.374,-0.066 1.144,-0.066 0.748,0 1.122,0.066 1.122,0.066 l 0.044,-0.066 c -0.176,-1.254 -0.22,-2.75 -0.22,-4.4 l 0,-2.574 c 1.056,0 3.388,0.066 4.906,0.22 l 0.066,-0.066 c -0.044,-0.198 -0.066,-0.506 -0.066,-0.704 0,-0.198 0.022,-0.506 0.066,-0.704 l -0.066,-0.066 c -1.298,0.11 -2.31,0.22 -4.906,0.22 l 0,-1.716 c 0,-0.374 0.022,-2.64 0.176,-3.168 2.948,0 5.984,0.264 5.984,0.264 l 0.044,-0.088 c -0.022,-0.176 -0.044,-0.462 -0.044,-0.66 0,-0.176 0.022,-0.44 0.044,-0.748 l -0.044,-0.066 c -0.352,0.044 -0.858,0.066 -1.386,0.066 z"
         style="font-style:normal;font-variant:normal;font-weight:normal;font-stretch:normal;font-size:22px;font-family:'Linux Biolinum O';-inkscape-font-specification:'Linux Biolinum O'"
         id="path3485" />
      <path
         d="m 131.23242,680.57701 c 0.374,-2.288 1.804,-2.772 2.508,-2.772 0.858,0 1.848,0.814 1.848,2.464 0,0.198 -0.088,0.308 -0.308,0.308 l -4.048,0 z m 5.874,3.718 c -0.77,0.836 -1.804,1.21 -3.014,1.21 -0.77,0 -1.804,-0.286 -2.398,-1.254 -0.396,-0.616 -0.528,-1.496 -0.528,-2.794 l 5.984,0 c 0.242,0 0.396,-0.132 0.396,-0.374 0,-1.848 -0.902,-4.158 -3.806,-4.158 -2.266,0 -4.51,1.826 -4.51,5.06 0,1.254 0.242,2.486 0.99,3.366 0.748,0.924 2.002,1.452 3.498,1.452 1.584,0 2.992,-0.814 3.828,-1.958 l -0.44,-0.55 z"
         style="font-style:normal;font-variant:normal;font-weight:normal;font-stretch:normal;font-size:22px;font-family:'Linux Biolinum O';-inkscape-font-specification:'Linux Biolinum O'"
         id="path3487" />
      <path
         d="m 141.37305,680.57701 c 0.374,-2.288 1.804,-2.772 2.508,-2.772 0.858,0 1.848,0.814 1.848,2.464 0,0.198 -0.088,0.308 -0.308,0.308 l -4.048,0 z m 5.874,3.718 c -0.77,0.836 -1.804,1.21 -3.014,1.21 -0.77,0 -1.804,-0.286 -2.398,-1.254 -0.396,-0.616 -0.528,-1.496 -0.528,-2.794 l 5.984,0 c 0.242,0 0.396,-0.132 0.396,-0.374 0,-1.848 -0.902,-4.158 -3.806,-4.158 -2.266,0 -4.51,1.826 -4.51,5.06 0,1.254 0.242,2.486 0.99,3.366 0.748,0.924 2.002,1.452 3.498,1.452 1.584,0 2.992,-0.814 3.828,-1.958 l -0.44,-0.55 z"
         style="font-style:normal;font-variant:normal;font-weight:normal;font-stretch:normal;font-size:22px;font-family:'Linux Biolinum O';-inkscape-font-specification:'Linux Biolinum O'"
         id="path3489" />
      <path
         d="m 156.70567,684.09701 c -0.814,1.034 -1.826,1.562 -2.706,1.562 -1.188,0 -2.2,-1.188 -2.2,-3.938 0,-3.3 1.738,-3.916 2.816,-3.916 1.034,0 1.562,0.44 2.09,1.276 l 0,5.016 z m 0,1.21 0.044,0 0.11,1.276 c 0,0.044 0.066,0.066 0.198,0.066 0.286,-0.022 0.44,-0.066 0.748,-0.066 0.286,0 0.704,0.022 0.99,0.066 l 0.044,-0.066 c -0.176,-0.946 -0.374,-2.574 -0.374,-4.224 l 0,-6.776 c 0,-1.628 0.088,-2.772 0.198,-4.136 0,-0.154 -0.066,-0.22 -0.198,-0.22 -0.572,0.22 -1.034,0.374 -1.914,0.44 l -0.044,0.066 c 0.154,0.946 0.198,2.574 0.198,4.246 l 0,1.43 c -0.506,-0.286 -1.408,-0.484 -1.848,-0.484 -2.882,0 -4.972,1.98 -4.972,4.972 0,2.706 1.606,4.906 3.982,4.906 1.056,0 2.046,-0.462 2.838,-1.496 z"
         style="font-style:normal;font-variant:normal;font-weight:normal;font-stretch:normal;font-size:22px;font-family:'Linux Biolinum O';-inkscape-font-specification:'Linux Biolinum O'"
         id="path3491" />
      <path
         d="m 163.9722,684.80101 0,-5.698 c 0.858,-0.88 1.408,-1.298 2.31,-1.298 1.342,0 2.53,1.122 2.53,3.85 0,2.728 -0.814,4.268 -2.904,4.268 -0.682,0 -1.496,-0.572 -1.936,-1.122 z m 0,-9.218 c 0,-1.628 0.022,-2.772 0.132,-4.136 0,-0.154 -0.066,-0.22 -0.198,-0.22 -0.572,0.22 -1.034,0.374 -1.914,0.44 l -0.044,0.066 c 0.154,0.946 0.264,2.574 0.264,4.246 l 0,8.998 c 0,0.858 -0.022,1.188 -0.11,1.65 0.132,0.132 0.374,0.176 0.616,0.176 0.242,-0.264 0.484,-0.638 0.726,-1.078 0.638,0.55 1.65,1.078 2.596,1.078 2.244,0 4.73,-1.584 4.73,-5.324 0,-2.684 -1.914,-4.554 -4.048,-4.554 -1.056,0 -2.002,0.286 -2.75,1.1 l 0,-2.442 z"
         style="font-style:normal;font-variant:normal;font-weight:normal;font-stretch:normal;font-size:22px;font-family:'Linux Biolinum O';-inkscape-font-specification:'Linux Biolinum O'"
         id="path3493" />
      <path
         d="m 178.31414,681.63301 -0.088,2.618 c 0,0.286 -0.132,0.44 -0.308,0.572 -0.616,0.462 -1.364,0.858 -2.024,0.858 -0.99,0 -1.628,-0.66 -1.628,-1.342 0,-0.99 0.462,-1.738 2.178,-2.2 l 1.87,-0.506 z m 0,3.894 c 0.242,0.88 0.902,1.276 1.716,1.276 0.55,0 1.232,-0.132 1.738,-0.682 l -0.154,-0.528 c -0.242,0.088 -0.44,0.11 -0.594,0.11 -0.22,0 -0.506,-0.044 -0.66,-0.176 -0.22,-0.198 -0.352,-0.726 -0.352,-1.716 0,-0.638 0.066,-3.08 0.066,-3.322 0,-2.97 -1.958,-3.564 -3.63,-3.564 -1.672,0 -2.684,0.814 -3.234,1.276 l -0.066,0.088 0.374,1.474 0.286,0.022 c 0.616,-0.99 1.364,-1.87 2.42,-1.87 0.792,0 2.112,0.11 2.112,2.596 0,0.154 -0.088,0.242 -0.154,0.264 l -2.046,0.462 c -2.244,0.506 -3.652,1.694 -3.652,3.19 0,1.628 1.122,2.376 2.75,2.376 1.21,0 1.826,-0.286 2.992,-1.276 l 0.088,0 z"
         style="font-style:normal;font-variant:normal;font-weight:normal;font-stretch:normal;font-size:22px;font-family:'Linux Biolinum O';-inkscape-font-specification:'Linux Biolinum O'"
         id="path3495" />
      <path
         d="m 187.56445,677.80501 c 0.836,0 1.606,0.638 2.2,1.628 l 0.286,-0.022 0.506,-1.804 -0.044,-0.066 c -0.682,-0.352 -1.826,-0.616 -2.926,-0.616 -2.288,0 -4.686,1.87 -4.686,4.862 0,3.08 1.738,5.016 4.422,5.016 1.32,0 2.354,-0.44 3.234,-1.562 l -0.418,-0.462 -0.088,0 c -0.836,0.748 -1.54,0.924 -2.354,0.924 -1.606,0 -2.86,-1.452 -2.86,-4.026 0,-2.42 1.276,-3.872 2.728,-3.872 z"
         style="font-style:normal;font-variant:normal;font-weight:normal;font-stretch:normal;font-size:22px;font-family:'Linux Biolinum O';-inkscape-font-specification:'Linux Biolinum O'"
         id="path3497" />
      <path
         d="m 193.49758,682.18301 c 0,1.65 -0.044,3.234 -0.198,4.4 l 0.044,0.066 c 0.264,-0.044 0.77,-0.066 1.034,-0.066 0.264,0 0.77,0.022 1.034,0.066 l 0.044,-0.066 c -0.176,-1.254 -0.198,-2.728 -0.198,-4.4 l 0,-0.22 c 0.176,0.022 0.704,0.088 0.902,0.242 1.43,1.496 1.958,2.288 3.454,4.444 0.33,-0.022 1.078,-0.066 1.452,-0.066 0.352,0 1.122,0.044 1.32,0.066 l 0.044,-0.066 c -1.65,-1.716 -2.816,-2.684 -4.906,-5.236 0.858,-0.88 3.014,-2.97 4.444,-4.202 l -0.044,-0.066 c -0.418,0.066 -1.628,0.066 -2.222,0.066 -0.968,1.386 -2.618,3.168 -3.476,3.828 -0.286,0.22 -0.682,0.308 -0.968,0.33 l 0,-5.72 c 0,-1.65 0.088,-2.728 0.198,-4.136 0,-0.154 -0.066,-0.22 -0.198,-0.22 -0.572,0.22 -1.034,0.374 -1.914,0.44 l -0.044,0.066 c 0.154,0.946 0.198,2.574 0.198,4.246 l 0,6.204 z"
         style="font-style:normal;font-variant:normal;font-weight:normal;font-stretch:normal;font-size:22px;font-family:'Linux Biolinum O';-inkscape-font-specification:'Linux Biolinum O'"
         id="path3499" />
      <path
         d="m 139.69486,707.61501 c 0.484,-1.166 1.782,-2.178 2.64,-2.178 1.496,0 2.266,1.364 2.266,3.85 0,1.804 -0.506,4.136 -2.86,4.136 -0.352,0 -1.276,-0.088 -2.046,-0.99 l 0,-4.818 z m 0,-1.276 0,-1.606 c 0,-0.154 -0.044,-0.22 -0.132,-0.22 -0.506,0.11 -1.298,0.132 -1.782,0.066 l -0.044,0.066 c 0.154,0.968 0.198,2.618 0.198,4.268 l 0,5.874 c 0,1.65 -0.044,3.234 -0.198,4.4 l 0.044,0.066 c 0.264,-0.044 0.77,-0.066 1.034,-0.066 0.264,0 0.77,0.022 1.034,0.066 l 0.044,-0.066 c -0.176,-1.254 -0.198,-2.728 -0.198,-4.4 l 0,-0.968 c 0.572,0.308 1.386,0.484 2.178,0.484 2.904,0 4.664,-2.2 4.664,-5.302 0,-2.332 -1.364,-4.576 -3.828,-4.576 -0.858,0 -1.958,0.44 -2.97,1.98 l -0.044,-0.066 z"
         style="font-style:normal;font-variant:normal;font-weight:normal;font-stretch:normal;font-size:22px;font-family:'Linux Biolinum O';-inkscape-font-specification:'Linux Biolinum O'"
         id="path3501" />
      <path
         d="m 148.65436,709.57301 c 0,2.64 1.738,4.73 4.664,4.73 2.904,0 4.664,-2.046 4.664,-4.928 0,-2.992 -1.606,-4.95 -4.576,-4.95 -2.882,0 -4.752,2.024 -4.752,5.148 z m 4.598,-4.268 c 2.332,0 2.794,1.804 2.794,4.466 0,2.112 -1.056,3.652 -2.53,3.652 -2.332,0 -2.926,-2.53 -2.926,-4.224 0,-1.914 0.594,-3.894 2.662,-3.894 z"
         style="font-style:normal;font-variant:normal;font-weight:normal;font-stretch:normal;font-size:22px;font-family:'Linux Biolinum O';-inkscape-font-specification:'Linux Biolinum O'"
         id="path3503" />
      <path
         d="m 160.57836,700.94901 c 0,0.594 0.528,1.122 1.122,1.122 0.594,0 1.122,-0.528 1.122,-1.122 0,-0.594 -0.528,-1.122 -1.122,-1.122 -0.594,0 -1.122,0.528 -1.122,1.122 z m 0.22,7.964 0,1.21 c 0,1.65 -0.044,2.772 -0.198,3.96 l 0.044,0.066 c 0.264,-0.044 0.77,-0.066 1.034,-0.066 0.264,0 0.77,0.022 1.034,0.066 l 0.044,-0.066 c -0.176,-1.232 -0.198,-2.288 -0.198,-3.96 l 0,-1.562 c 0,-1.65 0.044,-2.442 0.198,-3.784 0,-0.198 -0.044,-0.22 -0.198,-0.22 -0.506,0.066 -1.452,0.066 -1.914,0.022 l -0.044,0.066 c 0.132,0.946 0.198,2.618 0.198,4.268 z"
         style="font-style:normal;font-variant:normal;font-weight:normal;font-stretch:normal;font-size:22px;font-family:'Linux Biolinum O';-inkscape-font-specification:'Linux Biolinum O'"
         id="path3505" />
      <path
         d="m 174.6532,710.12301 c 0,-0.704 0.044,-1.518 0.044,-2.222 0,-2.288 -0.748,-3.476 -2.728,-3.476 -0.836,0 -2.398,0.33 -3.806,1.98 l -0.044,-0.066 0,-1.606 c -0.022,-0.154 -0.044,-0.22 -0.132,-0.22 -0.506,0.11 -1.298,0.132 -1.782,0.066 l -0.044,0.066 c 0.154,0.968 0.198,2.618 0.198,4.268 l 0,1.21 c 0,1.65 -0.022,2.772 -0.198,3.96 l 0.044,0.066 c 0.264,-0.044 0.77,-0.066 1.034,-0.066 0.264,0 0.77,0.022 1.034,0.066 l 0.044,-0.066 c -0.176,-1.254 -0.198,-2.288 -0.198,-3.96 l 0,-2.574 c 1.122,-1.32 2.398,-1.804 3.19,-1.804 1.122,0 1.584,0.44 1.584,2.222 l 0,2.156 c 0,1.65 -0.044,2.794 -0.198,3.96 l 0.044,0.066 c 0.264,-0.044 0.77,-0.066 1.034,-0.066 0.264,0 0.77,0.022 1.034,0.066 l 0.044,-0.066 c -0.176,-1.254 -0.198,-2.288 -0.198,-3.96 z"
         style="font-style:normal;font-variant:normal;font-weight:normal;font-stretch:normal;font-size:22px;font-family:'Linux Biolinum O';-inkscape-font-specification:'Linux Biolinum O'"
         id="path3507" />
      <path
         d="m 178.48258,704.64501 c -0.462,0 -0.924,0 -1.188,-0.044 -0.154,0.374 -0.286,0.572 -0.484,0.902 l 0.11,0.154 c 0.374,-0.022 1.056,-0.022 1.562,-0.044 l 0,3.014 c 0,1.32 -0.066,2.904 -0.066,3.564 0,1.43 0.924,2.112 1.936,2.112 0.924,0 1.628,-0.22 2.552,-0.814 l -0.286,-0.528 c -0.66,0.22 -1.166,0.242 -1.716,0.154 -0.528,-0.066 -0.726,-0.594 -0.726,-1.804 0,-0.66 0.066,-1.606 0.066,-2.926 l 0,-2.772 0.836,0 c 0.528,0 1.276,0.022 1.584,0.044 0.066,-0.352 0.132,-0.572 0.264,-0.902 l -0.11,-0.154 c -0.396,0.022 -1.034,0.044 -1.54,0.044 l -1.034,0 c 0,-1.628 0,-1.936 0.11,-3.212 0,-0.154 -0.066,-0.22 -0.198,-0.22 -0.572,0.22 -0.836,0.462 -1.54,0.55 l -0.044,0.066 c -0.044,0.77 -0.088,1.54 -0.088,2.816 z"
         style="font-style:normal;font-variant:normal;font-weight:normal;font-stretch:normal;font-size:22px;font-family:'Linux Biolinum O';-inkscape-font-specification:'Linux Biolinum O'"
         id="path3509" />
    </g>
  </g>
</svg>
